<svg width="31" height="30" viewBox="0 0 31 30" fill="none" xmlns="http://www.w3.org/2000/svg">
<path d="M21.75 2.5H9.25C5.79822 2.5 3 5.29822 3 8.75V21.25C3 24.7018 5.79822 27.5 9.25 27.5H21.75C25.2018 27.5 28 24.7018 28 21.25V8.75C28 5.29822 25.2018 2.5 21.75 2.5Z" stroke="#0B0E0F" stroke-width="2" stroke-linecap="round" stroke-linejoin="round"/>
<path d="M20.5 14.2125C20.6543 15.2528 20.4766 16.3153 19.9922 17.2488C19.5078 18.1823 18.7414 18.9393 17.802 19.4121C16.8626 19.8849 15.7981 20.0495 14.7597 19.8824C13.7214 19.7153 12.7622 19.2251 12.0185 18.4815C11.2749 17.7378 10.7847 16.7786 10.6176 15.7403C10.4505 14.702 10.6151 13.6374 11.0879 12.698C11.5607 11.7586 12.3177 10.9922 13.2512 10.5078C14.1847 10.0234 15.2472 9.84575 16.2875 10C17.3487 10.1574 18.3311 10.6518 19.0896 11.4104C19.8482 12.1689 20.3426 13.1514 20.5 14.2125Z" stroke="#0B0E0F" stroke-width="2" stroke-linecap="round" stroke-linejoin="round"/>
<path d="M22.375 8.125H22.3875" stroke="#0B0E0F" stroke-width="2" stroke-linecap="round" stroke-linejoin="round"/>
</svg>
