<svg width="250" height="40" viewBox="0 0 250 40" fill="none" xmlns="http://www.w3.org/2000/svg">
<rect width="250" height="40" rx="6" fill="#0B0E0F"/>
<rect width="250" height="40" rx="6" fill="#DE0D22"/>
<rect width="250" height="40" rx="6" stroke="#0B0E0F"/>
<path d="M29.92 26V13.22H25.62V11.26H36.6V13.22H32.28V26H29.92ZM41.7459 26.28C40.8393 26.28 39.9859 26.0533 39.1859 25.6C38.3993 25.1333 37.7593 24.4733 37.2659 23.62C36.7859 22.7533 36.5459 21.7133 36.5459 20.5C36.5459 19.2733 36.7859 18.2333 37.2659 17.38C37.7593 16.5133 38.3993 15.8533 39.1859 15.4C39.9859 14.9467 40.8393 14.72 41.7459 14.72C42.4126 14.72 43.0593 14.8533 43.6859 15.12C44.3126 15.3733 44.8659 15.7467 45.3459 16.24C45.8259 16.7333 46.2059 17.34 46.4859 18.06C46.7659 18.7667 46.9059 19.58 46.9059 20.5C46.9059 21.7133 46.6593 22.7533 46.1659 23.62C45.6859 24.4733 45.0526 25.1333 44.2659 25.6C43.4926 26.0533 42.6526 26.28 41.7459 26.28ZM41.7459 24.36C42.3193 24.36 42.8126 24.2 43.2259 23.88C43.6526 23.56 43.9793 23.1133 44.2059 22.54C44.4326 21.9533 44.5459 21.2733 44.5459 20.5C44.5459 19.7267 44.4326 19.0533 44.2059 18.48C43.9793 17.8933 43.6526 17.44 43.2259 17.12C42.8126 16.7867 42.3193 16.62 41.7459 16.62C41.1593 16.62 40.6526 16.7867 40.2259 17.12C39.8126 17.44 39.4926 17.8933 39.2659 18.48C39.0393 19.0533 38.9259 19.7267 38.9259 20.5C38.9259 21.2733 39.0393 21.9533 39.2659 22.54C39.4926 23.1133 39.8126 23.56 40.2259 23.88C40.6526 24.2 41.1593 24.36 41.7459 24.36ZM49.6306 30.46V14.98H51.5106L51.7106 16.2H51.7506C52.244 15.8 52.7773 15.4533 53.3506 15.16C53.924 14.8667 54.524 14.72 55.1506 14.72C56.0706 14.72 56.8573 14.9533 57.5106 15.42C58.164 15.8867 58.6573 16.54 58.9906 17.38C59.324 18.2067 59.4906 19.1867 59.4906 20.32C59.4906 21.5733 59.264 22.6467 58.8106 23.54C58.3706 24.4333 57.7906 25.1133 57.0706 25.58C56.3506 26.0467 55.5773 26.28 54.7506 26.28C54.2706 26.28 53.784 26.1733 53.2906 25.96C52.7973 25.7333 52.324 25.42 51.8706 25.02L51.9306 26.9V30.46H49.6306ZM54.3106 24.34C54.844 24.34 55.3173 24.1867 55.7306 23.88C56.1573 23.5733 56.4906 23.1267 56.7306 22.54C56.984 21.94 57.1106 21.2133 57.1106 20.36C57.1106 19.5867 57.0173 18.9267 56.8306 18.38C56.6573 17.82 56.384 17.3933 56.0106 17.1C55.6373 16.7933 55.144 16.64 54.5306 16.64C54.104 16.64 53.6773 16.7533 53.2506 16.98C52.8373 17.1933 52.3973 17.5267 51.9306 17.98V23.36C52.3573 23.72 52.7773 23.9733 53.1906 24.12C53.604 24.2667 53.9773 24.34 54.3106 24.34ZM74.7283 13.9C74.7283 14.2733 74.8616 14.6 75.1283 14.88C75.4083 15.1467 75.7349 15.28 76.1083 15.28C76.4949 15.28 76.8216 15.1467 77.0883 14.88C77.3549 14.6 77.4883 14.2733 77.4883 13.9C77.4883 13.5133 77.3549 13.1867 77.0883 12.92C76.8216 12.6533 76.4949 12.52 76.1083 12.52C75.7349 12.52 75.4083 12.6533 75.1283 12.92C74.8616 13.1867 74.7283 13.5133 74.7283 13.9ZM73.6283 13.9C73.6283 13.4333 73.7349 13.0133 73.9483 12.64C74.1749 12.2533 74.4749 11.9467 74.8483 11.72C75.2349 11.4933 75.6549 11.38 76.1083 11.38C76.5749 11.38 76.9949 11.4933 77.3683 11.72C77.7549 11.9467 78.0616 12.2533 78.2883 12.64C78.5149 13.0133 78.6283 13.4333 78.6283 13.9C78.6283 14.3533 78.5149 14.7733 78.2883 15.16C78.0616 15.5333 77.7549 15.8333 77.3683 16.06C76.9949 16.2733 76.5749 16.38 76.1083 16.38C75.6549 16.38 75.2349 16.2733 74.8483 16.06C74.4749 15.8333 74.1749 15.5333 73.9483 15.16C73.7349 14.7733 73.6283 14.3533 73.6283 13.9ZM61.3883 20.54C61.6683 20.3133 61.9216 20.0933 62.1483 19.88C62.3749 19.6667 62.6283 19.42 62.9083 19.14C63.1483 18.9 63.4216 18.6 63.7283 18.24C64.0349 17.88 64.3616 17.4867 64.7083 17.06C65.0683 16.6333 65.4283 16.2 65.7883 15.76C66.1483 15.32 66.4883 14.9067 66.8083 14.52C67.3683 13.8667 67.9283 13.5067 68.4883 13.44C69.0616 13.36 69.7083 13.6667 70.4283 14.36C70.8549 14.7467 71.3083 15.1867 71.7883 15.68C72.2683 16.1733 72.7416 16.6667 73.2083 17.16C73.6883 17.6533 74.1216 18.1067 74.5083 18.52C74.9616 19 75.4683 19.5467 76.0283 20.16C76.6016 20.76 77.1816 21.38 77.7683 22.02C78.3683 22.6467 78.9216 23.24 79.4283 23.8L77.6883 25.64C77.2349 25.0667 76.7483 24.4733 76.2283 23.86C75.7083 23.2467 75.1949 22.6467 74.6883 22.06C74.1949 21.4733 73.7416 20.94 73.3283 20.46C73.0349 20.1267 72.7083 19.7667 72.3483 19.38C72.0016 18.9933 71.6483 18.6067 71.2883 18.22C70.9416 17.8333 70.6149 17.48 70.3083 17.16C70.0016 16.84 69.7483 16.58 69.5483 16.38C69.1883 16.0333 68.8883 15.8733 68.6483 15.9C68.4083 15.9133 68.1283 16.12 67.8083 16.52C67.5816 16.7867 67.3216 17.1067 67.0283 17.48C66.7483 17.8533 66.4549 18.2467 66.1483 18.66C65.8416 19.06 65.5416 19.4533 65.2483 19.84C64.9549 20.2133 64.7016 20.5333 64.4883 20.8C64.2749 21.08 64.0616 21.3733 63.8483 21.68C63.6349 21.9867 63.4483 22.2533 63.2883 22.48L61.3883 20.54ZM82.4283 17.08C82.6549 17.0933 82.9283 17.1133 83.2483 17.14C83.5816 17.1533 83.9349 17.1667 84.3083 17.18C84.6949 17.1933 85.0616 17.2 85.4083 17.2C85.6749 17.2 86.0416 17.2 86.5083 17.2C86.9749 17.2 87.5016 17.2 88.0883 17.2C88.6883 17.2 89.3149 17.2 89.9683 17.2C90.6216 17.2 91.2683 17.2 91.9083 17.2C92.5616 17.2 93.1749 17.2 93.7483 17.2C94.3216 17.2 94.8283 17.2 95.2683 17.2C95.7083 17.2 96.0483 17.2 96.2883 17.2C96.7683 17.2 97.2016 17.1867 97.5883 17.16C97.9749 17.12 98.2883 17.0933 98.5283 17.08V19.56C98.3016 19.5467 97.9816 19.5267 97.5683 19.5C97.1549 19.4733 96.7283 19.46 96.2883 19.46C96.0616 19.46 95.7216 19.46 95.2683 19.46C94.8283 19.46 94.3216 19.46 93.7483 19.46C93.1749 19.46 92.5616 19.46 91.9083 19.46C91.2683 19.46 90.6216 19.46 89.9683 19.46C89.3149 19.46 88.6883 19.46 88.0883 19.46C87.5016 19.46 86.9749 19.46 86.5083 19.46C86.0416 19.46 85.6749 19.46 85.4083 19.46C84.8616 19.46 84.3149 19.4733 83.7683 19.5C83.2216 19.5133 82.7749 19.5333 82.4283 19.56V17.08ZM114.538 10.88C114.711 11.1333 114.911 11.4467 115.138 11.82C115.378 12.1933 115.604 12.5733 115.818 12.96C116.044 13.3333 116.231 13.68 116.378 14L114.978 14.6C114.804 14.2133 114.618 13.8467 114.418 13.5C114.231 13.14 114.038 12.7867 113.838 12.44C113.638 12.0933 113.418 11.7667 113.178 11.46L114.538 10.88ZM117.218 9.92C117.404 10.16 117.611 10.46 117.838 10.82C118.078 11.18 118.311 11.5533 118.538 11.94C118.764 12.3133 118.958 12.6533 119.118 12.96L117.718 13.58C117.544 13.1933 117.351 12.8267 117.138 12.48C116.938 12.1333 116.731 11.7933 116.518 11.46C116.304 11.1267 116.078 10.8067 115.838 10.5L117.218 9.92ZM105.938 10.54C106.244 10.7133 106.598 10.9333 106.998 11.2C107.411 11.4533 107.831 11.72 108.258 12C108.684 12.2667 109.084 12.5267 109.458 12.78C109.831 13.02 110.138 13.2267 110.378 13.4L109.178 15.12C108.938 14.9333 108.631 14.7133 108.258 14.46C107.884 14.2067 107.484 13.9467 107.058 13.68C106.644 13.4133 106.238 13.16 105.838 12.92C105.451 12.6667 105.104 12.4533 104.798 12.28L105.938 10.54ZM102.618 24.8C103.364 24.6667 104.124 24.5 104.898 24.3C105.671 24.0867 106.438 23.8333 107.198 23.54C107.958 23.2333 108.684 22.8933 109.378 22.52C110.498 21.88 111.531 21.1667 112.478 20.38C113.438 19.5933 114.304 18.7533 115.078 17.86C115.851 16.9667 116.504 16.0467 117.038 15.1L118.258 17.22C117.364 18.58 116.244 19.88 114.898 21.12C113.551 22.36 112.064 23.4533 110.438 24.4C109.771 24.7733 109.038 25.1267 108.238 25.46C107.438 25.7933 106.651 26.08 105.878 26.32C105.104 26.5733 104.411 26.7533 103.798 26.86L102.618 24.8ZM102.878 15.08C103.198 15.24 103.564 15.4467 103.978 15.7C104.391 15.94 104.811 16.1933 105.238 16.46C105.664 16.7267 106.064 16.98 106.438 17.22C106.811 17.46 107.118 17.66 107.358 17.82L106.198 19.6C105.931 19.4133 105.611 19.1933 105.238 18.94C104.864 18.6867 104.471 18.4267 104.058 18.16C103.644 17.8933 103.238 17.6467 102.838 17.42C102.438 17.18 102.078 16.9733 101.758 16.8L102.878 15.08ZM129.138 12.28C129.724 12.3733 130.384 12.44 131.118 12.48C131.864 12.52 132.631 12.5333 133.418 12.52C134.204 12.5067 134.958 12.48 135.678 12.44C136.398 12.4 137.018 12.3467 137.538 12.28V14.32C136.964 14.3733 136.318 14.42 135.598 14.46C134.878 14.4867 134.131 14.5 133.358 14.5C132.598 14.5 131.851 14.4867 131.118 14.46C130.384 14.42 129.731 14.3733 129.158 14.32L129.138 12.28ZM130.278 20.6C130.198 20.9467 130.131 21.26 130.078 21.54C130.038 21.82 130.018 22.1 130.018 22.38C130.018 22.6067 130.064 22.82 130.158 23.02C130.264 23.22 130.431 23.3933 130.658 23.54C130.898 23.6867 131.218 23.8067 131.618 23.9C132.031 23.98 132.538 24.02 133.138 24.02C134.044 24.02 134.891 23.98 135.678 23.9C136.478 23.8067 137.291 23.6667 138.118 23.48L138.158 25.62C137.531 25.74 136.798 25.84 135.958 25.92C135.131 25.9867 134.178 26.02 133.098 26.02C131.404 26.02 130.151 25.7467 129.338 25.2C128.538 24.64 128.138 23.8733 128.138 22.9C128.138 22.54 128.164 22.1667 128.218 21.78C128.271 21.38 128.358 20.9333 128.478 20.44L130.278 20.6ZM125.658 10.84C125.618 10.96 125.564 11.12 125.498 11.32C125.444 11.5067 125.391 11.7 125.338 11.9C125.298 12.0867 125.264 12.24 125.238 12.36C125.171 12.6933 125.091 13.1 124.998 13.58C124.918 14.0467 124.831 14.56 124.738 15.12C124.658 15.6667 124.578 16.2267 124.498 16.8C124.431 17.36 124.371 17.9067 124.318 18.44C124.278 18.9733 124.258 19.46 124.258 19.9C124.258 20.2467 124.264 20.6 124.278 20.96C124.304 21.3067 124.338 21.6667 124.378 22.04C124.498 21.7733 124.618 21.4933 124.738 21.2C124.858 20.8933 124.978 20.5933 125.098 20.3C125.218 20.0067 125.331 19.74 125.438 19.5L126.438 20.3C126.264 20.7933 126.078 21.34 125.878 21.94C125.678 22.54 125.498 23.1133 125.338 23.66C125.191 24.1933 125.084 24.6267 125.018 24.96C124.991 25.0933 124.964 25.2533 124.938 25.44C124.911 25.6133 124.904 25.76 124.918 25.88C124.918 25.9733 124.918 26.0867 124.918 26.22C124.931 26.3667 124.944 26.5 124.958 26.62L123.138 26.74C122.938 26.0467 122.764 25.1333 122.618 24C122.471 22.8667 122.398 21.6267 122.398 20.28C122.398 19.5333 122.431 18.78 122.498 18.02C122.564 17.2467 122.644 16.5 122.738 15.78C122.831 15.06 122.924 14.4 123.018 13.8C123.124 13.2 123.204 12.7 123.258 12.3C123.298 12.0467 123.331 11.7733 123.358 11.48C123.398 11.1867 123.424 10.9067 123.438 10.64L125.658 10.84ZM144.038 20.18H158.738V21.82H144.038V20.18ZM152.238 21.16C152.731 22.5733 153.571 23.6667 154.758 24.44C155.944 25.2133 157.518 25.7267 159.478 25.98C159.344 26.1133 159.204 26.28 159.058 26.48C158.911 26.68 158.771 26.8867 158.638 27.1C158.518 27.3133 158.418 27.5067 158.338 27.68C156.911 27.44 155.691 27.06 154.678 26.54C153.664 26.02 152.818 25.34 152.138 24.5C151.471 23.66 150.931 22.64 150.518 21.44L152.238 21.16ZM150.218 17.7H152.158C152.091 18.7667 151.984 19.7533 151.838 20.66C151.704 21.5533 151.484 22.3733 151.178 23.12C150.871 23.8533 150.444 24.5133 149.898 25.1C149.364 25.6733 148.664 26.18 147.798 26.62C146.944 27.06 145.878 27.4267 144.598 27.72C144.544 27.56 144.458 27.3867 144.338 27.2C144.231 27.0133 144.111 26.8267 143.978 26.64C143.844 26.4533 143.711 26.3 143.578 26.18C145.018 25.86 146.164 25.46 147.018 24.98C147.884 24.4867 148.531 23.9 148.958 23.22C149.398 22.54 149.698 21.74 149.858 20.82C150.031 19.9 150.151 18.86 150.218 17.7ZM143.018 13.16H144.898V17.14C144.898 17.8867 144.864 18.7067 144.798 19.6C144.731 20.48 144.604 21.3867 144.418 22.32C144.231 23.24 143.964 24.14 143.618 25.02C143.284 25.8867 142.831 26.68 142.258 27.4C142.151 27.2933 141.991 27.1667 141.778 27.02C141.578 26.8867 141.371 26.76 141.158 26.64C140.944 26.52 140.758 26.4267 140.598 26.36C141.144 25.6933 141.578 24.9667 141.898 24.18C142.218 23.3933 142.458 22.5867 142.618 21.76C142.778 20.92 142.884 20.1067 142.938 19.32C142.991 18.52 143.018 17.78 143.018 17.1V13.16ZM143.938 13.16H157.638V18.06H143.938V16.6H155.778V14.62H143.938V13.16ZM141.698 10.2H158.658V11.92H141.698V10.2ZM164.698 11.04C164.951 11.0667 165.218 11.0867 165.498 11.1C165.791 11.1133 166.058 11.12 166.298 11.12C166.498 11.12 166.818 11.12 167.258 11.12C167.711 11.1067 168.218 11.0933 168.778 11.08C169.351 11.0667 169.918 11.0533 170.478 11.04C171.038 11.0133 171.538 10.9867 171.978 10.96C172.431 10.9333 172.764 10.9133 172.978 10.9C173.338 10.8733 173.611 10.8467 173.798 10.82C173.998 10.7933 174.151 10.76 174.258 10.72L175.358 12.16C175.158 12.2933 174.951 12.4267 174.738 12.56C174.524 12.6933 174.311 12.8467 174.098 13.02C173.844 13.2067 173.511 13.4667 173.098 13.8C172.698 14.12 172.264 14.48 171.798 14.88C171.331 15.2667 170.871 15.6467 170.418 16.02C169.964 16.3933 169.558 16.7267 169.198 17.02C169.598 16.8867 169.998 16.8 170.398 16.76C170.798 16.7067 171.198 16.68 171.598 16.68C172.704 16.68 173.698 16.8933 174.578 17.32C175.458 17.7467 176.151 18.32 176.658 19.04C177.164 19.76 177.418 20.5933 177.418 21.54C177.418 22.5933 177.138 23.5333 176.578 24.36C176.031 25.1867 175.231 25.8333 174.178 26.3C173.138 26.7667 171.871 27 170.378 27C169.458 27 168.651 26.8733 167.958 26.62C167.264 26.3667 166.724 26.0133 166.338 25.56C165.964 25.0933 165.778 24.56 165.778 23.96C165.778 23.4667 165.911 23.0067 166.178 22.58C166.458 22.14 166.844 21.7933 167.338 21.54C167.844 21.2733 168.424 21.14 169.078 21.14C169.984 21.14 170.738 21.3267 171.338 21.7C171.951 22.06 172.418 22.54 172.738 23.14C173.071 23.74 173.251 24.3933 173.278 25.1L171.458 25.36C171.418 24.56 171.184 23.9067 170.758 23.4C170.344 22.8933 169.784 22.64 169.078 22.64C168.651 22.64 168.298 22.7533 168.018 22.98C167.751 23.2067 167.618 23.4733 167.618 23.78C167.618 24.22 167.838 24.5667 168.278 24.82C168.731 25.0733 169.311 25.2 170.018 25.2C171.151 25.2 172.118 25.06 172.918 24.78C173.718 24.4867 174.324 24.0667 174.738 23.52C175.151 22.96 175.358 22.2867 175.358 21.5C175.358 20.8733 175.171 20.3133 174.798 19.82C174.424 19.3267 173.911 18.9467 173.258 18.68C172.604 18.4 171.858 18.26 171.018 18.26C170.218 18.26 169.484 18.3533 168.818 18.54C168.164 18.7133 167.551 18.9733 166.978 19.32C166.404 19.6533 165.838 20.0733 165.278 20.58C164.731 21.0733 164.164 21.64 163.578 22.28L162.118 20.8C162.518 20.48 162.958 20.12 163.438 19.72C163.918 19.32 164.398 18.92 164.878 18.52C165.371 18.1067 165.831 17.72 166.258 17.36C166.698 16.9867 167.064 16.68 167.358 16.44C167.638 16.2133 167.978 15.94 168.378 15.62C168.778 15.2867 169.191 14.94 169.618 14.58C170.044 14.22 170.451 13.88 170.838 13.56C171.224 13.2267 171.544 12.9467 171.798 12.72C171.584 12.7333 171.291 12.7467 170.918 12.76C170.544 12.7733 170.131 12.7933 169.678 12.82C169.238 12.8333 168.791 12.8533 168.338 12.88C167.884 12.8933 167.471 12.9133 167.098 12.94C166.724 12.9533 166.438 12.9667 166.238 12.98C165.998 12.9933 165.744 13.0133 165.478 13.04C165.224 13.0533 164.984 13.0733 164.758 13.1L164.698 11.04Z" fill="white"/>
<path d="M211 31.6667C217.443 31.6667 222.667 26.4433 222.667 20C222.667 13.5567 217.443 8.33334 211 8.33334C204.557 8.33334 199.333 13.5567 199.333 20C199.333 26.4433 204.557 31.6667 211 31.6667Z" stroke="white" stroke-width="2" stroke-linecap="round" stroke-linejoin="round"/>
<path d="M211 24.6667L215.667 20L211 15.3333" stroke="white" stroke-width="2" stroke-linecap="round" stroke-linejoin="round"/>
<path d="M206.333 20H215.667" stroke="white" stroke-width="2" stroke-linecap="round" stroke-linejoin="round"/>
</svg>
