<svg width="250" height="40" viewBox="0 0 250 40" fill="none" xmlns="http://www.w3.org/2000/svg">
<rect width="250" height="40" rx="6" fill="#DE0D22"/>
<path d="M29.92 28V15.22H25.62V13.26H36.6V15.22H32.28V28H29.92ZM41.7459 28.28C40.8393 28.28 39.9859 28.0533 39.1859 27.6C38.3993 27.1333 37.7593 26.4733 37.2659 25.62C36.7859 24.7533 36.5459 23.7133 36.5459 22.5C36.5459 21.2733 36.7859 20.2333 37.2659 19.38C37.7593 18.5133 38.3993 17.8533 39.1859 17.4C39.9859 16.9467 40.8393 16.72 41.7459 16.72C42.4126 16.72 43.0593 16.8533 43.6859 17.12C44.3126 17.3733 44.8659 17.7467 45.3459 18.24C45.8259 18.7333 46.2059 19.34 46.4859 20.06C46.7659 20.7667 46.9059 21.58 46.9059 22.5C46.9059 23.7133 46.6593 24.7533 46.1659 25.62C45.6859 26.4733 45.0526 27.1333 44.2659 27.6C43.4926 28.0533 42.6526 28.28 41.7459 28.28ZM41.7459 26.36C42.3193 26.36 42.8126 26.2 43.2259 25.88C43.6526 25.56 43.9793 25.1133 44.2059 24.54C44.4326 23.9533 44.5459 23.2733 44.5459 22.5C44.5459 21.7267 44.4326 21.0533 44.2059 20.48C43.9793 19.8933 43.6526 19.44 43.2259 19.12C42.8126 18.7867 42.3193 18.62 41.7459 18.62C41.1593 18.62 40.6526 18.7867 40.2259 19.12C39.8126 19.44 39.4926 19.8933 39.2659 20.48C39.0393 21.0533 38.9259 21.7267 38.9259 22.5C38.9259 23.2733 39.0393 23.9533 39.2659 24.54C39.4926 25.1133 39.8126 25.56 40.2259 25.88C40.6526 26.2 41.1593 26.36 41.7459 26.36ZM49.6306 32.46V16.98H51.5106L51.7106 18.2H51.7506C52.244 17.8 52.7773 17.4533 53.3506 17.16C53.924 16.8667 54.524 16.72 55.1506 16.72C56.0706 16.72 56.8573 16.9533 57.5106 17.42C58.164 17.8867 58.6573 18.54 58.9906 19.38C59.324 20.2067 59.4906 21.1867 59.4906 22.32C59.4906 23.5733 59.264 24.6467 58.8106 25.54C58.3706 26.4333 57.7906 27.1133 57.0706 27.58C56.3506 28.0467 55.5773 28.28 54.7506 28.28C54.2706 28.28 53.784 28.1733 53.2906 27.96C52.7973 27.7333 52.324 27.42 51.8706 27.02L51.9306 28.9V32.46H49.6306ZM54.3106 26.34C54.844 26.34 55.3173 26.1867 55.7306 25.88C56.1573 25.5733 56.4906 25.1267 56.7306 24.54C56.984 23.94 57.1106 23.2133 57.1106 22.36C57.1106 21.5867 57.0173 20.9267 56.8306 20.38C56.6573 19.82 56.384 19.3933 56.0106 19.1C55.6373 18.7933 55.144 18.64 54.5306 18.64C54.104 18.64 53.6773 18.7533 53.2506 18.98C52.8373 19.1933 52.3973 19.5267 51.9306 19.98V25.36C52.3573 25.72 52.7773 25.9733 53.1906 26.12C53.604 26.2667 53.9773 26.34 54.3106 26.34ZM74.7283 15.9C74.7283 16.2733 74.8616 16.6 75.1283 16.88C75.4083 17.1467 75.7349 17.28 76.1083 17.28C76.4949 17.28 76.8216 17.1467 77.0883 16.88C77.3549 16.6 77.4883 16.2733 77.4883 15.9C77.4883 15.5133 77.3549 15.1867 77.0883 14.92C76.8216 14.6533 76.4949 14.52 76.1083 14.52C75.7349 14.52 75.4083 14.6533 75.1283 14.92C74.8616 15.1867 74.7283 15.5133 74.7283 15.9ZM73.6283 15.9C73.6283 15.4333 73.7349 15.0133 73.9483 14.64C74.1749 14.2533 74.4749 13.9467 74.8483 13.72C75.2349 13.4933 75.6549 13.38 76.1083 13.38C76.5749 13.38 76.9949 13.4933 77.3683 13.72C77.7549 13.9467 78.0616 14.2533 78.2883 14.64C78.5149 15.0133 78.6283 15.4333 78.6283 15.9C78.6283 16.3533 78.5149 16.7733 78.2883 17.16C78.0616 17.5333 77.7549 17.8333 77.3683 18.06C76.9949 18.2733 76.5749 18.38 76.1083 18.38C75.6549 18.38 75.2349 18.2733 74.8483 18.06C74.4749 17.8333 74.1749 17.5333 73.9483 17.16C73.7349 16.7733 73.6283 16.3533 73.6283 15.9ZM61.3883 22.54C61.6683 22.3133 61.9216 22.0933 62.1483 21.88C62.3749 21.6667 62.6283 21.42 62.9083 21.14C63.1483 20.9 63.4216 20.6 63.7283 20.24C64.0349 19.88 64.3616 19.4867 64.7083 19.06C65.0683 18.6333 65.4283 18.2 65.7883 17.76C66.1483 17.32 66.4883 16.9067 66.8083 16.52C67.3683 15.8667 67.9283 15.5067 68.4883 15.44C69.0616 15.36 69.7083 15.6667 70.4283 16.36C70.8549 16.7467 71.3083 17.1867 71.7883 17.68C72.2683 18.1733 72.7416 18.6667 73.2083 19.16C73.6883 19.6533 74.1216 20.1067 74.5083 20.52C74.9616 21 75.4683 21.5467 76.0283 22.16C76.6016 22.76 77.1816 23.38 77.7683 24.02C78.3683 24.6467 78.9216 25.24 79.4283 25.8L77.6883 27.64C77.2349 27.0667 76.7483 26.4733 76.2283 25.86C75.7083 25.2467 75.1949 24.6467 74.6883 24.06C74.1949 23.4733 73.7416 22.94 73.3283 22.46C73.0349 22.1267 72.7083 21.7667 72.3483 21.38C72.0016 20.9933 71.6483 20.6067 71.2883 20.22C70.9416 19.8333 70.6149 19.48 70.3083 19.16C70.0016 18.84 69.7483 18.58 69.5483 18.38C69.1883 18.0333 68.8883 17.8733 68.6483 17.9C68.4083 17.9133 68.1283 18.12 67.8083 18.52C67.5816 18.7867 67.3216 19.1067 67.0283 19.48C66.7483 19.8533 66.4549 20.2467 66.1483 20.66C65.8416 21.06 65.5416 21.4533 65.2483 21.84C64.9549 22.2133 64.7016 22.5333 64.4883 22.8C64.2749 23.08 64.0616 23.3733 63.8483 23.68C63.6349 23.9867 63.4483 24.2533 63.2883 24.48L61.3883 22.54ZM82.4283 19.08C82.6549 19.0933 82.9283 19.1133 83.2483 19.14C83.5816 19.1533 83.9349 19.1667 84.3083 19.18C84.6949 19.1933 85.0616 19.2 85.4083 19.2C85.6749 19.2 86.0416 19.2 86.5083 19.2C86.9749 19.2 87.5016 19.2 88.0883 19.2C88.6883 19.2 89.3149 19.2 89.9683 19.2C90.6216 19.2 91.2683 19.2 91.9083 19.2C92.5616 19.2 93.1749 19.2 93.7483 19.2C94.3216 19.2 94.8283 19.2 95.2683 19.2C95.7083 19.2 96.0483 19.2 96.2883 19.2C96.7683 19.2 97.2016 19.1867 97.5883 19.16C97.9749 19.12 98.2883 19.0933 98.5283 19.08V21.56C98.3016 21.5467 97.9816 21.5267 97.5683 21.5C97.1549 21.4733 96.7283 21.46 96.2883 21.46C96.0616 21.46 95.7216 21.46 95.2683 21.46C94.8283 21.46 94.3216 21.46 93.7483 21.46C93.1749 21.46 92.5616 21.46 91.9083 21.46C91.2683 21.46 90.6216 21.46 89.9683 21.46C89.3149 21.46 88.6883 21.46 88.0883 21.46C87.5016 21.46 86.9749 21.46 86.5083 21.46C86.0416 21.46 85.6749 21.46 85.4083 21.46C84.8616 21.46 84.3149 21.4733 83.7683 21.5C83.2216 21.5133 82.7749 21.5333 82.4283 21.56V19.08ZM114.538 12.88C114.711 13.1333 114.911 13.4467 115.138 13.82C115.378 14.1933 115.604 14.5733 115.818 14.96C116.044 15.3333 116.231 15.68 116.378 16L114.978 16.6C114.804 16.2133 114.618 15.8467 114.418 15.5C114.231 15.14 114.038 14.7867 113.838 14.44C113.638 14.0933 113.418 13.7667 113.178 13.46L114.538 12.88ZM117.218 11.92C117.404 12.16 117.611 12.46 117.838 12.82C118.078 13.18 118.311 13.5533 118.538 13.94C118.764 14.3133 118.958 14.6533 119.118 14.96L117.718 15.58C117.544 15.1933 117.351 14.8267 117.138 14.48C116.938 14.1333 116.731 13.7933 116.518 13.46C116.304 13.1267 116.078 12.8067 115.838 12.5L117.218 11.92ZM105.938 12.54C106.244 12.7133 106.598 12.9333 106.998 13.2C107.411 13.4533 107.831 13.72 108.258 14C108.684 14.2667 109.084 14.5267 109.458 14.78C109.831 15.02 110.138 15.2267 110.378 15.4L109.178 17.12C108.938 16.9333 108.631 16.7133 108.258 16.46C107.884 16.2067 107.484 15.9467 107.058 15.68C106.644 15.4133 106.238 15.16 105.838 14.92C105.451 14.6667 105.104 14.4533 104.798 14.28L105.938 12.54ZM102.618 26.8C103.364 26.6667 104.124 26.5 104.898 26.3C105.671 26.0867 106.438 25.8333 107.198 25.54C107.958 25.2333 108.684 24.8933 109.378 24.52C110.498 23.88 111.531 23.1667 112.478 22.38C113.438 21.5933 114.304 20.7533 115.078 19.86C115.851 18.9667 116.504 18.0467 117.038 17.1L118.258 19.22C117.364 20.58 116.244 21.88 114.898 23.12C113.551 24.36 112.064 25.4533 110.438 26.4C109.771 26.7733 109.038 27.1267 108.238 27.46C107.438 27.7933 106.651 28.08 105.878 28.32C105.104 28.5733 104.411 28.7533 103.798 28.86L102.618 26.8ZM102.878 17.08C103.198 17.24 103.564 17.4467 103.978 17.7C104.391 17.94 104.811 18.1933 105.238 18.46C105.664 18.7267 106.064 18.98 106.438 19.22C106.811 19.46 107.118 19.66 107.358 19.82L106.198 21.6C105.931 21.4133 105.611 21.1933 105.238 20.94C104.864 20.6867 104.471 20.4267 104.058 20.16C103.644 19.8933 103.238 19.6467 102.838 19.42C102.438 19.18 102.078 18.9733 101.758 18.8L102.878 17.08ZM129.138 14.28C129.724 14.3733 130.384 14.44 131.118 14.48C131.864 14.52 132.631 14.5333 133.418 14.52C134.204 14.5067 134.958 14.48 135.678 14.44C136.398 14.4 137.018 14.3467 137.538 14.28V16.32C136.964 16.3733 136.318 16.42 135.598 16.46C134.878 16.4867 134.131 16.5 133.358 16.5C132.598 16.5 131.851 16.4867 131.118 16.46C130.384 16.42 129.731 16.3733 129.158 16.32L129.138 14.28ZM130.278 22.6C130.198 22.9467 130.131 23.26 130.078 23.54C130.038 23.82 130.018 24.1 130.018 24.38C130.018 24.6067 130.064 24.82 130.158 25.02C130.264 25.22 130.431 25.3933 130.658 25.54C130.898 25.6867 131.218 25.8067 131.618 25.9C132.031 25.98 132.538 26.02 133.138 26.02C134.044 26.02 134.891 25.98 135.678 25.9C136.478 25.8067 137.291 25.6667 138.118 25.48L138.158 27.62C137.531 27.74 136.798 27.84 135.958 27.92C135.131 27.9867 134.178 28.02 133.098 28.02C131.404 28.02 130.151 27.7467 129.338 27.2C128.538 26.64 128.138 25.8733 128.138 24.9C128.138 24.54 128.164 24.1667 128.218 23.78C128.271 23.38 128.358 22.9333 128.478 22.44L130.278 22.6ZM125.658 12.84C125.618 12.96 125.564 13.12 125.498 13.32C125.444 13.5067 125.391 13.7 125.338 13.9C125.298 14.0867 125.264 14.24 125.238 14.36C125.171 14.6933 125.091 15.1 124.998 15.58C124.918 16.0467 124.831 16.56 124.738 17.12C124.658 17.6667 124.578 18.2267 124.498 18.8C124.431 19.36 124.371 19.9067 124.318 20.44C124.278 20.9733 124.258 21.46 124.258 21.9C124.258 22.2467 124.264 22.6 124.278 22.96C124.304 23.3067 124.338 23.6667 124.378 24.04C124.498 23.7733 124.618 23.4933 124.738 23.2C124.858 22.8933 124.978 22.5933 125.098 22.3C125.218 22.0067 125.331 21.74 125.438 21.5L126.438 22.3C126.264 22.7933 126.078 23.34 125.878 23.94C125.678 24.54 125.498 25.1133 125.338 25.66C125.191 26.1933 125.084 26.6267 125.018 26.96C124.991 27.0933 124.964 27.2533 124.938 27.44C124.911 27.6133 124.904 27.76 124.918 27.88C124.918 27.9733 124.918 28.0867 124.918 28.22C124.931 28.3667 124.944 28.5 124.958 28.62L123.138 28.74C122.938 28.0467 122.764 27.1333 122.618 26C122.471 24.8667 122.398 23.6267 122.398 22.28C122.398 21.5333 122.431 20.78 122.498 20.02C122.564 19.2467 122.644 18.5 122.738 17.78C122.831 17.06 122.924 16.4 123.018 15.8C123.124 15.2 123.204 14.7 123.258 14.3C123.298 14.0467 123.331 13.7733 123.358 13.48C123.398 13.1867 123.424 12.9067 123.438 12.64L125.658 12.84ZM144.038 22.18H158.738V23.82H144.038V22.18ZM152.238 23.16C152.731 24.5733 153.571 25.6667 154.758 26.44C155.944 27.2133 157.518 27.7267 159.478 27.98C159.344 28.1133 159.204 28.28 159.058 28.48C158.911 28.68 158.771 28.8867 158.638 29.1C158.518 29.3133 158.418 29.5067 158.338 29.68C156.911 29.44 155.691 29.06 154.678 28.54C153.664 28.02 152.818 27.34 152.138 26.5C151.471 25.66 150.931 24.64 150.518 23.44L152.238 23.16ZM150.218 19.7H152.158C152.091 20.7667 151.984 21.7533 151.838 22.66C151.704 23.5533 151.484 24.3733 151.178 25.12C150.871 25.8533 150.444 26.5133 149.898 27.1C149.364 27.6733 148.664 28.18 147.798 28.62C146.944 29.06 145.878 29.4267 144.598 29.72C144.544 29.56 144.458 29.3867 144.338 29.2C144.231 29.0133 144.111 28.8267 143.978 28.64C143.844 28.4533 143.711 28.3 143.578 28.18C145.018 27.86 146.164 27.46 147.018 26.98C147.884 26.4867 148.531 25.9 148.958 25.22C149.398 24.54 149.698 23.74 149.858 22.82C150.031 21.9 150.151 20.86 150.218 19.7ZM143.018 15.16H144.898V19.14C144.898 19.8867 144.864 20.7067 144.798 21.6C144.731 22.48 144.604 23.3867 144.418 24.32C144.231 25.24 143.964 26.14 143.618 27.02C143.284 27.8867 142.831 28.68 142.258 29.4C142.151 29.2933 141.991 29.1667 141.778 29.02C141.578 28.8867 141.371 28.76 141.158 28.64C140.944 28.52 140.758 28.4267 140.598 28.36C141.144 27.6933 141.578 26.9667 141.898 26.18C142.218 25.3933 142.458 24.5867 142.618 23.76C142.778 22.92 142.884 22.1067 142.938 21.32C142.991 20.52 143.018 19.78 143.018 19.1V15.16ZM143.938 15.16H157.638V20.06H143.938V18.6H155.778V16.62H143.938V15.16ZM141.698 12.2H158.658V13.92H141.698V12.2ZM164.698 13.04C164.951 13.0667 165.218 13.0867 165.498 13.1C165.791 13.1133 166.058 13.12 166.298 13.12C166.498 13.12 166.818 13.12 167.258 13.12C167.711 13.1067 168.218 13.0933 168.778 13.08C169.351 13.0667 169.918 13.0533 170.478 13.04C171.038 13.0133 171.538 12.9867 171.978 12.96C172.431 12.9333 172.764 12.9133 172.978 12.9C173.338 12.8733 173.611 12.8467 173.798 12.82C173.998 12.7933 174.151 12.76 174.258 12.72L175.358 14.16C175.158 14.2933 174.951 14.4267 174.738 14.56C174.524 14.6933 174.311 14.8467 174.098 15.02C173.844 15.2067 173.511 15.4667 173.098 15.8C172.698 16.12 172.264 16.48 171.798 16.88C171.331 17.2667 170.871 17.6467 170.418 18.02C169.964 18.3933 169.558 18.7267 169.198 19.02C169.598 18.8867 169.998 18.8 170.398 18.76C170.798 18.7067 171.198 18.68 171.598 18.68C172.704 18.68 173.698 18.8933 174.578 19.32C175.458 19.7467 176.151 20.32 176.658 21.04C177.164 21.76 177.418 22.5933 177.418 23.54C177.418 24.5933 177.138 25.5333 176.578 26.36C176.031 27.1867 175.231 27.8333 174.178 28.3C173.138 28.7667 171.871 29 170.378 29C169.458 29 168.651 28.8733 167.958 28.62C167.264 28.3667 166.724 28.0133 166.338 27.56C165.964 27.0933 165.778 26.56 165.778 25.96C165.778 25.4667 165.911 25.0067 166.178 24.58C166.458 24.14 166.844 23.7933 167.338 23.54C167.844 23.2733 168.424 23.14 169.078 23.14C169.984 23.14 170.738 23.3267 171.338 23.7C171.951 24.06 172.418 24.54 172.738 25.14C173.071 25.74 173.251 26.3933 173.278 27.1L171.458 27.36C171.418 26.56 171.184 25.9067 170.758 25.4C170.344 24.8933 169.784 24.64 169.078 24.64C168.651 24.64 168.298 24.7533 168.018 24.98C167.751 25.2067 167.618 25.4733 167.618 25.78C167.618 26.22 167.838 26.5667 168.278 26.82C168.731 27.0733 169.311 27.2 170.018 27.2C171.151 27.2 172.118 27.06 172.918 26.78C173.718 26.4867 174.324 26.0667 174.738 25.52C175.151 24.96 175.358 24.2867 175.358 23.5C175.358 22.8733 175.171 22.3133 174.798 21.82C174.424 21.3267 173.911 20.9467 173.258 20.68C172.604 20.4 171.858 20.26 171.018 20.26C170.218 20.26 169.484 20.3533 168.818 20.54C168.164 20.7133 167.551 20.9733 166.978 21.32C166.404 21.6533 165.838 22.0733 165.278 22.58C164.731 23.0733 164.164 23.64 163.578 24.28L162.118 22.8C162.518 22.48 162.958 22.12 163.438 21.72C163.918 21.32 164.398 20.92 164.878 20.52C165.371 20.1067 165.831 19.72 166.258 19.36C166.698 18.9867 167.064 18.68 167.358 18.44C167.638 18.2133 167.978 17.94 168.378 17.62C168.778 17.2867 169.191 16.94 169.618 16.58C170.044 16.22 170.451 15.88 170.838 15.56C171.224 15.2267 171.544 14.9467 171.798 14.72C171.584 14.7333 171.291 14.7467 170.918 14.76C170.544 14.7733 170.131 14.7933 169.678 14.82C169.238 14.8333 168.791 14.8533 168.338 14.88C167.884 14.8933 167.471 14.9133 167.098 14.94C166.724 14.9533 166.438 14.9667 166.238 14.98C165.998 14.9933 165.744 15.0133 165.478 15.04C165.224 15.0533 164.984 15.0733 164.758 15.1L164.698 13.04Z" fill="white"/>
<path d="M211 31.6667C217.443 31.6667 222.667 26.4433 222.667 20C222.667 13.5567 217.443 8.33334 211 8.33334C204.557 8.33334 199.333 13.5567 199.333 20C199.333 26.4433 204.557 31.6667 211 31.6667Z" stroke="white" stroke-width="2" stroke-linecap="round" stroke-linejoin="round"/>
<path d="M211 24.6667L215.667 20L211 15.3333" stroke="white" stroke-width="2" stroke-linecap="round" stroke-linejoin="round"/>
<path d="M206.333 20H215.667" stroke="white" stroke-width="2" stroke-linecap="round" stroke-linejoin="round"/>
</svg>
