<svg width="315" height="422" viewBox="0 0 315 422" fill="none" xmlns="http://www.w3.org/2000/svg">
<g clip-path="url(#clip0_874_1026)">
<rect width="315" height="422" fill="white"/>
<path d="M38.6405 71.7214L19.2625 71.7265L14.4203 53.7082L33.7978 53.7031L38.6405 71.7214Z" fill="#EFEFEF" fill-opacity="0.3"/>
<path d="M31.4303 44.8943L12.0529 44.8994L7.20996 26.8812L26.5876 26.876L31.4303 44.8943Z" fill="#EFEFEF" fill-opacity="0.3"/>
<path d="M24.2201 18.0662L4.84234 18.0714L0 0.0530373L19.3776 0.0478516L24.2201 18.0662Z" fill="#EFEFEF" fill-opacity="0.3"/>
<path d="M45.8489 98.5485L26.4712 98.5538L21.6285 80.5354L41.0062 80.5303L45.8489 98.5485Z" fill="#EFEFEF" fill-opacity="0.3"/>
<path d="M54.59 18.0569L35.2124 18.0621L30.3698 0.04376L49.7473 0.0385742L54.59 18.0569Z" fill="#EFEFEF" fill-opacity="0.3"/>
<path d="M76.2185 98.5413L56.8409 98.5457L51.9983 80.5276L71.3759 80.5225L76.2185 98.5413Z" fill="#EFEFEF" fill-opacity="0.3"/>
<path d="M99.3806 71.7053L80.0029 71.7105L75.1599 53.6922L94.5375 53.687L99.3806 71.7053Z" fill="#EFEFEF" fill-opacity="0.3"/>
<path d="M69.0102 71.7141L49.6326 71.7192L44.7899 53.701L64.1675 53.6958L69.0102 71.7141Z" fill="#EFEFEF" fill-opacity="0.3"/>
<path d="M92.1689 44.8781L72.7909 44.8833L67.9482 26.865L87.3257 26.8599L92.1689 44.8781Z" fill="#EFEFEF" fill-opacity="0.3"/>
<path d="M84.9597 18.0505L65.5824 18.0557L60.7397 0.0374123L80.1175 0.0322266L84.9597 18.0505Z" fill="#EFEFEF" fill-opacity="0.3"/>
<path d="M61.7983 44.8869L42.4208 44.8921L37.578 26.8738L56.9557 26.8687L61.7983 44.8869Z" fill="#EFEFEF" fill-opacity="0.3"/>
<path d="M106.591 98.5337L87.2129 98.539L82.3706 80.5208L101.747 80.5156L106.591 98.5337Z" fill="#EFEFEF" fill-opacity="0.3"/>
<path d="M115.33 18.0412L95.9524 18.0464L91.1101 0.028135L110.488 0.0229492L115.33 18.0412Z" fill="#EFEFEF" fill-opacity="0.3"/>
<path d="M136.961 98.5246L117.583 98.5299L112.74 80.5115L132.118 80.5063L136.961 98.5246Z" fill="#EFEFEF" fill-opacity="0.3"/>
<path d="M160.119 71.6901L140.741 71.6953L135.899 53.6771L155.276 53.6719L160.119 71.6901Z" fill="#EFEFEF" fill-opacity="0.3"/>
<path d="M129.751 71.6975L110.373 71.7026L105.53 53.6844L124.908 53.6792L129.751 71.6975Z" fill="#EFEFEF" fill-opacity="0.3"/>
<path d="M152.911 44.8635L133.533 44.8687L128.69 26.8504L148.068 26.8452L152.911 44.8635Z" fill="#EFEFEF" fill-opacity="0.3"/>
<path d="M145.7 18.0339L126.322 18.0391L121.48 0.0208108L140.857 0.015625L145.7 18.0339Z" fill="#EFEFEF" fill-opacity="0.3"/>
<path d="M122.538 44.8688L103.161 44.874L98.3184 26.8558L117.696 26.8506L122.538 44.8688Z" fill="#EFEFEF" fill-opacity="0.3"/>
<path d="M167.331 98.5179L147.953 98.5223L143.111 80.5042L162.487 80.499L167.331 98.5179Z" fill="#EFEFEF" fill-opacity="0.3"/>
<path d="M176.068 18.0252L156.691 18.0303L151.848 0.0120217L171.225 0.00683594L176.068 18.0252Z" fill="#EFEFEF" fill-opacity="0.3"/>
<path d="M197.701 98.5087L178.323 98.5131L173.48 80.4949L192.858 80.4897L197.701 98.5087Z" fill="#EFEFEF" fill-opacity="0.3"/>
<path d="M220.859 71.6721L201.481 71.6773L196.639 53.659L216.016 53.6538L220.859 71.6721Z" fill="#EFEFEF" fill-opacity="0.3"/>
<path d="M190.488 71.6809L171.111 71.6861L166.268 53.6678L185.646 53.6626L190.488 71.6809Z" fill="#EFEFEF" fill-opacity="0.3"/>
<path d="M213.65 44.8454L194.273 44.8506L189.43 26.8323L208.807 26.8271L213.65 44.8454Z" fill="#EFEFEF" fill-opacity="0.3"/>
<path d="M206.439 18.0183L187.061 18.0234L182.218 0.00518576L201.596 0L206.439 18.0183Z" fill="#EFEFEF" fill-opacity="0.3"/>
<path d="M183.28 44.8542L163.902 44.8594L159.06 26.8411L178.438 26.8359L183.28 44.8542Z" fill="#EFEFEF" fill-opacity="0.3"/>
<path d="M228.07 98.5005L208.693 98.5066L203.85 80.4881L223.228 80.4829L228.07 98.5005Z" fill="#EFEFEF" fill-opacity="0.3"/>
<path d="M67.4052 178.746L48.0275 178.75L43.1849 160.733L62.5625 160.728L67.4052 178.746Z" fill="#EFEFEF" fill-opacity="0.3"/>
<path d="M60.193 151.918L40.8154 151.924L35.9727 133.905L55.3503 133.9L60.193 151.918Z" fill="#EFEFEF" fill-opacity="0.3"/>
<path d="M52.9844 125.09L33.6068 125.096L28.7642 107.077L48.1418 107.072L52.9844 125.09Z" fill="#EFEFEF" fill-opacity="0.3"/>
<path d="M74.613 205.573L55.2354 205.579L50.3927 187.56L69.7704 187.555L74.613 205.573Z" fill="#EFEFEF" fill-opacity="0.3"/>
<path d="M83.3541 125.083L63.9766 125.088L59.1339 107.069L78.5119 107.065L83.3541 125.083Z" fill="#EFEFEF" fill-opacity="0.3"/>
<path d="M104.985 205.565L85.6073 205.57L80.7642 187.552L100.142 187.546L104.985 205.565Z" fill="#EFEFEF" fill-opacity="0.3"/>
<path d="M128.143 178.729L108.765 178.735L103.923 160.716L123.3 160.711L128.143 178.729Z" fill="#EFEFEF" fill-opacity="0.3"/>
<path d="M97.775 178.738L78.3973 178.744L73.5546 160.725L92.9319 160.72L97.775 178.738Z" fill="#EFEFEF" fill-opacity="0.3"/>
<path d="M120.933 151.902L101.555 151.907L96.7128 133.889L116.09 133.884L120.933 151.902Z" fill="#EFEFEF" fill-opacity="0.3"/>
<path d="M113.725 125.075L94.3468 125.081L89.5045 107.062L108.882 107.056L113.725 125.075Z" fill="#EFEFEF" fill-opacity="0.3"/>
<path d="M90.5633 151.911L71.1853 151.915L66.3427 133.898L85.7201 133.893L90.5633 151.911Z" fill="#EFEFEF" fill-opacity="0.3"/>
<path d="M135.355 205.558L115.978 205.562L111.135 187.545L130.512 187.54L135.355 205.558Z" fill="#EFEFEF" fill-opacity="0.3"/>
<path d="M144.093 125.066L124.715 125.072L119.872 107.054L139.25 107.047L144.093 125.066Z" fill="#EFEFEF" fill-opacity="0.3"/>
<path d="M165.725 205.55L146.347 205.556L141.505 187.537L160.883 187.532L165.725 205.55Z" fill="#EFEFEF" fill-opacity="0.3"/>
<path d="M188.883 178.714L169.505 178.719L164.663 160.701L184.04 160.696L188.883 178.714Z" fill="#EFEFEF" fill-opacity="0.3"/>
<path d="M158.513 178.722L139.135 178.727L134.293 160.708L153.67 160.703L158.513 178.722Z" fill="#EFEFEF" fill-opacity="0.3"/>
<path d="M181.674 151.888L162.297 151.893L157.454 133.874L176.832 133.869L181.674 151.888Z" fill="#EFEFEF" fill-opacity="0.3"/>
<path d="M174.463 125.059L155.085 125.064L150.242 107.046L169.62 107.041L174.463 125.059Z" fill="#EFEFEF" fill-opacity="0.3"/>
<path d="M151.305 151.894L131.927 151.899L127.084 133.88L146.462 133.875L151.305 151.894Z" fill="#EFEFEF" fill-opacity="0.3"/>
<path d="M196.094 205.541L176.718 205.547L171.874 187.528L191.252 187.523L196.094 205.541Z" fill="#EFEFEF" fill-opacity="0.3"/>
<path d="M204.832 125.05L185.455 125.056L180.612 107.037L199.99 107.032L204.832 125.05Z" fill="#EFEFEF" fill-opacity="0.3"/>
<path d="M226.463 205.531L207.085 205.537L202.243 187.519L221.621 187.514L226.463 205.531Z" fill="#EFEFEF" fill-opacity="0.3"/>
<path d="M249.623 178.696L230.246 178.701L225.403 160.683L244.78 160.678L249.623 178.696Z" fill="#EFEFEF" fill-opacity="0.3"/>
<path d="M219.253 178.706L199.875 178.71L195.033 160.691L214.411 160.687L219.253 178.706Z" fill="#EFEFEF" fill-opacity="0.3"/>
<path d="M242.414 151.87L223.035 151.874L218.193 133.857L237.57 133.852L242.414 151.87Z" fill="#EFEFEF" fill-opacity="0.3"/>
<path d="M235.203 125.042L215.826 125.047L210.983 107.029L230.36 107.024L235.203 125.042Z" fill="#EFEFEF" fill-opacity="0.3"/>
<path d="M212.045 151.879L192.667 151.884L187.825 133.866L207.202 133.86L212.045 151.879Z" fill="#EFEFEF" fill-opacity="0.3"/>
<path d="M256.834 205.526L237.456 205.531L232.614 187.513L251.99 187.508L256.834 205.526Z" fill="#EFEFEF" fill-opacity="0.3"/>
<path d="M96.2989 286.256L76.9211 286.261L72.0786 268.243L91.4566 268.237L96.2989 286.256Z" fill="#EFEFEF" fill-opacity="0.3"/>
<path d="M89.0879 259.427L69.7106 259.433L64.8679 241.414L84.2457 241.409L89.0879 259.427Z" fill="#EFEFEF" fill-opacity="0.3"/>
<path d="M81.878 232.601L62.5007 232.605L57.658 214.588L77.0357 214.583L81.878 232.601Z" fill="#EFEFEF" fill-opacity="0.3"/>
<path d="M103.509 313.083L84.1312 313.088L79.2889 295.07L98.6667 295.065L103.509 313.083Z" fill="#EFEFEF" fill-opacity="0.3"/>
<path d="M112.248 232.592L92.8707 232.597L88.0284 214.578L107.405 214.574L112.248 232.592Z" fill="#EFEFEF" fill-opacity="0.3"/>
<path d="M133.878 313.076L114.501 313.081L109.658 295.063L129.036 295.058L133.878 313.076Z" fill="#EFEFEF" fill-opacity="0.3"/>
<path d="M157.039 286.24L137.661 286.245L132.818 268.227L152.196 268.222L157.039 286.24Z" fill="#EFEFEF" fill-opacity="0.3"/>
<path d="M126.668 286.249L107.291 286.254L102.448 268.235L121.826 268.231L126.668 286.249Z" fill="#EFEFEF" fill-opacity="0.3"/>
<path d="M149.829 259.413L130.451 259.417L125.608 241.4L144.986 241.395L149.829 259.413Z" fill="#EFEFEF" fill-opacity="0.3"/>
<path d="M142.616 232.585L123.239 232.592L118.396 214.572L137.774 214.568L142.616 232.585Z" fill="#EFEFEF" fill-opacity="0.3"/>
<path d="M119.458 259.42L100.081 259.426L95.2384 241.408L114.616 241.402L119.458 259.42Z" fill="#EFEFEF" fill-opacity="0.3"/>
<path d="M164.249 313.068L144.871 313.073L140.029 295.055L159.407 295.049L164.249 313.068Z" fill="#EFEFEF" fill-opacity="0.3"/>
<path d="M172.988 232.578L153.611 232.583L148.768 214.564L168.145 214.559L172.988 232.578Z" fill="#EFEFEF" fill-opacity="0.3"/>
<path d="M194.619 313.059L175.241 313.064L170.398 295.047L189.776 295.041L194.619 313.059Z" fill="#EFEFEF" fill-opacity="0.3"/>
<path d="M217.779 286.225L198.401 286.229L193.559 268.212L212.936 268.207L217.779 286.225Z" fill="#EFEFEF" fill-opacity="0.3"/>
<path d="M187.409 286.232L168.031 286.238L163.189 268.22L182.567 268.214L187.409 286.232Z" fill="#EFEFEF" fill-opacity="0.3"/>
<path d="M210.568 259.397L191.191 259.402L186.349 241.383L205.726 241.379L210.568 259.397Z" fill="#EFEFEF" fill-opacity="0.3"/>
<path d="M203.359 232.568L183.981 232.573L179.138 214.555L198.516 214.55L203.359 232.568Z" fill="#EFEFEF" fill-opacity="0.3"/>
<path d="M180.198 259.404L160.821 259.409L155.978 241.391L175.356 241.386L180.198 259.404Z" fill="#EFEFEF" fill-opacity="0.3"/>
<path d="M224.987 313.052L205.609 313.056L200.767 295.038L220.145 295.033L224.987 313.052Z" fill="#EFEFEF" fill-opacity="0.3"/>
<path d="M233.728 232.561L214.35 232.566L209.508 214.548L228.886 214.542L233.728 232.561Z" fill="#EFEFEF" fill-opacity="0.3"/>
<path d="M255.356 313.042L235.979 313.047L231.137 295.029L250.514 295.024L255.356 313.042Z" fill="#EFEFEF" fill-opacity="0.3"/>
<path d="M278.519 286.207L259.141 286.212L254.299 268.193L273.676 268.189L278.519 286.207Z" fill="#EFEFEF" fill-opacity="0.3"/>
<path d="M248.149 286.216L228.771 286.221L223.928 268.203L243.306 268.198L248.149 286.216Z" fill="#EFEFEF" fill-opacity="0.3"/>
<path d="M271.307 259.38L251.929 259.385L247.087 241.367L266.464 241.361L271.307 259.38Z" fill="#EFEFEF" fill-opacity="0.3"/>
<path d="M264.099 232.553L244.721 232.559L239.878 214.54L259.255 214.535L264.099 232.553Z" fill="#EFEFEF" fill-opacity="0.3"/>
<path d="M240.936 259.389L221.56 259.395L216.716 241.376L236.094 241.371L240.936 259.389Z" fill="#EFEFEF" fill-opacity="0.3"/>
<path d="M285.729 313.035L266.352 313.041L261.509 295.023L280.886 295.017L285.729 313.035Z" fill="#EFEFEF" fill-opacity="0.3"/>
<path d="M125.569 395.169L106.192 395.173L101.349 377.156L120.727 377.15L125.569 395.169Z" fill="#EFEFEF" fill-opacity="0.3"/>
<path d="M118.359 368.339L98.9816 368.345L94.1394 350.327L113.516 350.321L118.359 368.339Z" fill="#EFEFEF" fill-opacity="0.3"/>
<path d="M111.151 341.513L91.7734 341.518L86.9312 323.5L106.308 323.495L111.151 341.513Z" fill="#EFEFEF" fill-opacity="0.3"/>
<path d="M132.779 421.995L113.402 422L108.559 403.981L127.937 403.977L132.779 421.995Z" fill="#EFEFEF" fill-opacity="0.3"/>
<path d="M141.519 341.503L122.141 341.509L117.299 323.49L136.677 323.486L141.519 341.503Z" fill="#EFEFEF" fill-opacity="0.3"/>
<path d="M163.15 421.987L143.772 421.993L138.929 403.975L158.307 403.969L163.15 421.987Z" fill="#EFEFEF" fill-opacity="0.3"/>
<path d="M186.309 395.151L166.932 395.157L162.089 377.139L181.467 377.133L186.309 395.151Z" fill="#EFEFEF" fill-opacity="0.3"/>
<path d="M155.94 395.161L136.562 395.166L131.719 377.147L151.097 377.142L155.94 395.161Z" fill="#EFEFEF" fill-opacity="0.3"/>
<path d="M179.099 368.325L159.722 368.33L154.879 350.312L174.256 350.307L179.099 368.325Z" fill="#EFEFEF" fill-opacity="0.3"/>
<path d="M171.889 341.498L152.512 341.504L147.668 323.485L167.047 323.48L171.889 341.498Z" fill="#EFEFEF" fill-opacity="0.3"/>
<path d="M148.73 368.332L129.352 368.337L124.51 350.319L143.887 350.313L148.73 368.332Z" fill="#EFEFEF" fill-opacity="0.3"/>
<path d="M193.522 421.98L174.144 421.985L169.302 403.967L188.68 403.962L193.522 421.98Z" fill="#EFEFEF" fill-opacity="0.3"/>
<path d="M202.26 341.488L182.882 341.494L178.039 323.476L197.417 323.47L202.26 341.488Z" fill="#EFEFEF" fill-opacity="0.3"/>
<path d="M223.89 421.972L204.513 421.977L199.67 403.959L219.047 403.954L223.89 421.972Z" fill="#EFEFEF" fill-opacity="0.3"/>
<path d="M247.05 395.137L227.672 395.142L222.829 377.124L242.207 377.119L247.05 395.137Z" fill="#EFEFEF" fill-opacity="0.3"/>
<path d="M216.68 395.142L197.302 395.148L192.46 377.13L211.837 377.125L216.68 395.142Z" fill="#EFEFEF" fill-opacity="0.3"/>
<path d="M239.839 368.309L220.461 368.314L215.619 350.295L234.997 350.291L239.839 368.309Z" fill="#EFEFEF" fill-opacity="0.3"/>
<path d="M232.629 341.48L213.251 341.485L208.409 323.468L227.786 323.461L232.629 341.48Z" fill="#EFEFEF" fill-opacity="0.3"/>
<path d="M209.47 368.316L190.092 368.321L185.249 350.303L204.627 350.298L209.47 368.316Z" fill="#EFEFEF" fill-opacity="0.3"/>
<path d="M254.26 421.964L234.882 421.969L230.039 403.951L249.417 403.945L254.26 421.964Z" fill="#EFEFEF" fill-opacity="0.3"/>
<path d="M263 341.473L243.621 341.477L238.779 323.459L258.157 323.455L263 341.473Z" fill="#EFEFEF" fill-opacity="0.3"/>
<path d="M284.63 421.954L265.252 421.96L260.41 403.942L279.787 403.937L284.63 421.954Z" fill="#EFEFEF" fill-opacity="0.3"/>
<path d="M307.788 395.119L288.41 395.124L283.567 377.105L302.945 377.101L307.788 395.119Z" fill="#EFEFEF" fill-opacity="0.3"/>
<path d="M277.42 395.128L258.043 395.133L253.2 377.114L272.577 377.11L277.42 395.128Z" fill="#EFEFEF" fill-opacity="0.3"/>
<path d="M300.58 368.291L281.202 368.298L276.359 350.279L295.737 350.273L300.58 368.291Z" fill="#EFEFEF" fill-opacity="0.3"/>
<path d="M293.369 341.465L273.992 341.47L269.149 323.452L288.527 323.447L293.369 341.465Z" fill="#EFEFEF" fill-opacity="0.3"/>
<path d="M270.21 368.3L250.832 368.306L245.99 350.288L265.367 350.282L270.21 368.3Z" fill="#EFEFEF" fill-opacity="0.3"/>
<path d="M315 421.947L295.623 421.953L290.78 403.934L310.158 403.929L315 421.947Z" fill="#EFEFEF" fill-opacity="0.3"/>
</g>
<defs>
<clipPath id="clip0_874_1026">
<rect width="315" height="422" fill="white"/>
</clipPath>
</defs>
</svg>
