<svg width="168" height="50" viewBox="0 0 168 50" fill="none" xmlns="http://www.w3.org/2000/svg">
<rect width="168" height="50" rx="8" fill="#DE0D22"/>
<path d="M21.408 24.4H50.624V26.896H21.408V24.4ZM22.08 8.272H49.824V10.928H22.08V8.272ZM32.32 21.168L35.296 21.968C34.592 23.0773 33.824 24.2507 32.992 25.488C32.1813 26.704 31.3707 27.888 30.56 29.04C29.7707 30.1707 29.0347 31.1733 28.352 32.048L25.44 31.088C26.1227 30.2347 26.8693 29.2427 27.68 28.112C28.512 26.96 29.3333 25.776 30.144 24.56C30.9547 23.344 31.68 22.2133 32.32 21.168ZM41.76 25.328L44.704 26.096C43.9573 27.9093 42.9653 29.4453 41.728 30.704C40.4907 31.9627 38.9867 32.9973 37.216 33.808C35.4667 34.5973 33.4187 35.216 31.072 35.664C28.7253 36.1333 26.0587 36.4747 23.072 36.688C22.9867 36.2613 22.8267 35.8027 22.592 35.312C22.3787 34.8213 22.1547 34.4053 21.92 34.064C25.632 33.8933 28.8107 33.52 31.456 32.944C34.1013 32.3467 36.2667 31.44 37.952 30.224C39.6373 29.008 40.9067 27.376 41.76 25.328ZM27.392 31.056L28.928 28.848C31.488 29.3387 34.0373 29.8933 36.576 30.512C39.136 31.1093 41.536 31.7387 43.776 32.4C46.0373 33.0613 47.9787 33.7013 49.6 34.32L47.776 36.784C46.1973 36.1227 44.32 35.4507 42.144 34.768C39.9893 34.0853 37.6533 33.424 35.136 32.784C32.6187 32.144 30.0373 31.568 27.392 31.056ZM30.688 9.264H33.568V20.368H30.688V9.264ZM38.08 9.264H40.928V20.368H38.08V9.264ZM26.464 15.664V19.44H45.632V15.664H26.464ZM23.648 13.232H48.64V21.84H23.648V13.232ZM55.52 24.624H80.576V27.088H55.52V24.624ZM53.76 8.848H68.544V10.992H53.76V8.848ZM68.096 29.136H78.272V31.408H68.096V29.136ZM53.472 33.584H82.624V36.08H53.472V33.584ZM66.464 25.584H69.44V34.8H66.464V25.584ZM59.84 6.992H62.496V23.856H59.84V6.992ZM58.496 28.368H61.376V34.992H58.496V28.368ZM57.024 14.256V16.496H65.376V14.256H57.024ZM54.592 12.368H67.904V18.384H54.592V12.368ZM62.528 18.096C62.8053 18.224 63.2 18.416 63.712 18.672C64.224 18.928 64.768 19.2053 65.344 19.504C65.9413 19.8027 66.4853 20.08 66.976 20.336C67.4667 20.5707 67.8293 20.7627 68.064 20.912L66.56 22.832C66.2613 22.6187 65.8773 22.352 65.408 22.032C64.9387 21.712 64.4267 21.3813 63.872 21.04C63.3387 20.6987 62.816 20.3787 62.304 20.08C61.8133 19.7813 61.3973 19.536 61.056 19.344L62.528 18.096ZM72.288 6.992L75.008 7.632C74.4747 9.46667 73.728 11.216 72.768 12.88C71.808 14.544 70.7413 15.9307 69.568 17.04C69.44 16.848 69.248 16.624 68.992 16.368C68.7573 16.0907 68.512 15.824 68.256 15.568C68 15.2907 67.7653 15.0773 67.552 14.928C68.6613 13.9893 69.6107 12.8267 70.4 11.44C71.2107 10.0533 71.84 8.57067 72.288 6.992ZM72 10.448H82.496V12.848H70.784L72 10.448ZM77.856 11.536L80.64 11.824C79.8933 15.0453 78.5493 17.616 76.608 19.536C74.6667 21.456 72.2027 22.96 69.216 24.048C69.1307 23.8347 68.9813 23.5893 68.768 23.312C68.576 23.0347 68.3627 22.7573 68.128 22.48C67.8933 22.2027 67.68 21.9893 67.488 21.84C70.304 21.008 72.5867 19.7707 74.336 18.128C76.0853 16.464 77.2587 14.2667 77.856 11.536ZM72.384 11.856C72.8533 13.136 73.5467 14.4267 74.464 15.728C75.3813 17.0293 76.544 18.2133 77.952 19.28C79.3813 20.3467 81.0773 21.1573 83.04 21.712C82.7627 21.9893 82.4533 22.3733 82.112 22.864C81.792 23.3333 81.536 23.7493 81.344 24.112C79.36 23.3867 77.6427 22.4267 76.192 21.232C74.7413 20.016 73.5467 18.6933 72.608 17.264C71.6693 15.8347 70.944 14.4267 70.432 13.04L72.384 11.856ZM59.584 17.488L61.472 18.32C60.9813 19.0027 60.3627 19.7067 59.616 20.432C58.8693 21.1573 58.08 21.8293 57.248 22.448C56.4373 23.0453 55.6587 23.5467 54.912 23.952C54.72 23.6533 54.4533 23.3227 54.112 22.96C53.7707 22.576 53.4507 22.2667 53.152 22.032C53.8987 21.712 54.6773 21.3173 55.488 20.848C56.2987 20.3573 57.0667 19.824 57.792 19.248C58.5173 18.6507 59.1147 18.064 59.584 17.488ZM99.744 16.912V20.432H110.688V16.912H99.744ZM99.744 10.992V14.48H110.688V10.992H99.744ZM96.992 8.4H113.568V23.024H96.992V8.4ZM96.704 26.32H113.984V29.072H96.704V26.32ZM94.336 32.912H115.04V35.664H94.336V32.912ZM85.312 9.008H95.584V11.824H85.312V9.008ZM85.632 18.256H95.104V21.04H85.632V18.256ZM84.96 30.448C85.856 30.2133 86.8693 29.9253 88 29.584C89.1307 29.2427 90.3253 28.8693 91.584 28.464C92.8427 28.0587 94.1013 27.6533 95.36 27.248L95.872 30.128C94.1227 30.7253 92.352 31.3227 90.56 31.92C88.768 32.5173 87.1467 33.0613 85.696 33.552L84.96 30.448ZM89.12 10.128H92V29.872L89.12 30.384V10.128ZM103.968 9.584H106.56V21.776H106.784V34.16H103.712V21.776H103.968V9.584ZM117.664 18.544H146.304V21.296H117.664V18.544ZM119.744 12.656H144.48V15.344H119.744V12.656ZM123.168 24.432H138.432V27.184H123.168V24.432ZM136 13.808C136.661 15.6 137.525 17.296 138.592 18.896C139.659 20.496 140.907 21.9147 142.336 23.152C143.765 24.368 145.323 25.3387 147.008 26.064C146.795 26.256 146.56 26.5013 146.304 26.8C146.048 27.0773 145.803 27.376 145.568 27.696C145.333 27.9947 145.141 28.2827 144.992 28.56C143.2 27.664 141.557 26.5227 140.064 25.136C138.592 23.7493 137.291 22.16 136.16 20.368C135.029 18.576 134.091 16.6347 133.344 14.544L136 13.808ZM121.536 8.432L124.064 7.472C124.448 7.96266 124.811 8.496 125.152 9.072C125.515 9.62667 125.835 10.1813 126.112 10.736C126.411 11.2693 126.635 11.7493 126.784 12.176L124.096 13.232C123.883 12.592 123.531 11.8133 123.04 10.896C122.549 9.97867 122.048 9.15733 121.536 8.432ZM139.136 7.344L142.112 8.304C141.6 9.2 141.056 10.096 140.48 10.992C139.925 11.8667 139.403 12.624 138.912 13.264L136.352 12.368C136.672 11.8987 137.003 11.376 137.344 10.8C137.685 10.224 138.016 9.63733 138.336 9.04C138.656 8.42133 138.923 7.856 139.136 7.344ZM137.632 24.432H140.704C140.704 24.432 140.693 24.592 140.672 24.912C140.672 25.2107 140.651 25.4667 140.608 25.68C140.501 27.7707 140.363 29.488 140.192 30.832C140.021 32.1547 139.829 33.1893 139.616 33.936C139.424 34.6613 139.168 35.1947 138.848 35.536C138.528 35.8987 138.187 36.144 137.824 36.272C137.461 36.4213 137.035 36.528 136.544 36.592C136.096 36.6347 135.488 36.656 134.72 36.656C133.952 36.656 133.141 36.6347 132.288 36.592C132.267 36.1653 132.171 35.6853 132 35.152C131.851 34.6187 131.648 34.16 131.392 33.776C132.181 33.84 132.917 33.8827 133.6 33.904C134.304 33.9253 134.805 33.936 135.104 33.936C135.381 33.936 135.605 33.9147 135.776 33.872C135.968 33.808 136.139 33.712 136.288 33.584C136.48 33.3707 136.651 32.9547 136.8 32.336C136.971 31.7173 137.12 30.8 137.248 29.584C137.397 28.368 137.525 26.7893 137.632 24.848V24.432ZM128.704 25.296H131.84C131.669 26.6827 131.392 27.9733 131.008 29.168C130.645 30.3413 130.101 31.408 129.376 32.368C128.651 33.3067 127.659 34.1387 126.4 34.864C125.141 35.6107 123.541 36.24 121.6 36.752C121.515 36.496 121.376 36.208 121.184 35.888C120.992 35.568 120.779 35.2587 120.544 34.96C120.331 34.6613 120.117 34.4053 119.904 34.192C121.632 33.808 123.04 33.3387 124.128 32.784C125.216 32.208 126.069 31.5467 126.688 30.8C127.307 30.032 127.755 29.2 128.032 28.304C128.331 27.3867 128.555 26.384 128.704 25.296ZM130.016 6.928L133.184 7.504C132.672 9.70133 132.032 11.8453 131.264 13.936C130.496 16.0053 129.547 17.9573 128.416 19.792C127.307 21.6053 125.963 23.2587 124.384 24.752C122.827 26.2453 120.981 27.536 118.848 28.624C118.699 28.368 118.507 28.0907 118.272 27.792C118.059 27.4933 117.835 27.2053 117.6 26.928C117.365 26.6293 117.141 26.3733 116.928 26.16C118.933 25.2 120.672 24.0373 122.144 22.672C123.616 21.3067 124.864 19.792 125.888 18.128C126.912 16.4427 127.755 14.6613 128.416 12.784C129.099 10.8853 129.632 8.93333 130.016 6.928Z" fill="white"/>
</svg>
