<svg width="887" height="519" viewBox="0 0 887 519" fill="none" xmlns="http://www.w3.org/2000/svg">
<path d="M32.5782 -1.98124L0 -1.97485L8.14165 20.2342L40.7199 20.2278L32.5782 -1.98124Z" fill="#EFEFEF" fill-opacity="0.3"/>
<path d="M68.9473 97.22L36.3691 97.2264L44.5107 119.435L77.0889 119.429L68.9473 97.22Z" fill="#EFEFEF" fill-opacity="0.3"/>
<path d="M107.881 64.1423L75.3031 64.1487L83.4447 86.3578L116.023 86.3514L107.881 64.1423Z" fill="#EFEFEF" fill-opacity="0.3"/>
<path d="M56.8224 64.1533L24.2442 64.1597L32.3859 86.3688L64.9641 86.3624L56.8224 64.1533Z" fill="#EFEFEF" fill-opacity="0.3"/>
<path d="M95.7625 31.0762L63.1843 31.0826L71.326 53.2916L103.904 53.2852L95.7625 31.0762Z" fill="#EFEFEF" fill-opacity="0.3"/>
<path d="M83.6377 -1.9905L51.0595 -1.9841L59.2011 20.2249L91.7793 20.2185L83.6377 -1.9905Z" fill="#EFEFEF" fill-opacity="0.3"/>
<path d="M44.7037 31.0872L12.1255 31.0936L20.2671 53.3026L52.8453 53.2962L44.7037 31.0872Z" fill="#EFEFEF" fill-opacity="0.3"/>
<path d="M120.004 97.2108L87.4256 97.2171L95.5672 119.426L128.145 119.42L120.004 97.2108Z" fill="#EFEFEF" fill-opacity="0.3"/>
<path d="M134.697 -2.0015L102.118 -1.9951L110.26 20.2139L142.838 20.2075L134.697 -2.0015Z" fill="#EFEFEF" fill-opacity="0.3"/>
<path d="M171.062 97.2014L138.484 97.2078L146.626 119.417L179.204 119.41L171.062 97.2014Z" fill="#EFEFEF" fill-opacity="0.3"/>
<path d="M209.999 64.1237L177.421 64.1301L185.563 86.3391L218.141 86.3328L209.999 64.1237Z" fill="#EFEFEF" fill-opacity="0.3"/>
<path d="M158.94 64.1347L126.362 64.1411L134.504 86.3502L167.082 86.3438L158.94 64.1347Z" fill="#EFEFEF" fill-opacity="0.3"/>
<path d="M197.878 31.0576L165.299 31.064L173.441 53.273L206.019 53.2666L197.878 31.0576Z" fill="#EFEFEF" fill-opacity="0.3"/>
<path d="M185.755 -2.01086L153.177 -2.00447L161.318 20.2046L193.897 20.1982L185.755 -2.01086Z" fill="#EFEFEF" fill-opacity="0.3"/>
<path d="M146.818 31.0652L114.24 31.0716L122.382 53.2806L154.96 53.2742L146.818 31.0652Z" fill="#EFEFEF" fill-opacity="0.3"/>
<path d="M222.121 97.1904L189.543 97.1968L197.685 119.406L230.263 119.399L222.121 97.1904Z" fill="#EFEFEF" fill-opacity="0.3"/>
<path d="M236.814 -2.02186L204.236 -2.01546L212.377 20.1936L244.956 20.1872L236.814 -2.02186Z" fill="#EFEFEF" fill-opacity="0.3"/>
<path d="M273.18 97.1794L240.602 97.1858L248.743 119.395L281.322 119.388L273.18 97.1794Z" fill="#EFEFEF" fill-opacity="0.3"/>
<path d="M312.117 64.1039L279.539 64.1103L287.68 86.3193L320.258 86.313L312.117 64.1039Z" fill="#EFEFEF" fill-opacity="0.3"/>
<path d="M261.061 64.1133L228.483 64.1197L236.625 86.3287L269.203 86.3223L261.061 64.1133Z" fill="#EFEFEF" fill-opacity="0.3"/>
<path d="M299.995 31.0372L267.417 31.0436L275.558 53.2527L308.137 53.2463L299.995 31.0372Z" fill="#EFEFEF" fill-opacity="0.3"/>
<path d="M287.87 -2.03112L255.292 -2.02472L263.434 20.1843L296.012 20.1779L287.87 -2.03112Z" fill="#EFEFEF" fill-opacity="0.3"/>
<path d="M248.936 31.0466L216.358 31.053L224.5 53.262L257.078 53.2556L248.936 31.0466Z" fill="#EFEFEF" fill-opacity="0.3"/>
<path d="M324.239 97.1718L291.661 97.1782L299.803 119.387L332.381 119.381L324.239 97.1718Z" fill="#EFEFEF" fill-opacity="0.3"/>
<path d="M338.932 -2.03991L306.354 -2.03352L314.495 20.1755L347.074 20.1691L338.932 -2.03991Z" fill="#EFEFEF" fill-opacity="0.3"/>
<path d="M375.298 97.1608L342.72 97.1672L350.861 119.376L383.44 119.37L375.298 97.1608Z" fill="#EFEFEF" fill-opacity="0.3"/>
<path d="M414.235 64.0836L381.657 64.09L389.798 86.2991L422.377 86.2927L414.235 64.0836Z" fill="#EFEFEF" fill-opacity="0.3"/>
<path d="M363.176 64.0947L330.598 64.1011L338.74 86.3101L371.318 86.3037L363.176 64.0947Z" fill="#EFEFEF" fill-opacity="0.3"/>
<path d="M402.113 31.017L369.535 31.0234L377.677 53.2324L410.255 53.226L402.113 31.017Z" fill="#EFEFEF" fill-opacity="0.3"/>
<path d="M389.991 -2.05092L357.413 -2.04452L365.554 20.1645L398.132 20.1581L389.991 -2.05092Z" fill="#EFEFEF" fill-opacity="0.3"/>
<path d="M351.054 31.0262L318.476 31.0326L326.617 53.2417L359.195 53.2353L351.054 31.0262Z" fill="#EFEFEF" fill-opacity="0.3"/>
<path d="M426.354 97.1498L393.776 97.1562L401.917 119.365L434.495 119.359L426.354 97.1498Z" fill="#EFEFEF" fill-opacity="0.3"/>
<path d="M441.05 -2.06192L408.471 -2.05552L416.613 20.1535L449.191 20.1471L441.05 -2.06192Z" fill="#EFEFEF" fill-opacity="0.3"/>
<path d="M477.412 97.1404L444.834 97.1468L452.976 119.356L485.554 119.349L477.412 97.1404Z" fill="#EFEFEF" fill-opacity="0.3"/>
<path d="M516.352 64.0633L483.774 64.0697L491.916 86.2787L524.494 86.2723L516.352 64.0633Z" fill="#EFEFEF" fill-opacity="0.3"/>
<path d="M465.294 64.0743L432.715 64.0807L440.857 86.2897L473.435 86.2833L465.294 64.0743Z" fill="#EFEFEF" fill-opacity="0.3"/>
<path d="M504.228 30.9966L471.649 31.003L479.791 53.212L512.369 53.2056L504.228 30.9966Z" fill="#EFEFEF" fill-opacity="0.3"/>
<path d="M492.109 -2.06953L459.531 -2.06313L467.672 20.1459L500.25 20.1395L492.109 -2.06953Z" fill="#EFEFEF" fill-opacity="0.3"/>
<path d="M453.169 31.0076L420.591 31.014L428.732 53.2231L461.31 53.2167L453.169 31.0076Z" fill="#EFEFEF" fill-opacity="0.3"/>
<path d="M528.475 97.1317L495.897 97.1381L504.038 119.347L536.616 119.341L528.475 97.1317Z" fill="#EFEFEF" fill-opacity="0.3"/>
<path d="M543.168 -2.08054L510.589 -2.07415L518.731 20.1349L551.309 20.1285L543.168 -2.08054Z" fill="#EFEFEF" fill-opacity="0.3"/>
<path d="M579.534 97.1207L546.955 97.1271L555.097 119.336L587.675 119.33L579.534 97.1207Z" fill="#EFEFEF" fill-opacity="0.3"/>
<path d="M618.467 64.0447L585.889 64.0511L594.031 86.2601L626.609 86.2537L618.467 64.0447Z" fill="#EFEFEF" fill-opacity="0.3"/>
<path d="M567.412 64.054L534.834 64.0604L542.975 86.2695L575.554 86.2631L567.412 64.054Z" fill="#EFEFEF" fill-opacity="0.3"/>
<path d="M606.349 30.9785L573.77 30.9849L581.912 53.194L614.49 53.1876L606.349 30.9785Z" fill="#EFEFEF" fill-opacity="0.3"/>
<path d="M594.226 -2.08988L561.648 -2.08348L569.79 20.1255L602.368 20.1191L594.226 -2.08988Z" fill="#EFEFEF" fill-opacity="0.3"/>
<path d="M555.286 30.9856L522.708 30.992L530.85 53.201L563.428 53.1946L555.286 30.9856Z" fill="#EFEFEF" fill-opacity="0.3"/>
<path d="M630.592 97.1114L598.014 97.1178L606.156 119.327L638.734 119.32L630.592 97.1114Z" fill="#EFEFEF" fill-opacity="0.3"/>
<path d="M645.282 -2.10088L612.704 -2.09449L620.845 20.1145L653.424 20.1081L645.282 -2.10088Z" fill="#EFEFEF" fill-opacity="0.3"/>
<path d="M681.651 97.1004L649.073 97.1068L657.215 119.316L689.793 119.309L681.651 97.1004Z" fill="#EFEFEF" fill-opacity="0.3"/>
<path d="M720.585 64.0227L688.007 64.0291L696.149 86.2381L728.727 86.2317L720.585 64.0227Z" fill="#EFEFEF" fill-opacity="0.3"/>
<path d="M669.526 64.0337L636.948 64.0401L645.09 86.2491L677.668 86.2427L669.526 64.0337Z" fill="#EFEFEF" fill-opacity="0.3"/>
<path d="M708.466 30.9566L675.888 30.9629L684.03 53.172L716.608 53.1656L708.466 30.9566Z" fill="#EFEFEF" fill-opacity="0.3"/>
<path d="M696.342 -2.11015L663.763 -2.10376L671.905 20.1053L704.483 20.0989L696.342 -2.11015Z" fill="#EFEFEF" fill-opacity="0.3"/>
<path d="M657.408 30.9676L624.829 30.9739L632.971 53.183L665.549 53.1766L657.408 30.9676Z" fill="#EFEFEF" fill-opacity="0.3"/>
<path d="M732.711 97.0911L700.132 97.0975L708.274 119.307L740.852 119.3L732.711 97.0911Z" fill="#EFEFEF" fill-opacity="0.3"/>
<path d="M80.9377 129.935L48.3595 129.941L56.5012 152.15L89.0794 152.144L80.9377 129.935Z" fill="#EFEFEF" fill-opacity="0.3"/>
<path d="M117.304 229.136L84.7256 229.142L92.8672 251.351L125.445 251.345L117.304 229.136Z" fill="#EFEFEF" fill-opacity="0.3"/>
<path d="M156.241 196.058L123.663 196.065L131.804 218.274L164.382 218.267L156.241 196.058Z" fill="#EFEFEF" fill-opacity="0.3"/>
<path d="M105.182 196.069L72.6038 196.076L80.7454 218.285L113.324 218.278L105.182 196.069Z" fill="#EFEFEF" fill-opacity="0.3"/>
<path d="M144.119 162.992L111.541 162.998L119.682 185.207L152.261 185.201L144.119 162.992Z" fill="#EFEFEF" fill-opacity="0.3"/>
<path d="M131.997 129.925L99.419 129.932L107.561 152.141L140.139 152.134L131.997 129.925Z" fill="#EFEFEF" fill-opacity="0.3"/>
<path d="M93.0602 163.003L60.482 163.009L68.6236 185.218L101.202 185.212L93.0602 163.003Z" fill="#EFEFEF" fill-opacity="0.3"/>
<path d="M168.363 229.127L135.785 229.133L143.927 251.342L176.505 251.336L168.363 229.127Z" fill="#EFEFEF" fill-opacity="0.3"/>
<path d="M183.056 129.916L150.478 129.922L158.619 152.131L191.197 152.125L183.056 129.916Z" fill="#EFEFEF" fill-opacity="0.3"/>
<path d="M219.422 229.117L186.844 229.124L194.985 251.333L227.563 251.326L219.422 229.117Z" fill="#EFEFEF" fill-opacity="0.3"/>
<path d="M258.359 196.04L225.781 196.047L233.922 218.256L266.501 218.249L258.359 196.04Z" fill="#EFEFEF" fill-opacity="0.3"/>
<path d="M207.297 196.051L174.719 196.057L182.86 218.266L215.439 218.26L207.297 196.051Z" fill="#EFEFEF" fill-opacity="0.3"/>
<path d="M246.237 162.973L213.659 162.98L221.801 185.189L254.379 185.182L246.237 162.973Z" fill="#EFEFEF" fill-opacity="0.3"/>
<path d="M234.112 129.905L201.533 129.911L209.675 152.12L242.253 152.114L234.112 129.905Z" fill="#EFEFEF" fill-opacity="0.3"/>
<path d="M195.178 162.983L162.599 162.989L170.741 185.198L203.319 185.192L195.178 162.983Z" fill="#EFEFEF" fill-opacity="0.3"/>
<path d="M270.481 229.106L237.902 229.113L246.044 251.322L278.622 251.315L270.481 229.106Z" fill="#EFEFEF" fill-opacity="0.3"/>
<path d="M285.17 129.894L252.592 129.9L260.734 152.109L293.312 152.103L285.17 129.894Z" fill="#EFEFEF" fill-opacity="0.3"/>
<path d="M321.539 229.095L288.961 229.102L297.103 251.311L329.681 251.304L321.539 229.095Z" fill="#EFEFEF" fill-opacity="0.3"/>
<path d="M360.476 196.02L327.898 196.026L336.04 218.235L368.618 218.229L360.476 196.02Z" fill="#EFEFEF" fill-opacity="0.3"/>
<path d="M309.418 196.029L276.839 196.035L284.981 218.245L317.559 218.238L309.418 196.029Z" fill="#EFEFEF" fill-opacity="0.3"/>
<path d="M348.354 162.953L315.776 162.959L323.918 185.168L356.496 185.162L348.354 162.953Z" fill="#EFEFEF" fill-opacity="0.3"/>
<path d="M336.233 129.887L303.654 129.893L311.796 152.102L344.374 152.096L336.233 129.887Z" fill="#EFEFEF" fill-opacity="0.3"/>
<path d="M297.296 162.962L264.718 162.969L272.859 185.178L305.438 185.171L297.296 162.962Z" fill="#EFEFEF" fill-opacity="0.3"/>
<path d="M372.596 229.088L340.017 229.094L348.159 251.303L380.737 251.297L372.596 229.088Z" fill="#EFEFEF" fill-opacity="0.3"/>
<path d="M387.291 129.876L354.713 129.882L362.855 152.091L395.433 152.085L387.291 129.876Z" fill="#EFEFEF" fill-opacity="0.3"/>
<path d="M423.654 229.077L391.076 229.083L399.218 251.292L431.796 251.286L423.654 229.077Z" fill="#EFEFEF" fill-opacity="0.3"/>
<path d="M462.595 195.999L430.016 196.006L438.158 218.215L470.736 218.209L462.595 195.999Z" fill="#EFEFEF" fill-opacity="0.3"/>
<path d="M411.536 196.01L378.957 196.017L387.099 218.226L419.677 218.22L411.536 196.01Z" fill="#EFEFEF" fill-opacity="0.3"/>
<path d="M450.47 162.933L417.892 162.939L426.033 185.148L458.611 185.142L450.47 162.933Z" fill="#EFEFEF" fill-opacity="0.3"/>
<path d="M438.35 129.865L405.772 129.871L413.914 152.08L446.492 152.074L438.35 129.865Z" fill="#EFEFEF" fill-opacity="0.3"/>
<path d="M399.41 162.942L366.832 162.948L374.974 185.157L407.552 185.151L399.41 162.942Z" fill="#EFEFEF" fill-opacity="0.3"/>
<path d="M474.713 229.067L442.135 229.074L450.276 251.283L482.855 251.276L474.713 229.067Z" fill="#EFEFEF" fill-opacity="0.3"/>
<path d="M489.409 129.856L456.831 129.862L464.972 152.071L497.551 152.065L489.409 129.856Z" fill="#EFEFEF" fill-opacity="0.3"/>
<path d="M525.775 229.057L493.197 229.063L501.338 251.272L533.917 251.266L525.775 229.057Z" fill="#EFEFEF" fill-opacity="0.3"/>
<path d="M564.709 195.979L532.131 195.986L540.272 218.195L572.851 218.188L564.709 195.979Z" fill="#EFEFEF" fill-opacity="0.3"/>
<path d="M513.653 195.99L481.075 195.997L489.217 218.206L521.795 218.199L513.653 195.99Z" fill="#EFEFEF" fill-opacity="0.3"/>
<path d="M552.587 162.912L520.009 162.919L528.151 185.128L560.729 185.122L552.587 162.912Z" fill="#EFEFEF" fill-opacity="0.3"/>
<path d="M540.468 129.846L507.89 129.853L516.032 152.062L548.61 152.055L540.468 129.846Z" fill="#EFEFEF" fill-opacity="0.3"/>
<path d="M501.528 162.923L468.95 162.93L477.092 185.139L509.67 185.132L501.528 162.923Z" fill="#EFEFEF" fill-opacity="0.3"/>
<path d="M576.834 229.048L544.256 229.054L552.398 251.263L584.976 251.257L576.834 229.048Z" fill="#EFEFEF" fill-opacity="0.3"/>
<path d="M591.524 129.835L558.946 129.842L567.088 152.051L599.666 152.044L591.524 129.835Z" fill="#EFEFEF" fill-opacity="0.3"/>
<path d="M627.893 229.038L595.315 229.045L603.456 251.254L636.034 251.247L627.893 229.038Z" fill="#EFEFEF" fill-opacity="0.3"/>
<path d="M666.827 195.961L634.249 195.967L642.39 218.176L674.969 218.17L666.827 195.961Z" fill="#EFEFEF" fill-opacity="0.3"/>
<path d="M615.768 195.97L583.19 195.976L591.332 218.185L623.91 218.179L615.768 195.97Z" fill="#EFEFEF" fill-opacity="0.3"/>
<path d="M654.708 162.894L622.13 162.901L630.272 185.11L662.85 185.103L654.708 162.894Z" fill="#EFEFEF" fill-opacity="0.3"/>
<path d="M642.583 129.826L610.004 129.832L618.146 152.041L650.724 152.035L642.583 129.826Z" fill="#EFEFEF" fill-opacity="0.3"/>
<path d="M603.649 162.902L571.071 162.908L579.212 185.117L611.791 185.111L603.649 162.902Z" fill="#EFEFEF" fill-opacity="0.3"/>
<path d="M678.952 229.027L646.374 229.034L654.515 251.243L687.093 251.236L678.952 229.027Z" fill="#EFEFEF" fill-opacity="0.3"/>
<path d="M693.642 129.815L661.063 129.821L669.205 152.03L701.783 152.024L693.642 129.815Z" fill="#EFEFEF" fill-opacity="0.3"/>
<path d="M730.008 229.016L697.429 229.023L705.571 251.232L738.149 251.225L730.008 229.016Z" fill="#EFEFEF" fill-opacity="0.3"/>
<path d="M768.945 195.939L736.366 195.945L744.508 218.154L777.086 218.148L768.945 195.939Z" fill="#EFEFEF" fill-opacity="0.3"/>
<path d="M717.886 195.95L685.308 195.956L693.449 218.165L726.028 218.159L717.886 195.95Z" fill="#EFEFEF" fill-opacity="0.3"/>
<path d="M756.823 162.872L724.245 162.879L732.386 185.088L764.965 185.081L756.823 162.872Z" fill="#EFEFEF" fill-opacity="0.3"/>
<path d="M744.701 129.806L712.123 129.812L720.265 152.021L752.843 152.015L744.701 129.806Z" fill="#EFEFEF" fill-opacity="0.3"/>
<path d="M705.767 162.883L673.189 162.89L681.33 185.099L713.909 185.092L705.767 162.883Z" fill="#EFEFEF" fill-opacity="0.3"/>
<path d="M781.067 229.009L748.489 229.015L756.63 251.224L789.208 251.218L781.067 229.009Z" fill="#EFEFEF" fill-opacity="0.3"/>
<path d="M129.518 262.451L96.9397 262.457L105.081 284.666L137.66 284.66L129.518 262.451Z" fill="#EFEFEF" fill-opacity="0.3"/>
<path d="M165.881 361.652L133.303 361.658L141.444 383.867L174.023 383.861L165.881 361.652Z" fill="#EFEFEF" fill-opacity="0.3"/>
<path d="M204.818 328.574L172.24 328.581L180.381 350.79L212.96 350.783L204.818 328.574Z" fill="#EFEFEF" fill-opacity="0.3"/>
<path d="M153.762 328.585L121.184 328.592L129.326 350.801L161.904 350.794L153.762 328.585Z" fill="#EFEFEF" fill-opacity="0.3"/>
<path d="M192.696 295.508L160.118 295.514L168.26 317.723L200.838 317.717L192.696 295.508Z" fill="#EFEFEF" fill-opacity="0.3"/>
<path d="M180.577 262.442L147.999 262.448L156.141 284.657L188.719 284.651L180.577 262.442Z" fill="#EFEFEF" fill-opacity="0.3"/>
<path d="M141.637 295.519L109.059 295.525L117.201 317.734L149.779 317.728L141.637 295.519Z" fill="#EFEFEF" fill-opacity="0.3"/>
<path d="M216.94 361.642L184.362 361.649L192.504 383.858L225.082 383.851L216.94 361.642Z" fill="#EFEFEF" fill-opacity="0.3"/>
<path d="M231.633 262.431L199.055 262.437L207.197 284.646L239.775 284.64L231.633 262.431Z" fill="#EFEFEF" fill-opacity="0.3"/>
<path d="M268.002 361.633L235.424 361.64L243.565 383.849L276.144 383.842L268.002 361.633Z" fill="#EFEFEF" fill-opacity="0.3"/>
<path d="M306.936 328.556L274.358 328.562L282.499 350.771L315.078 350.765L306.936 328.556Z" fill="#EFEFEF" fill-opacity="0.3"/>
<path d="M255.877 328.567L223.299 328.573L231.441 350.782L264.019 350.776L255.877 328.567Z" fill="#EFEFEF" fill-opacity="0.3"/>
<path d="M294.817 295.488L262.238 295.494L270.38 317.703L302.958 317.697L294.817 295.488Z" fill="#EFEFEF" fill-opacity="0.3"/>
<path d="M282.692 262.421L250.114 262.428L258.255 284.637L290.833 284.63L282.692 262.421Z" fill="#EFEFEF" fill-opacity="0.3"/>
<path d="M243.755 295.497L211.177 295.503L219.318 317.712L251.897 317.706L243.755 295.497Z" fill="#EFEFEF" fill-opacity="0.3"/>
<path d="M319.061 361.623L286.483 361.629L294.624 383.838L327.202 383.832L319.061 361.623Z" fill="#EFEFEF" fill-opacity="0.3"/>
<path d="M333.751 262.41L301.172 262.417L309.314 284.626L341.892 284.619L333.751 262.41Z" fill="#EFEFEF" fill-opacity="0.3"/>
<path d="M370.117 361.611L337.539 361.618L345.68 383.827L378.258 383.82L370.117 361.611Z" fill="#EFEFEF" fill-opacity="0.3"/>
<path d="M409.053 328.535L376.475 328.542L384.617 350.751L417.195 350.744L409.053 328.535Z" fill="#EFEFEF" fill-opacity="0.3"/>
<path d="M357.995 328.545L325.417 328.551L333.558 350.76L366.137 350.754L357.995 328.545Z" fill="#EFEFEF" fill-opacity="0.3"/>
<path d="M396.932 295.468L364.354 295.474L372.495 317.683L405.074 317.677L396.932 295.468Z" fill="#EFEFEF" fill-opacity="0.3"/>
<path d="M384.81 262.401L352.232 262.407L360.374 284.616L392.952 284.61L384.81 262.401Z" fill="#EFEFEF" fill-opacity="0.3"/>
<path d="M345.876 295.479L313.298 295.485L321.44 317.694L354.018 317.688L345.876 295.479Z" fill="#EFEFEF" fill-opacity="0.3"/>
<path d="M421.176 361.604L388.598 361.61L396.739 383.819L429.318 383.813L421.176 361.604Z" fill="#EFEFEF" fill-opacity="0.3"/>
<path d="M435.869 262.392L403.29 262.398L411.432 284.607L444.01 284.601L435.869 262.392Z" fill="#EFEFEF" fill-opacity="0.3"/>
<path d="M472.235 361.593L439.656 361.599L447.798 383.808L480.376 383.802L472.235 361.593Z" fill="#EFEFEF" fill-opacity="0.3"/>
<path d="M511.172 328.515L478.594 328.522L486.735 350.731L519.313 350.724L511.172 328.515Z" fill="#EFEFEF" fill-opacity="0.3"/>
<path d="M460.113 328.526L427.535 328.533L435.676 350.742L468.255 350.735L460.113 328.526Z" fill="#EFEFEF" fill-opacity="0.3"/>
<path d="M499.049 295.447L466.471 295.454L474.613 317.663L507.191 317.656L499.049 295.447Z" fill="#EFEFEF" fill-opacity="0.3"/>
<path d="M486.927 262.381L454.349 262.387L462.491 284.596L495.069 284.59L486.927 262.381Z" fill="#EFEFEF" fill-opacity="0.3"/>
<path d="M447.99 295.458L415.412 295.465L423.554 317.674L456.132 317.667L447.99 295.458Z" fill="#EFEFEF" fill-opacity="0.3"/>
<path d="M523.294 361.582L490.715 361.588L498.857 383.797L531.435 383.791L523.294 361.582Z" fill="#EFEFEF" fill-opacity="0.3"/>
<path d="M537.986 262.37L505.408 262.376L513.55 284.585L546.128 284.579L537.986 262.37Z" fill="#EFEFEF" fill-opacity="0.3"/>
<path d="M574.352 361.572L541.774 361.579L549.916 383.788L582.494 383.782L574.352 361.572Z" fill="#EFEFEF" fill-opacity="0.3"/>
<path d="M613.289 328.495L580.711 328.502L588.853 350.711L621.431 350.704L613.289 328.495Z" fill="#EFEFEF" fill-opacity="0.3"/>
<path d="M562.23 328.506L529.652 328.513L537.794 350.722L570.372 350.715L562.23 328.506Z" fill="#EFEFEF" fill-opacity="0.3"/>
<path d="M601.167 295.429L568.589 295.435L576.731 317.644L609.309 317.638L601.167 295.429Z" fill="#EFEFEF" fill-opacity="0.3"/>
<path d="M589.042 262.362L556.464 262.368L564.606 284.577L597.184 284.571L589.042 262.362Z" fill="#EFEFEF" fill-opacity="0.3"/>
<path d="M550.109 295.438L517.531 295.444L525.672 317.653L558.25 317.647L550.109 295.438Z" fill="#EFEFEF" fill-opacity="0.3"/>
<path d="M625.412 361.563L592.833 361.57L600.975 383.779L633.553 383.772L625.412 361.563Z" fill="#EFEFEF" fill-opacity="0.3"/>
<path d="M640.104 262.352L607.526 262.358L615.668 284.567L648.246 284.561L640.104 262.352Z" fill="#EFEFEF" fill-opacity="0.3"/>
<path d="M676.47 361.552L643.892 361.559L652.034 383.768L684.612 383.761L676.47 361.552Z" fill="#EFEFEF" fill-opacity="0.3"/>
<path d="M715.407 328.477L682.829 328.483L690.971 350.692L723.549 350.686L715.407 328.477Z" fill="#EFEFEF" fill-opacity="0.3"/>
<path d="M664.349 328.486L631.771 328.492L639.912 350.702L672.49 350.695L664.349 328.486Z" fill="#EFEFEF" fill-opacity="0.3"/>
<path d="M703.285 295.408L670.707 295.415L678.848 317.624L711.426 317.617L703.285 295.408Z" fill="#EFEFEF" fill-opacity="0.3"/>
<path d="M691.163 262.34L658.585 262.347L666.727 284.556L699.305 284.55L691.163 262.34Z" fill="#EFEFEF" fill-opacity="0.3"/>
<path d="M652.226 295.418L619.648 295.424L627.79 317.633L660.368 317.627L652.226 295.418Z" fill="#EFEFEF" fill-opacity="0.3"/>
<path d="M727.526 361.543L694.948 361.549L703.089 383.758L735.667 383.752L727.526 361.543Z" fill="#EFEFEF" fill-opacity="0.3"/>
<path d="M742.222 262.331L709.644 262.338L717.785 284.547L750.363 284.54L742.222 262.331Z" fill="#EFEFEF" fill-opacity="0.3"/>
<path d="M778.585 361.532L746.007 361.538L754.148 383.747L786.727 383.741L778.585 361.532Z" fill="#EFEFEF" fill-opacity="0.3"/>
<path d="M817.525 328.455L784.947 328.461L793.088 350.67L825.666 350.664L817.525 328.455Z" fill="#EFEFEF" fill-opacity="0.3"/>
<path d="M766.466 328.466L733.888 328.472L742.029 350.681L774.608 350.675L766.466 328.466Z" fill="#EFEFEF" fill-opacity="0.3"/>
<path d="M805.4 295.388L772.822 295.394L780.964 317.603L813.542 317.597L805.4 295.388Z" fill="#EFEFEF" fill-opacity="0.3"/>
<path d="M793.281 262.322L760.703 262.328L768.845 284.537L801.423 284.531L793.281 262.322Z" fill="#EFEFEF" fill-opacity="0.3"/>
<path d="M754.341 295.399L721.763 295.405L729.905 317.615L762.483 317.608L754.341 295.399Z" fill="#EFEFEF" fill-opacity="0.3"/>
<path d="M829.647 361.523L797.069 361.53L805.211 383.739L837.789 383.732L829.647 361.523Z" fill="#EFEFEF" fill-opacity="0.3"/>
<path d="M178.729 396.694L146.151 396.7L154.292 418.909L186.871 418.903L178.729 396.694Z" fill="#EFEFEF" fill-opacity="0.3"/>
<path d="M215.095 495.895L182.517 495.901L190.659 518.11L223.237 518.104L215.095 495.895Z" fill="#EFEFEF" fill-opacity="0.3"/>
<path d="M254.029 462.817L221.451 462.824L229.593 485.032L262.171 485.026L254.029 462.817Z" fill="#EFEFEF" fill-opacity="0.3"/>
<path d="M202.97 462.828L170.392 462.835L178.534 485.044L211.112 485.037L202.97 462.828Z" fill="#EFEFEF" fill-opacity="0.3"/>
<path d="M241.91 429.751L209.332 429.757L217.474 451.966L250.052 451.96L241.91 429.751Z" fill="#EFEFEF" fill-opacity="0.3"/>
<path d="M229.786 396.684L197.207 396.691L205.349 418.9L237.927 418.893L229.786 396.684Z" fill="#EFEFEF" fill-opacity="0.3"/>
<path d="M190.851 429.762L158.273 429.768L166.415 451.977L198.993 451.971L190.851 429.762Z" fill="#EFEFEF" fill-opacity="0.3"/>
<path d="M266.155 495.886L233.576 495.892L241.718 518.101L274.296 518.095L266.155 495.886Z" fill="#EFEFEF" fill-opacity="0.3"/>
<path d="M280.844 396.673L248.266 396.68L256.408 418.889L288.986 418.882L280.844 396.673Z" fill="#EFEFEF" fill-opacity="0.3"/>
<path d="M317.213 495.876L284.635 495.883L292.777 518.092L325.355 518.085L317.213 495.876Z" fill="#EFEFEF" fill-opacity="0.3"/>
<path d="M356.147 462.798L323.569 462.805L331.711 485.014L364.289 485.008L356.147 462.798Z" fill="#EFEFEF" fill-opacity="0.3"/>
<path d="M305.088 462.808L272.509 462.814L280.651 485.023L313.229 485.017L305.088 462.808Z" fill="#EFEFEF" fill-opacity="0.3"/>
<path d="M344.028 429.731L311.45 429.737L319.591 451.946L352.169 451.94L344.028 429.731Z" fill="#EFEFEF" fill-opacity="0.3"/>
<path d="M331.903 396.664L299.325 396.67L307.466 418.879L340.045 418.873L331.903 396.664Z" fill="#EFEFEF" fill-opacity="0.3"/>
<path d="M292.969 429.74L260.391 429.746L268.533 451.955L301.111 451.949L292.969 429.74Z" fill="#EFEFEF" fill-opacity="0.3"/>
<path d="M368.269 495.865L335.691 495.872L343.832 518.081L376.411 518.074L368.269 495.865Z" fill="#EFEFEF" fill-opacity="0.3"/>
<path d="M382.962 396.653L350.384 396.659L358.525 418.868L391.103 418.862L382.962 396.653Z" fill="#EFEFEF" fill-opacity="0.3"/>
<path d="M419.328 495.854L386.75 495.861L394.891 518.07L427.469 518.063L419.328 495.854Z" fill="#EFEFEF" fill-opacity="0.3"/>
<path d="M458.268 462.779L425.689 462.785L433.831 484.994L466.409 484.988L458.268 462.779Z" fill="#EFEFEF" fill-opacity="0.3"/>
<path d="M407.209 462.788L374.631 462.794L382.772 485.003L415.351 484.997L407.209 462.788Z" fill="#EFEFEF" fill-opacity="0.3"/>
<path d="M446.143 429.71L413.565 429.717L421.706 451.926L454.285 451.919L446.143 429.71Z" fill="#EFEFEF" fill-opacity="0.3"/>
<path d="M434.021 396.644L401.443 396.65L409.585 418.859L442.163 418.853L434.021 396.644Z" fill="#EFEFEF" fill-opacity="0.3"/>
<path d="M395.084 429.721L362.506 429.728L370.648 451.937L403.226 451.93L395.084 429.721Z" fill="#EFEFEF" fill-opacity="0.3"/>
<path d="M470.387 495.847L437.809 495.853L445.95 518.062L478.529 518.056L470.387 495.847Z" fill="#EFEFEF" fill-opacity="0.3"/>
<path d="M485.083 396.635L452.505 396.641L460.646 418.85L493.224 418.844L485.083 396.635Z" fill="#EFEFEF" fill-opacity="0.3"/>
<path d="M521.446 495.836L488.868 495.842L497.009 518.051L529.587 518.045L521.446 495.836Z" fill="#EFEFEF" fill-opacity="0.3"/>
<path d="M560.383 462.758L527.805 462.765L535.946 484.974L568.524 484.967L560.383 462.758Z" fill="#EFEFEF" fill-opacity="0.3"/>
<path d="M509.326 462.768L476.748 462.774L484.89 484.983L517.468 484.977L509.326 462.768Z" fill="#EFEFEF" fill-opacity="0.3"/>
<path d="M548.26 429.69L515.682 429.696L523.824 451.905L556.402 451.899L548.26 429.69Z" fill="#EFEFEF" fill-opacity="0.3"/>
<path d="M536.142 396.624L503.563 396.63L511.705 418.839L544.283 418.833L536.142 396.624Z" fill="#EFEFEF" fill-opacity="0.3"/>
<path d="M497.202 429.701L464.623 429.707L472.765 451.916L505.343 451.91L497.202 429.701Z" fill="#EFEFEF" fill-opacity="0.3"/>
<path d="M572.505 495.825L539.926 495.831L548.068 518.04L580.646 518.034L572.505 495.825Z" fill="#EFEFEF" fill-opacity="0.3"/>
<path d="M587.197 396.613L554.619 396.619L562.761 418.828L595.339 418.822L587.197 396.613Z" fill="#EFEFEF" fill-opacity="0.3"/>
<path d="M623.563 495.815L590.985 495.822L599.127 518.031L631.705 518.024L623.563 495.815Z" fill="#EFEFEF" fill-opacity="0.3"/>
<path d="M662.5 462.738L629.922 462.744L638.064 484.953L670.642 484.947L662.5 462.738Z" fill="#EFEFEF" fill-opacity="0.3"/>
<path d="M611.441 462.749L578.863 462.756L587.005 484.964L619.583 484.958L611.441 462.749Z" fill="#EFEFEF" fill-opacity="0.3"/>
<path d="M650.378 429.671L617.8 429.678L625.942 451.887L658.52 451.88L650.378 429.671Z" fill="#EFEFEF" fill-opacity="0.3"/>
<path d="M638.257 396.605L605.678 396.612L613.82 418.821L646.398 418.814L638.257 396.605Z" fill="#EFEFEF" fill-opacity="0.3"/>
<path d="M599.32 429.681L566.742 429.687L574.883 451.896L607.462 451.89L599.32 429.681Z" fill="#EFEFEF" fill-opacity="0.3"/>
<path d="M674.626 495.807L642.047 495.813L650.189 518.022L682.767 518.016L674.626 495.807Z" fill="#EFEFEF" fill-opacity="0.3"/>
<path d="M689.315 396.594L656.737 396.601L664.879 418.81L697.457 418.803L689.315 396.594Z" fill="#EFEFEF" fill-opacity="0.3"/>
<path d="M725.682 495.795L693.103 495.802L701.245 518.011L733.823 518.004L725.682 495.795Z" fill="#EFEFEF" fill-opacity="0.3"/>
<path d="M764.618 462.719L732.04 462.726L740.182 484.935L772.76 484.928L764.618 462.719Z" fill="#EFEFEF" fill-opacity="0.3"/>
<path d="M713.559 462.727L680.981 462.733L689.123 484.942L721.701 484.936L713.559 462.727Z" fill="#EFEFEF" fill-opacity="0.3"/>
<path d="M752.496 429.652L719.918 429.658L728.059 451.867L760.638 451.861L752.496 429.652Z" fill="#EFEFEF" fill-opacity="0.3"/>
<path d="M740.374 396.583L707.796 396.59L715.938 418.799L748.516 418.792L740.374 396.583Z" fill="#EFEFEF" fill-opacity="0.3"/>
<path d="M701.437 429.661L668.859 429.667L677.001 451.876L709.579 451.87L701.437 429.661Z" fill="#EFEFEF" fill-opacity="0.3"/>
<path d="M776.74 495.786L744.162 495.793L752.303 518.002L784.882 517.995L776.74 495.786Z" fill="#EFEFEF" fill-opacity="0.3"/>
<path d="M791.433 396.574L758.855 396.58L766.996 418.789L799.575 418.783L791.433 396.574Z" fill="#EFEFEF" fill-opacity="0.3"/>
<path d="M827.799 495.775L795.221 495.781L803.362 517.99L835.941 517.984L827.799 495.775Z" fill="#EFEFEF" fill-opacity="0.3"/>
<path d="M866.733 462.697L834.155 462.704L842.296 484.913L874.875 484.907L866.733 462.697Z" fill="#EFEFEF" fill-opacity="0.3"/>
<path d="M815.677 462.708L783.099 462.715L791.241 484.924L823.819 484.917L815.677 462.708Z" fill="#EFEFEF" fill-opacity="0.3"/>
<path d="M854.614 429.631L822.036 429.638L830.178 451.847L862.756 451.84L854.614 429.631Z" fill="#EFEFEF" fill-opacity="0.3"/>
<path d="M842.492 396.565L809.914 396.571L818.056 418.78L850.634 418.774L842.492 396.565Z" fill="#EFEFEF" fill-opacity="0.3"/>
<path d="M803.555 429.642L770.977 429.649L779.119 451.858L811.697 451.851L803.555 429.642Z" fill="#EFEFEF" fill-opacity="0.3"/>
<path d="M878.858 495.766L846.28 495.772L854.422 517.981L887 517.975L878.858 495.766Z" fill="#EFEFEF" fill-opacity="0.3"/>
</svg>
