<svg xmlns="http://www.w3.org/2000/svg" version="1.1" xmlns:xlink="http://www.w3.org/1999/xlink" xmlns:svgjs="http://svgjs.dev/svgjs" width="1000" height="1000"><style>
    #light-icon {
      display: inline;
    }
    #dark-icon {
      display: none;
    }

    @media (prefers-color-scheme: dark) {
      #light-icon {
        display: none;
      }
      #dark-icon {
        display: inline;
      }
    }
  </style><g id="light-icon"><svg xmlns="http://www.w3.org/2000/svg" version="1.1" xmlns:xlink="http://www.w3.org/1999/xlink" xmlns:svgjs="http://svgjs.dev/svgjs" width="1000" height="1000"><g><g transform="matrix(1.964601766086616,0,0,1.964601766086616,0,0)"><svg xmlns="http://www.w3.org/2000/svg" version="1.1" xmlns:xlink="http://www.w3.org/1999/xlink" xmlns:svgjs="http://svgjs.dev/svgjs" width="509.00901" height="509.00901"><svg version="1.1" xmlns="http://www.w3.org/2000/svg" xmlns:xlink="http://www.w3.org/1999/xlink" width="509.00901" height="509.00901" viewBox="0,0,509.00901,509.00901"><g transform="translate(14.5045,74.5045)"><g stroke="none" stroke-miterlimit="10"><path d="M298.37637,210.31799c5.427,6.866 9.813,15.865 6.122,24.573c-6.546,15.443 -26.945,20.286 -41.63,23.152c-31.666,6.179 -64.948,3.115 -96.695,-1.111c-23.821,-3.171 -47.522,-8.195 -70.185,-16.28c-73.271,-26.14 -96.152,-48.318 -101.881,-65.246c-3.118,-9.213 1.322,-18.005 8.338,-24c9.173,-7.838 21.896,-11.341 33.471,-13.792c2.761,-0.585 5.542,-1.007 8.331,-1.425c4.729,-0.665 9.487,-1.119 14.253,-1.417c6.086,-0.381 12.187,-0.507 18.284,-0.441c7.522,0.081 15.039,0.455 22.537,1.054c9.036,0.721 18.043,1.769 27.013,3.068c10.625,1.538 21.197,3.431 31.711,5.599c11.565,2.385 23.061,5.103 34.486,8.086c-1.984,-0.458 -3.978,-0.88 -5.971,-1.299c-5.36,-1.125 -10.736,-2.172 -16.122,-3.16c-7.841,-1.438 -15.707,-2.747 -23.592,-3.919c-9.433,-1.402 -18.895,-2.61 -28.383,-3.573c-10.139,-1.029 -20.309,-1.782 -30.495,-2.125c-9.972,-0.337 -19.971,-0.291 -29.926,0.426c-12.188,0.878 -24.165,2.854 -35.736,6.902c-7.892,2.761 -17.527,7.229 -21.131,15.385c-2.771,6.269 -0.42,12.984 3.234,18.342c5.101,7.479 12.498,13.35 19.915,18.39c7.893,5.364 16.348,9.951 25.047,13.865c33.369,15.135 70.757,23.499 106.775,29.224c20.47,3.254 41.176,5.606 61.931,5.413c18.86,-0.175 43.46,-0.962 60.019,-11.189c4.297,-2.654 7.969,-6.723 8.996,-11.667c0.763,-3.673 0.019,-7.507 -1.23,-11.043c-4.169,-11.804 -13.576,-20.871 -22.672,-29.472c20.58,8.638 35.186,27.677 35.186,27.68z" fill="#0b0e0f" stroke-width="1"></path><path d="M370.97637,141.04399c-11.432,32.065 158.723,-34.979 105.641,-13.694c-30.649,12.29 -461.464,130.393 -461.464,130.393l140.855,-114.109c5.083,1.062 10.21,2.167 15.381,3.319c8.297,1.848 16.444,3.756 24.44,5.714c-13.773,3.523 -46.793,22.166 -46.793,22.166c-68.825,44.105 -5.855,42.566 -5.855,42.566c107.52,-8.63 277.103,-120.525 275.166,-118.921c0.002,0.001 -42.137,27.885 -47.371,42.566z" fill="#de0d22" stroke-width="1"></path><path d="M-14.5045,180c0,-140.55896 113.94555,-254.5045 254.5045,-254.5045c140.55896,0 254.5045,113.94555 254.5045,254.5045c0,140.55896 -113.94555,254.5045 -254.5045,254.5045c-140.55896,0 -254.5045,-113.94555 -254.5045,-254.5045z" fill="none" stroke-width="0"></path></g></g></svg></svg></g></g></svg></g><g id="dark-icon"><svg xmlns="http://www.w3.org/2000/svg" version="1.1" xmlns:xlink="http://www.w3.org/1999/xlink" xmlns:svgjs="http://svgjs.dev/svgjs" width="1000" height="1000"><g clip-path="url(#SvgjsClipPath1156)"><rect width="1000" height="1000" fill="#0b0e0f"></rect><g transform="matrix(1.768141624214896,0,0,1.768141624214896,50,50)"><svg xmlns="http://www.w3.org/2000/svg" version="1.1" xmlns:xlink="http://www.w3.org/1999/xlink" xmlns:svgjs="http://svgjs.dev/svgjs" width="509.009" height="509.009"><svg version="1.1" xmlns="http://www.w3.org/2000/svg" xmlns:xlink="http://www.w3.org/1999/xlink" width="509.009" height="509.009" viewBox="0,0,509.009,509.009"><g transform="translate(14.50451,74.5045)"><g stroke="none" stroke-miterlimit="10"><path d="M298.37637,210.31799c5.427,6.866 9.813,15.865 6.122,24.573c-6.546,15.443 -26.945,20.286 -41.63,23.152c-31.666,6.179 -64.948,3.115 -96.695,-1.111c-23.821,-3.171 -47.522,-8.195 -70.185,-16.28c-73.271,-26.14 -96.152,-48.318 -101.881,-65.246c-3.118,-9.213 1.322,-18.005 8.338,-24c9.173,-7.838 21.896,-11.341 33.471,-13.792c2.761,-0.585 5.542,-1.007 8.331,-1.425c4.729,-0.665 9.487,-1.119 14.253,-1.417c6.086,-0.381 12.187,-0.507 18.284,-0.441c7.522,0.081 15.039,0.455 22.537,1.054c9.036,0.721 18.043,1.769 27.013,3.068c10.625,1.538 21.197,3.431 31.711,5.599c11.565,2.385 23.061,5.103 34.486,8.086c-1.984,-0.458 -3.978,-0.88 -5.971,-1.299c-5.36,-1.125 -10.736,-2.172 -16.122,-3.16c-7.841,-1.438 -15.707,-2.747 -23.592,-3.919c-9.433,-1.402 -18.895,-2.61 -28.383,-3.573c-10.139,-1.029 -20.309,-1.782 -30.495,-2.125c-9.972,-0.337 -19.971,-0.291 -29.926,0.426c-12.188,0.878 -24.165,2.854 -35.736,6.902c-7.892,2.761 -17.527,7.229 -21.131,15.385c-2.771,6.269 -0.42,12.984 3.234,18.342c5.101,7.479 12.498,13.35 19.915,18.39c7.893,5.364 16.348,9.951 25.047,13.865c33.369,15.135 70.757,23.499 106.775,29.224c20.47,3.254 41.176,5.606 61.931,5.413c18.86,-0.175 43.46,-0.962 60.019,-11.189c4.297,-2.654 7.969,-6.723 8.996,-11.667c0.763,-3.673 0.019,-7.507 -1.23,-11.043c-4.169,-11.804 -13.576,-20.871 -22.672,-29.472c20.58,8.638 35.186,27.677 35.186,27.68z" fill="#f4f1f0" stroke-width="1"></path><path d="M370.97637,141.04399c-11.432,32.065 158.723,-34.979 105.641,-13.694c-30.649,12.29 -461.464,130.393 -461.464,130.393l140.855,-114.109c5.083,1.062 10.21,2.167 15.381,3.319c8.297,1.848 16.444,3.756 24.44,5.714c-13.773,3.523 -46.793,22.166 -46.793,22.166c-68.825,44.105 -5.855,42.566 -5.855,42.566c107.52,-8.63 277.103,-120.525 275.166,-118.921c0.002,0.001 -42.137,27.885 -47.371,42.566z" fill="#de0d22" stroke-width="1"></path><path d="M-14.5045,180c0,-140.55896 113.94555,-254.5045 254.5045,-254.5045c140.55896,0 254.5045,113.94555 254.5045,254.5045c0,140.55896 -113.94555,254.5045 -254.5045,254.5045c-140.55896,0 -254.5045,-113.94555 -254.5045,-254.5045z" fill="none" stroke-width="0"></path></g></g></svg></svg></g></g><defs><clipPath id="SvgjsClipPath1156"><rect width="1000" height="1000" x="0" y="0" rx="400" ry="400"></rect></clipPath></defs></svg></g></svg>