<svg width="300" height="73" viewBox="0 0 300 73" fill="none" xmlns="http://www.w3.org/2000/svg">
<rect x="0.5" y="0.5" width="299" height="72" stroke="#0B0E0F"/>
<path d="M99.433 37.4257C102.076 39.9213 104.805 42.5532 106.016 45.9773C106.379 47.0045 106.594 48.1159 106.373 49.1809C106.074 50.6144 105.008 51.7954 103.76 52.5673C98.951 55.5358 91.8077 55.7621 86.3311 55.8144C80.3028 55.8695 74.292 55.1876 68.3479 54.2445C57.8884 52.5847 47.0311 50.1559 37.344 45.7655C34.8177 44.6309 32.3639 43.2989 30.0699 41.7436C27.9153 40.2811 25.7694 38.5777 24.2856 36.4072C23.2257 34.8518 22.5433 32.9047 23.3477 31.0853C24.393 28.7174 27.1923 27.4232 29.4834 26.6224C32.8431 25.4471 36.3218 24.8755 39.8615 24.6201C42.7537 24.4112 45.6546 24.3996 48.5526 24.4953C51.5116 24.594 54.4647 24.8145 57.4063 25.1134C60.162 25.392 62.909 25.7431 65.6473 26.1494C67.9384 26.4889 70.2208 26.869 72.4974 27.2869C74.0625 27.5741 75.6219 27.8759 77.1783 28.2038C77.7562 28.3257 78.3369 28.4476 78.9119 28.5811C75.5928 27.7163 72.2564 26.927 68.8967 26.2335C65.8448 25.6038 62.7726 25.0554 59.6887 24.6085C57.084 24.2313 54.4677 23.9266 51.8455 23.7177C49.6677 23.5436 47.484 23.4362 45.3004 23.413C43.529 23.3927 41.7577 23.4304 39.9922 23.5407C38.6071 23.6277 37.2278 23.7583 35.8543 23.9527C35.0441 24.0746 34.2369 24.1965 33.4355 24.3677C30.0729 25.0786 26.3792 26.0942 23.7164 28.3692C21.6779 30.1103 20.3887 32.661 21.2946 35.3335C22.9585 40.2463 29.6024 46.6824 50.8786 54.2677C57.4586 56.6153 64.3406 58.072 71.2604 58.9918C80.48 60.2193 90.1438 61.1072 99.3402 59.3139C103.606 58.4811 109.527 57.0766 111.429 52.5963C112.5 50.0688 111.228 47.4572 109.652 45.4666C109.652 45.4666 105.409 39.9416 99.433 37.4344V37.4257Z" fill="black"/>
<path d="M130.731 25.355C127.412 34.6582 176.821 15.2045 161.407 21.3825C152.507 24.9488 27.4082 59.2189 27.4082 59.2189L68.3082 26.1066C69.7834 26.4142 71.2731 26.7363 72.7743 27.07C75.1845 27.6068 77.5482 28.161 79.8712 28.7269C75.8727 29.7483 66.2843 35.1602 66.2843 35.1602C46.2974 47.96 64.5855 47.5131 64.5855 47.5131C95.8072 45.0088 145.053 12.5378 144.49 13.005C144.49 13.005 132.253 21.0952 130.734 25.355H130.731Z" fill="black"/>
<path d="M197.02 39.1445L176.87 60.1535H183.52L203.974 39.1445H197.02Z" fill="black"/>
<path d="M185.601 17.2148L160.173 43.4993H166.823L192.556 17.2148H185.601Z" fill="black"/>
<path d="M203.532 44.5623H203.523V60.1652H208.558V44.5623C208.558 35.175 200.93 35.1431 198.627 35.1808H177.311V40.0152C183.574 40.0152 203.532 40.0152 198.648 40.0152C198.648 40.0152 203.532 40.0326 203.532 44.5652V44.5623Z" fill="black"/>
<path d="M193.622 23.48H193.631V23.5032H188.596V23.48C188.596 32.8672 196.224 32.8992 198.527 32.8614H217.715V28.0271C211.452 28.0271 193.622 28.0271 198.506 28.0271C198.506 28.0271 193.622 28.0096 193.622 23.4771V23.48Z" fill="black"/>
<path d="M231.758 45.4443L217.613 60.4495H223.148L237.597 45.4443H231.758Z" fill="black"/>
<path d="M237.507 45.4292L243.021 51.8131H237.486L231.667 45.4292H237.507Z" fill="black"/>
<path d="M274.573 50.6623H274.565V36.2085H279.6V50.6623C279.6 60.0496 271.971 60.0815 269.669 60.0438H243.023V55.2094C249.287 55.2094 274.573 55.2094 269.689 55.2094C269.689 55.2094 274.573 55.192 274.573 50.6594V50.6623Z" fill="black"/>
<path d="M235.242 20.0713L221.579 32.9117H228.499L242.481 20.0713H235.242Z" fill="black"/>
<path d="M273.32 19.9209L256.19 37.8249H262.19L279.595 19.9209H273.32Z" fill="black"/>
<path d="M257.605 31.6006H257.613V19.9209H252.578V31.6006C252.578 40.9879 260.206 41.0198 262.509 40.9821H270.437V36.1477C264.173 36.1477 257.605 36.1477 262.489 36.1477C262.489 36.1477 257.605 36.1303 257.605 31.5977V31.6006Z" fill="black"/>
<path d="M250.617 41.136H245.521V26.508L250.617 21.8071V41.136Z" fill="black"/>
<path d="M237.574 45.43H231.674V32.5431L237.595 27.021L237.574 45.43Z" fill="black"/>
<path d="M228.398 36.2343V41.1064H243.8V36.2343H228.398Z" fill="black"/>
</svg>
