<svg width="300" height="73" viewBox="0 0 300 73" fill="none" xmlns="http://www.w3.org/2000/svg">
<rect x="0.5" y="0.5" width="299" height="72" stroke="#0B0E0F"/>
<g clip-path="url(#clip0_3755_3258)">
<path d="M274.573 51.3399H274.565V36.8862H279.6V51.3399C279.6 60.7271 271.971 60.759 269.669 60.7213H243.022V55.8869C249.286 55.8869 274.573 55.8869 269.689 55.8869C269.689 55.8869 274.573 55.8695 274.573 51.337V51.3399Z" fill="#0B0E0F"/>
<path d="M273.324 20.5986L256.194 38.5025H262.194L279.597 20.5986H273.324Z" fill="#DE0D22"/>
<path d="M257.612 32.2782H257.62V20.5986H252.585V32.2782C252.585 41.6654 260.213 41.6973 262.516 41.6596H270.444V36.8253C264.18 36.8253 257.612 36.8253 262.496 36.8253C262.496 36.8253 257.612 36.8078 257.612 32.2753V32.2782Z" fill="#0B0E0F"/>
<path d="M250.619 41.8135H245.52V27.1857L250.619 22.4849V41.8135Z" fill="#0B0E0F"/>
<path d="M99.4354 37.426C102.078 39.9216 104.808 42.5535 106.019 45.9775C106.381 47.0048 106.596 48.1161 106.376 49.1811C106.077 50.6145 105.011 51.7956 103.762 52.5674C98.9533 55.5359 91.8098 55.7623 86.333 55.8145C80.3046 55.8696 74.2935 55.1877 68.3493 54.2446C57.8895 52.5848 47.0318 50.1561 37.3444 45.7657C34.8181 44.6311 32.3643 43.2992 30.0702 41.7439C27.9155 40.2814 25.7695 38.578 24.2856 36.4075C23.2257 34.8522 22.5433 32.9051 23.3477 31.0857C24.3931 28.7179 27.1924 27.4237 29.4836 26.6228C32.8434 25.4476 36.3223 24.8759 39.8621 24.6206C42.7544 24.4117 45.6554 24.4001 48.5534 24.4958C51.5125 24.5945 54.4658 24.815 57.4074 25.1139C60.1632 25.3925 62.9103 25.7436 65.6486 26.1498C67.9398 26.4893 70.2223 26.8695 72.4989 27.2873C74.0641 27.5746 75.6235 27.8764 77.18 28.2043C77.7579 28.3261 78.3386 28.448 78.9136 28.5815C75.5945 27.7168 72.2579 26.9275 68.8981 26.234C65.8461 25.6043 62.7738 25.0559 59.6899 24.609C57.0851 24.2318 54.4687 23.9271 51.8465 23.7181C49.6685 23.544 47.4848 23.4367 45.3011 23.4135C43.5297 23.3931 41.7583 23.4309 39.9928 23.5411C38.6076 23.6282 37.2283 23.7588 35.8547 23.9532C35.0446 24.0751 34.2373 24.1969 33.4358 24.3681C30.0731 25.0791 26.3794 26.0947 23.7165 28.3697C21.678 30.1107 20.3886 32.6614 21.2946 35.3339C22.9586 40.2466 29.6027 46.6827 50.8795 54.2679C57.4597 56.6154 64.3419 58.0721 71.2619 58.9919C80.4817 60.2194 90.1459 61.1073 99.3425 59.314C103.608 58.4812 109.529 57.0768 111.431 52.5964C112.503 50.069 111.231 47.4574 109.654 45.4668C109.654 45.4668 105.412 39.9419 99.4354 37.4348V37.426Z" fill="#0B0E0F"/>
<path d="M130.733 25.3549C127.414 34.6579 176.824 15.2045 161.41 21.3824C152.51 24.9486 27.4072 59.2184 27.4072 59.2184L68.3085 26.1064C69.7837 26.414 71.2734 26.7361 72.7747 27.0698C75.1849 27.6066 77.5487 28.1609 79.8718 28.7267C75.8731 29.7481 66.2845 35.1599 66.2845 35.1599C46.297 47.9596 64.5857 47.5127 64.5857 47.5127C95.8083 45.0085 145.052 12.5378 144.492 13.005C144.492 13.005 132.255 21.0951 130.736 25.3549H130.733Z" fill="#DE0D22"/>
<path d="M197.023 39.144L176.873 60.1528H183.526L203.978 39.144H197.023Z" fill="#DE0D22"/>
<path d="M185.605 17.2153L160.176 43.4995H166.826L192.56 17.2153H185.605Z" fill="#0B0E0F"/>
<path d="M203.537 44.5617H203.528V60.1645H208.563V44.5617C208.563 35.1745 200.935 35.1426 198.632 35.1803H177.314V40.0146C183.578 40.0146 203.537 40.0146 198.652 40.0146C198.652 40.0146 203.537 40.0321 203.537 44.5646V44.5617Z" fill="#0B0E0F"/>
<path d="M193.626 23.4804H193.635V23.5037H188.6V23.4804C188.6 32.8676 196.228 32.8995 198.531 32.8618H217.72V28.0275C211.456 28.0275 193.626 28.0275 198.511 28.0275C198.511 28.0275 193.626 28.0101 193.626 23.4775V23.4804Z" fill="#0B0E0F"/>
<path d="M231.76 45.4438L217.615 60.4488H223.15L237.6 45.4438H231.76Z" fill="#DE0D22"/>
<path d="M237.51 45.4292L243.024 51.8131H237.489L231.67 45.4292H237.51Z" fill="#0B0E0F"/>
<path d="M235.251 20.0708L221.585 32.9111H228.508L242.487 20.0708H235.251Z" fill="#0B0E0F"/>
<path d="M237.579 45.4293H231.679V32.5426L237.6 27.0205L237.579 45.4293Z" fill="#0B0E0F"/>
<path d="M228.405 36.2334V41.1055H243.807V36.2334H228.405Z" fill="#DE0D22"/>
</g>
<defs>
<clipPath id="clip0_3755_3258">
<rect x="21" y="13" width="258.6" height="47.4495" fill="white"/>
</clipPath>
</defs>
</svg>
