<svg width="168" height="73" viewBox="0 0 168 73" fill="none" xmlns="http://www.w3.org/2000/svg">
<rect x="0.5" y="0.5" width="166.93" height="72" stroke="#0B0E0F"/>
<path d="M90.312 37.6989C92.9841 40.2223 95.7443 42.8836 96.9687 46.346C97.3357 47.3847 97.553 48.5085 97.3299 49.5853C97.0274 51.0348 95.9498 52.229 94.6872 53.0095C89.8246 56.0112 82.6012 56.2401 77.0632 56.2929C70.9674 56.3486 64.8891 55.6591 58.8785 54.7055C48.3017 53.0271 37.3228 50.5712 27.5271 46.1318C24.9725 44.9845 22.4913 43.6377 20.1716 42.065C17.9928 40.5862 15.8228 38.8638 14.3224 36.669C13.2506 35.0963 12.5606 33.1275 13.3739 31.2877C14.431 28.8934 17.2617 27.5848 19.5784 26.7749C22.9758 25.5866 26.4935 25.0086 30.0729 24.7504C32.9975 24.5391 35.9309 24.5274 38.8614 24.6242C41.8535 24.7239 44.8398 24.9469 47.8143 25.2492C50.6009 25.5308 53.3787 25.8859 56.1477 26.2967C58.4644 26.64 60.7724 27.0243 63.0745 27.4469C64.6572 27.7374 66.234 28.0425 67.8079 28.3741C68.3922 28.4973 68.9795 28.6205 69.5609 28.7555C66.2046 27.8811 62.8308 27.083 59.4334 26.3818C56.3473 25.745 53.2407 25.1905 50.1223 24.7386C47.4884 24.3572 44.8427 24.0491 42.1912 23.8378C39.989 23.6618 37.7808 23.5532 35.5727 23.5297C33.7815 23.5092 31.9904 23.5473 30.2051 23.6588C28.8044 23.7469 27.4097 23.8789 26.0208 24.0755C25.2015 24.1987 24.3852 24.322 23.5748 24.4951C20.1745 25.214 16.4395 26.2409 13.7468 28.5413C11.6855 30.3018 10.3818 32.881 11.2979 35.5834C12.9805 40.551 19.6988 47.059 41.2134 54.729C47.8672 57.1027 54.8263 58.5757 61.8236 59.5058C71.1465 60.747 80.9187 61.6448 90.2181 59.8315C94.5315 58.9894 100.519 57.5693 102.442 53.0389C103.526 50.4832 102.239 47.8424 100.645 45.8296C100.645 45.8296 96.355 40.2429 90.312 37.7077V37.6989Z" fill="#0B0E0F"/>
<path d="M121.959 25.493C118.603 34.9 168.565 15.2292 152.979 21.4761C143.979 25.0822 17.4785 59.7349 17.4785 59.7349L58.8369 26.2529C60.3286 26.5639 61.8349 26.8896 63.353 27.2271C65.7902 27.7699 68.1803 28.3303 70.5294 28.9025C66.4861 29.9353 56.7903 35.4076 56.7903 35.4076C36.5794 48.3503 55.0725 47.8984 55.0725 47.8984C86.6441 45.3662 136.439 12.5326 135.872 13.005C135.872 13.005 123.498 21.1856 121.962 25.493H121.959Z" fill="#DE0D22"/>
</svg>
