<svg width="168" height="73" viewBox="0 0 168 73" fill="none" xmlns="http://www.w3.org/2000/svg">
<rect x="0.5" y="0.5" width="166.93" height="72" stroke="#0B0E0F"/>
<path d="M90.3111 37.6993C92.9831 40.2228 95.7433 42.8842 96.9677 46.3467C97.3348 47.3854 97.5521 48.5092 97.3289 49.5861C97.0265 51.0356 95.9488 52.2299 94.6862 53.0104C89.8237 56.0122 82.6004 56.241 77.0625 56.2938C70.9667 56.3496 64.8886 55.66 58.8779 54.7064C48.3013 53.028 37.3225 50.572 27.5269 46.1325C24.9723 44.9851 22.4911 43.6383 20.1715 42.0655C17.9927 40.5867 15.8228 38.8643 14.3224 36.6694C13.2506 35.0966 12.5606 33.1277 13.3739 31.288C14.431 28.8936 17.2616 27.5849 19.5783 26.775C22.9756 25.5867 26.4933 25.0086 30.0727 24.7504C32.9973 24.5391 35.9306 24.5274 38.861 24.6242C41.8531 24.724 44.8394 24.947 47.8139 25.2492C50.6004 25.5309 53.3782 25.886 56.1471 26.2968C58.4639 26.6401 60.7718 27.0245 63.0739 27.447C64.6565 27.7375 66.2334 28.0426 67.8072 28.3742C68.3915 28.4975 68.9788 28.6207 69.5602 28.7557C66.204 27.8813 62.8302 27.0831 59.4329 26.3818C56.3468 25.7451 53.2402 25.1905 50.1218 24.7387C47.488 24.3572 44.8423 24.0491 42.1908 23.8378C39.9886 23.6618 37.7805 23.5532 35.5724 23.5297C33.7812 23.5092 31.9901 23.5473 30.2048 23.6588C28.8042 23.7469 27.4094 23.8789 26.0206 24.0755C25.2013 24.1987 24.3851 24.322 23.5747 24.4951C20.1744 25.214 16.4394 26.241 13.7468 28.5415C11.6855 30.302 10.3818 32.8813 11.2979 35.5837C12.9804 40.5515 19.6987 47.0597 41.213 54.7299C47.8667 57.1037 54.8258 58.5767 61.8231 59.5069C71.1458 60.7481 80.9179 61.646 90.2172 59.8326C94.5306 58.9904 100.518 57.5703 102.441 53.0397C103.524 50.484 102.238 47.8431 100.644 45.8302C100.644 45.8302 96.354 40.2434 90.3111 37.7081V37.6993Z" fill="black"/>
<path d="M121.96 25.4933C118.604 34.9006 168.565 15.2292 152.979 21.4763C143.98 25.0825 17.4805 59.7363 17.4805 59.7363L58.8384 26.2533C60.33 26.5643 61.8364 26.89 63.3544 27.2275C65.7916 27.7703 68.1817 28.3308 70.5308 28.903C66.4875 29.9358 56.7918 35.4082 56.7918 35.4082C36.5811 48.3513 55.074 47.8994 55.074 47.8994C86.6452 45.3672 136.442 12.5326 135.873 13.005C135.873 13.005 123.499 21.1858 121.963 25.4933H121.96Z" fill="black"/>
</svg>
