<svg width="140" height="58" viewBox="0 0 140 58" fill="none" xmlns="http://www.w3.org/2000/svg">
<rect x="0.5" y="0.5" width="139" height="57" stroke="#0B0E0F"/>
<path d="M118.166 39.8792H118.158V27.2236H122.567V39.8792C122.567 48.0985 115.887 48.1265 113.871 48.0934H90.54V43.8605C96.0245 43.8605 118.166 43.8605 113.889 43.8605C113.889 43.8605 118.166 43.8453 118.166 39.8766V39.8792Z" fill="#0B0E0F"/>
<path d="M117.072 12.9624L102.073 28.6389H107.326L122.564 12.9624H117.072Z" fill="#DE0D22"/>
<path d="M103.314 23.189H103.322V12.9624H98.9131V23.189C98.9131 31.4083 105.593 31.4363 107.609 31.4033H114.55V27.1703C109.066 27.1703 103.314 27.1703 107.591 27.1703C107.591 27.1703 103.314 27.1551 103.314 23.1864V23.189Z" fill="#0B0E0F"/>
<path d="M97.1914 31.5383H92.7266V18.7303L97.1914 14.6143V31.5383Z" fill="#0B0E0F"/>
<path d="M50.2644 29.2007L32.6211 47.5958H38.4462L56.354 29.2007H50.2644Z" fill="#DE0D22"/>
<path d="M40.2658 10L18 33.0142H23.8226L46.3554 10H40.2658Z" fill="#0B0E0F"/>
<path d="M55.9668 33.9449H55.9591V47.6066H60.3681V33.9449C60.3681 25.7255 53.6886 25.6976 51.6723 25.7306H33.0068V29.9635C38.4913 29.9635 55.9668 29.9635 51.6901 29.9635C51.6901 29.9635 55.9668 29.9788 55.9668 33.9474V33.9449Z" fill="#0B0E0F"/>
<path d="M47.288 15.4859H47.2956V15.5063H42.8867V15.4859C42.8867 23.7053 49.5662 23.7333 51.5825 23.7002H68.3842V19.4673C62.8997 19.4673 47.288 19.4673 51.5647 19.4673C51.5647 19.4673 47.288 19.4521 47.288 15.4834V15.4859Z" fill="#0B0E0F"/>
<path d="M80.6791 34.7168L68.2939 47.8551H73.1402L85.7923 34.7168H80.6791Z" fill="#DE0D22"/>
<path d="M85.7128 34.7046L90.5413 40.2943H85.695L80.5996 34.7046H85.7128Z" fill="#0B0E0F"/>
<path d="M83.7351 12.5005L71.7695 23.7434H77.8312L90.0714 12.5005H83.7351Z" fill="#0B0E0F"/>
<path d="M85.774 34.704H80.6074V23.4205L85.7918 18.5854L85.774 34.704Z" fill="#0B0E0F"/>
<path d="M77.7422 26.6525V30.9185H91.2283V26.6525H77.7422Z" fill="#DE0D22"/>
</svg>
