<svg width="140" height="58" viewBox="0 0 140 58" fill="none" xmlns="http://www.w3.org/2000/svg">
<rect x="0.5" y="0.5" width="139" height="57" stroke="#0B0E0F"/>
<path d="M49.6092 29.4067L31.7773 47.9992H37.6622L55.7639 29.4067H49.6092Z" fill="#0C0005"/>
<path d="M39.5037 10L17 33.2612H22.8848L45.6585 10H39.5037Z" fill="#0C0005"/>
<path d="M55.3713 34.202H55.3637V48.0103H59.8197V34.202C59.8197 25.8944 53.0688 25.8662 51.0309 25.8996H32.166V30.1779C37.7091 30.1779 55.3714 30.1779 51.0489 30.1779C51.0489 30.1779 55.3713 30.1933 55.3713 34.2046V34.202Z" fill="#0C0005"/>
<path d="M46.6007 15.5441H46.6084V15.5646H42.1523V15.5441C42.1523 23.8516 48.9032 23.8799 50.9411 23.8465H67.9224V19.5682C62.3793 19.5682 46.6007 19.5682 50.9231 19.5682C50.9231 19.5682 46.6007 19.5528 46.6007 15.5415V15.5441Z" fill="#0C0005"/>
<path d="M80.3505 34.9819L67.833 48.2612H72.731L85.5184 34.9819H80.3505Z" fill="#0C0005"/>
<path d="M85.4384 34.9688L90.3185 40.6184H85.4204L80.2705 34.9688H85.4384Z" fill="#0C0005"/>
<path d="M118.242 39.5999H118.234V26.8086H122.691V39.5999C122.691 47.9075 115.94 47.9357 113.902 47.9023H90.3213V43.624C95.8644 43.624 118.242 43.624 113.92 43.624C113.92 43.624 118.242 43.6086 118.242 39.5974V39.5999Z" fill="#0C0005"/>
<path d="M83.4337 12.5273L71.3428 23.8908H77.4666L89.8402 12.5273H83.4337Z" fill="#0C0005"/>
<path d="M117.133 12.3945L101.974 28.2392H107.283L122.686 12.3945H117.133Z" fill="#0C0005"/>
<path d="M103.225 22.7308H103.232V12.3945H98.7764V22.7308C98.7764 31.0384 105.527 31.0666 107.565 31.0333H114.581V26.7549C109.038 26.7549 103.225 26.7549 107.547 26.7549C107.547 26.7549 103.225 26.7395 103.225 22.7283V22.7308Z" fill="#0C0005"/>
<path d="M97.0403 31.1691H92.5303V18.2237L97.0403 14.0635V31.1691Z" fill="#0C0005"/>
<path d="M85.4982 34.9698H80.2764V23.5652L85.5162 18.6782L85.4982 34.9698Z" fill="#0C0005"/>
<path d="M77.3789 26.8313V31.1431H91.0092V26.8313H77.3789Z" fill="#0C0005"/>
</svg>
