<svg width="315" height="475" viewBox="0 0 315 475" fill="none" xmlns="http://www.w3.org/2000/svg">
<g clip-path="url(#clip0_707_1124)">
<rect width="315" height="475" fill="white"/>
<path d="M38.6405 80.7295L19.2625 80.7352L14.4203 60.454L33.7978 60.4482L38.6405 80.7295Z" fill="#EFEFEF" fill-opacity="0.3"/>
<path d="M31.4304 50.5328L12.053 50.5385L7.21002 30.2573L26.5877 30.2515L31.4304 50.5328Z" fill="#EFEFEF" fill-opacity="0.3"/>
<path d="M24.2201 20.3345L4.84234 20.3404L0 0.0590597L19.3776 0.0532227L24.2201 20.3345Z" fill="#EFEFEF" fill-opacity="0.3"/>
<path d="M45.8489 110.925L26.4712 110.931L21.6285 90.6498L41.0062 90.644L45.8489 110.925Z" fill="#EFEFEF" fill-opacity="0.3"/>
<path d="M54.59 20.3248L35.2124 20.3306L30.3698 0.0492941L49.7473 0.043457L54.59 20.3248Z" fill="#EFEFEF" fill-opacity="0.3"/>
<path d="M76.2185 110.918L56.8409 110.923L51.9983 90.6416L71.3759 90.6357L76.2185 110.918Z" fill="#EFEFEF" fill-opacity="0.3"/>
<path d="M99.3806 80.7109L80.0029 80.7167L75.1599 60.4355L94.5375 60.4297L99.3806 80.7109Z" fill="#EFEFEF" fill-opacity="0.3"/>
<path d="M69.0102 80.7207L49.6326 80.7265L44.7899 60.4453L64.1675 60.4395L69.0102 80.7207Z" fill="#EFEFEF" fill-opacity="0.3"/>
<path d="M92.1689 50.5141L72.7909 50.52L67.9482 30.2387L87.3257 30.2329L92.1689 50.5141Z" fill="#EFEFEF" fill-opacity="0.3"/>
<path d="M84.9597 20.3179L65.5824 20.3237L60.7397 0.0424581L80.1175 0.0366211L84.9597 20.3179Z" fill="#EFEFEF" fill-opacity="0.3"/>
<path d="M61.7983 50.5244L42.4208 50.5302L37.578 30.249L56.9557 30.2432L61.7983 50.5244Z" fill="#EFEFEF" fill-opacity="0.3"/>
<path d="M106.591 110.908L87.2129 110.914L82.3706 90.6333L101.747 90.6274L106.591 110.908Z" fill="#EFEFEF" fill-opacity="0.3"/>
<path d="M115.33 20.3075L95.9524 20.3134L91.1101 0.0322042L110.488 0.0263672L115.33 20.3075Z" fill="#EFEFEF" fill-opacity="0.3"/>
<path d="M136.961 110.899L117.583 110.905L112.74 90.6235L132.118 90.6177L136.961 110.899Z" fill="#EFEFEF" fill-opacity="0.3"/>
<path d="M160.119 80.6938L140.741 80.6997L135.899 60.4184L155.276 60.4126L160.119 80.6938Z" fill="#EFEFEF" fill-opacity="0.3"/>
<path d="M129.751 80.7021L110.373 80.708L105.53 60.4267L124.908 60.4209L129.751 80.7021Z" fill="#EFEFEF" fill-opacity="0.3"/>
<path d="M152.911 50.498L133.533 50.5039L128.69 30.2226L148.068 30.2168L152.911 50.498Z" fill="#EFEFEF" fill-opacity="0.3"/>
<path d="M145.7 20.2993L126.322 20.3051L121.48 0.0239035L140.857 0.0180664L145.7 20.2993Z" fill="#EFEFEF" fill-opacity="0.3"/>
<path d="M122.538 50.5044L103.161 50.5102L98.3184 30.229L117.696 30.2231L122.538 50.5044Z" fill="#EFEFEF" fill-opacity="0.3"/>
<path d="M167.331 110.891L147.953 110.896L143.111 90.6147L162.487 90.6089L167.331 110.891Z" fill="#EFEFEF" fill-opacity="0.3"/>
<path d="M176.068 20.2891L156.691 20.2949L151.848 0.0136496L171.225 0.0078125L176.068 20.2891Z" fill="#EFEFEF" fill-opacity="0.3"/>
<path d="M197.701 110.881L178.323 110.886L173.48 90.6045L192.858 90.5986L197.701 110.881Z" fill="#EFEFEF" fill-opacity="0.3"/>
<path d="M220.859 80.6739L201.481 80.6797L196.639 60.3984L216.016 60.3926L220.859 80.6739Z" fill="#EFEFEF" fill-opacity="0.3"/>
<path d="M190.488 80.6836L171.111 80.6895L166.268 60.4082L185.646 60.4023L190.488 80.6836Z" fill="#EFEFEF" fill-opacity="0.3"/>
<path d="M213.65 50.4775L194.273 50.4833L189.43 30.2021L208.807 30.1963L213.65 50.4775Z" fill="#EFEFEF" fill-opacity="0.3"/>
<path d="M206.439 20.2812L187.061 20.2871L182.218 0.00583706L201.596 0L206.439 20.2812Z" fill="#EFEFEF" fill-opacity="0.3"/>
<path d="M183.28 50.4878L163.902 50.4936L159.06 30.2124L178.438 30.2065L183.28 50.4878Z" fill="#EFEFEF" fill-opacity="0.3"/>
<path d="M228.07 110.871L208.693 110.878L203.85 90.5967L223.228 90.5908L228.07 110.871Z" fill="#EFEFEF" fill-opacity="0.3"/>
<path d="M67.4051 201.195L48.0275 201.2L43.1849 180.92L62.5625 180.914L67.4051 201.195Z" fill="#EFEFEF" fill-opacity="0.3"/>
<path d="M60.193 170.998L40.8154 171.004L35.9727 150.722L55.3503 150.716L60.193 170.998Z" fill="#EFEFEF" fill-opacity="0.3"/>
<path d="M52.9844 140.801L33.6068 140.807L28.7642 120.525L48.1418 120.52L52.9844 140.801Z" fill="#EFEFEF" fill-opacity="0.3"/>
<path d="M74.613 231.391L55.2354 231.398L50.3927 211.117L69.7704 211.111L74.613 231.391Z" fill="#EFEFEF" fill-opacity="0.3"/>
<path d="M83.3541 140.792L63.9766 140.798L59.1339 120.517L78.5119 120.512L83.3541 140.792Z" fill="#EFEFEF" fill-opacity="0.3"/>
<path d="M104.985 231.383L85.6072 231.389L80.7641 211.107L100.142 211.101L104.985 231.383Z" fill="#EFEFEF" fill-opacity="0.3"/>
<path d="M128.143 201.176L108.765 201.182L103.923 180.901L123.3 180.895L128.143 201.176Z" fill="#EFEFEF" fill-opacity="0.3"/>
<path d="M97.775 201.186L78.3973 201.192L73.5546 180.911L92.9319 180.905L97.775 201.186Z" fill="#EFEFEF" fill-opacity="0.3"/>
<path d="M120.933 170.98L101.555 170.985L96.7128 150.705L116.09 150.699L120.933 170.98Z" fill="#EFEFEF" fill-opacity="0.3"/>
<path d="M113.725 140.783L94.3468 140.79L89.5045 120.508L108.882 120.501L113.725 140.783Z" fill="#EFEFEF" fill-opacity="0.3"/>
<path d="M90.5633 170.99L71.1853 170.995L66.3427 150.714L85.7201 150.708L90.5633 170.99Z" fill="#EFEFEF" fill-opacity="0.3"/>
<path d="M135.355 231.374L115.978 231.379L111.135 211.099L130.512 211.093L135.355 231.374Z" fill="#EFEFEF" fill-opacity="0.3"/>
<path d="M144.093 140.773L124.715 140.78L119.872 120.499L139.25 120.492L144.093 140.773Z" fill="#EFEFEF" fill-opacity="0.3"/>
<path d="M165.725 231.366L146.347 231.371L141.505 211.09L160.883 211.084L165.725 231.366Z" fill="#EFEFEF" fill-opacity="0.3"/>
<path d="M188.884 201.159L169.505 201.164L164.663 180.884L184.04 180.878L188.884 201.159Z" fill="#EFEFEF" fill-opacity="0.3"/>
<path d="M158.513 201.167L139.135 201.173L134.293 180.892L153.67 180.886L158.513 201.167Z" fill="#EFEFEF" fill-opacity="0.3"/>
<path d="M181.674 170.964L162.298 170.97L157.454 150.688L176.832 150.682L181.674 170.964Z" fill="#EFEFEF" fill-opacity="0.3"/>
<path d="M174.463 140.765L155.085 140.771L150.242 120.49L169.62 120.484L174.463 140.765Z" fill="#EFEFEF" fill-opacity="0.3"/>
<path d="M151.305 170.97L131.927 170.976L127.084 150.695L146.462 150.689L151.305 170.97Z" fill="#EFEFEF" fill-opacity="0.3"/>
<path d="M196.094 231.355L176.718 231.362L171.874 211.08L191.252 211.074L196.094 231.355Z" fill="#EFEFEF" fill-opacity="0.3"/>
<path d="M204.832 140.755L185.455 140.761L180.612 120.48L199.99 120.474L204.832 140.755Z" fill="#EFEFEF" fill-opacity="0.3"/>
<path d="M226.463 231.345L207.085 231.352L202.243 211.07L221.621 211.064L226.463 231.345Z" fill="#EFEFEF" fill-opacity="0.3"/>
<path d="M249.623 201.139L230.246 201.145L225.403 180.863L244.78 180.858L249.623 201.139Z" fill="#EFEFEF" fill-opacity="0.3"/>
<path d="M219.253 201.15L199.875 201.155L195.033 180.873L214.411 180.868L219.253 201.15Z" fill="#EFEFEF" fill-opacity="0.3"/>
<path d="M242.413 170.944L223.035 170.949L218.193 150.668L237.57 150.662L242.413 170.944Z" fill="#EFEFEF" fill-opacity="0.3"/>
<path d="M235.203 140.746L215.826 140.752L210.983 120.471L230.36 120.466L235.203 140.746Z" fill="#EFEFEF" fill-opacity="0.3"/>
<path d="M212.045 170.953L192.667 170.959L187.825 150.678L207.202 150.672L212.045 170.953Z" fill="#EFEFEF" fill-opacity="0.3"/>
<path d="M256.833 231.339L237.456 231.344L232.613 211.063L251.99 211.057L256.833 231.339Z" fill="#EFEFEF" fill-opacity="0.3"/>
<path d="M96.2989 322.207L76.9211 322.213L72.0786 301.933L91.4566 301.926L96.2989 322.207Z" fill="#EFEFEF" fill-opacity="0.3"/>
<path d="M89.0879 292.009L69.7106 292.016L64.8679 271.734L84.2457 271.729L89.0879 292.009Z" fill="#EFEFEF" fill-opacity="0.3"/>
<path d="M81.878 261.814L62.5007 261.819L57.658 241.539L77.0357 241.533L81.878 261.814Z" fill="#EFEFEF" fill-opacity="0.3"/>
<path d="M103.509 352.405L84.1311 352.409L79.2889 332.129L98.6666 332.123L103.509 352.405Z" fill="#EFEFEF" fill-opacity="0.3"/>
<path d="M112.248 261.804L92.8706 261.809L88.0284 241.527L107.405 241.522L112.248 261.804Z" fill="#EFEFEF" fill-opacity="0.3"/>
<path d="M133.878 352.396L114.501 352.402L109.658 332.12L129.036 332.115L133.878 352.396Z" fill="#EFEFEF" fill-opacity="0.3"/>
<path d="M157.039 322.19L137.661 322.196L132.818 301.914L152.196 301.909L157.039 322.19Z" fill="#EFEFEF" fill-opacity="0.3"/>
<path d="M126.668 322.2L107.291 322.205L102.448 301.924L121.826 301.919L126.668 322.2Z" fill="#EFEFEF" fill-opacity="0.3"/>
<path d="M149.829 291.993L130.451 291.998L125.608 271.718L144.986 271.712L149.829 291.993Z" fill="#EFEFEF" fill-opacity="0.3"/>
<path d="M142.616 261.796L123.239 261.803L118.396 241.521L137.774 241.516L142.616 261.796Z" fill="#EFEFEF" fill-opacity="0.3"/>
<path d="M119.458 292.001L100.081 292.008L95.2384 271.727L114.616 271.721L119.458 292.001Z" fill="#EFEFEF" fill-opacity="0.3"/>
<path d="M164.249 352.386L144.871 352.392L140.029 332.112L159.407 332.105L164.249 352.386Z" fill="#EFEFEF" fill-opacity="0.3"/>
<path d="M172.988 261.787L153.611 261.793L148.768 241.512L168.145 241.506L172.988 261.787Z" fill="#EFEFEF" fill-opacity="0.3"/>
<path d="M194.619 352.377L175.241 352.383L170.398 332.102L189.776 332.095L194.619 352.377Z" fill="#EFEFEF" fill-opacity="0.3"/>
<path d="M217.779 322.173L198.401 322.178L193.559 301.897L212.936 301.891L217.779 322.173Z" fill="#EFEFEF" fill-opacity="0.3"/>
<path d="M187.409 322.181L168.031 322.188L163.189 301.906L182.567 301.9L187.409 322.181Z" fill="#EFEFEF" fill-opacity="0.3"/>
<path d="M210.568 291.975L191.191 291.981L186.349 271.699L205.726 271.694L210.568 291.975Z" fill="#EFEFEF" fill-opacity="0.3"/>
<path d="M203.359 261.778L183.981 261.783L179.138 241.502L198.516 241.496L203.359 261.778Z" fill="#EFEFEF" fill-opacity="0.3"/>
<path d="M180.198 291.984L160.821 291.989L155.978 271.708L175.356 271.702L180.198 291.984Z" fill="#EFEFEF" fill-opacity="0.3"/>
<path d="M224.987 352.369L205.609 352.374L200.767 332.093L220.145 332.087L224.987 352.369Z" fill="#EFEFEF" fill-opacity="0.3"/>
<path d="M233.728 261.769L214.35 261.775L209.508 241.494L228.886 241.487L233.728 261.769Z" fill="#EFEFEF" fill-opacity="0.3"/>
<path d="M255.356 352.358L235.979 352.364L231.137 332.082L250.514 332.077L255.356 352.358Z" fill="#EFEFEF" fill-opacity="0.3"/>
<path d="M278.519 322.153L259.141 322.158L254.299 301.877L273.676 301.872L278.519 322.153Z" fill="#EFEFEF" fill-opacity="0.3"/>
<path d="M248.149 322.163L228.771 322.168L223.928 301.887L243.306 301.881L248.149 322.163Z" fill="#EFEFEF" fill-opacity="0.3"/>
<path d="M271.307 291.956L251.929 291.962L247.087 271.681L266.464 271.674L271.307 291.956Z" fill="#EFEFEF" fill-opacity="0.3"/>
<path d="M264.099 261.76L244.721 261.766L239.878 241.484L259.255 241.479L264.099 261.76Z" fill="#EFEFEF" fill-opacity="0.3"/>
<path d="M240.936 291.966L221.56 291.973L216.716 271.691L236.094 271.685L240.936 291.966Z" fill="#EFEFEF" fill-opacity="0.3"/>
<path d="M285.729 352.35L266.352 352.357L261.509 332.075L280.886 332.068L285.729 352.35Z" fill="#EFEFEF" fill-opacity="0.3"/>
<path d="M125.569 444.799L106.192 444.804L101.349 424.524L120.727 424.518L125.569 444.799Z" fill="#EFEFEF" fill-opacity="0.3"/>
<path d="M118.359 414.599L98.9816 414.606L94.1394 394.325L113.516 394.319L118.359 414.599Z" fill="#EFEFEF" fill-opacity="0.3"/>
<path d="M111.151 384.405L91.7734 384.409L86.9312 364.129L106.308 364.123L111.151 384.405Z" fill="#EFEFEF" fill-opacity="0.3"/>
<path d="M132.779 474.994L113.403 475L108.559 454.718L127.937 454.713L132.779 474.994Z" fill="#EFEFEF" fill-opacity="0.3"/>
<path d="M141.519 384.394L122.141 384.4L117.299 364.118L136.677 364.113L141.519 384.394Z" fill="#EFEFEF" fill-opacity="0.3"/>
<path d="M163.15 474.985L143.772 474.992L138.929 454.711L158.307 454.705L163.15 474.985Z" fill="#EFEFEF" fill-opacity="0.3"/>
<path d="M186.309 444.779L166.932 444.786L162.089 424.504L181.467 424.499L186.309 444.779Z" fill="#EFEFEF" fill-opacity="0.3"/>
<path d="M155.94 444.79L136.562 444.796L131.719 424.514L151.097 424.508L155.94 444.79Z" fill="#EFEFEF" fill-opacity="0.3"/>
<path d="M179.099 414.584L159.722 414.589L154.879 394.309L174.256 394.303L179.099 414.584Z" fill="#EFEFEF" fill-opacity="0.3"/>
<path d="M171.889 384.387L152.512 384.394L147.668 364.112L167.047 364.106L171.889 384.387Z" fill="#EFEFEF" fill-opacity="0.3"/>
<path d="M148.73 414.592L129.352 414.598L124.51 394.317L143.887 394.311L148.73 414.592Z" fill="#EFEFEF" fill-opacity="0.3"/>
<path d="M193.522 474.978L174.144 474.983L169.302 454.703L188.68 454.697L193.522 474.978Z" fill="#EFEFEF" fill-opacity="0.3"/>
<path d="M202.26 384.377L182.882 384.383L178.039 364.102L197.417 364.095L202.26 384.377Z" fill="#EFEFEF" fill-opacity="0.3"/>
<path d="M223.89 474.969L204.513 474.973L199.67 454.693L219.047 454.687L223.89 474.969Z" fill="#EFEFEF" fill-opacity="0.3"/>
<path d="M247.05 444.763L227.672 444.768L222.829 424.488L242.207 424.482L247.05 444.763Z" fill="#EFEFEF" fill-opacity="0.3"/>
<path d="M216.68 444.769L197.302 444.776L192.46 424.495L211.837 424.489L216.68 444.769Z" fill="#EFEFEF" fill-opacity="0.3"/>
<path d="M239.839 414.565L220.461 414.571L215.619 394.29L234.997 394.285L239.839 414.565Z" fill="#EFEFEF" fill-opacity="0.3"/>
<path d="M232.629 384.367L213.251 384.373L208.409 364.092L227.786 364.085L232.629 384.367Z" fill="#EFEFEF" fill-opacity="0.3"/>
<path d="M209.47 414.574L190.092 414.579L185.249 394.298L204.627 394.292L209.47 414.574Z" fill="#EFEFEF" fill-opacity="0.3"/>
<path d="M254.26 474.959L234.882 474.965L230.039 454.684L249.417 454.678L254.26 474.959Z" fill="#EFEFEF" fill-opacity="0.3"/>
<path d="M263 384.36L243.621 384.365L238.779 364.083L258.157 364.078L263 384.36Z" fill="#EFEFEF" fill-opacity="0.3"/>
<path d="M284.63 474.949L265.252 474.955L260.41 454.674L279.787 454.668L284.63 474.949Z" fill="#EFEFEF" fill-opacity="0.3"/>
<path d="M307.788 444.742L288.41 444.748L283.567 424.467L302.945 424.462L307.788 444.742Z" fill="#EFEFEF" fill-opacity="0.3"/>
<path d="M277.42 444.753L258.043 444.758L253.2 424.477L272.577 424.472L277.42 444.753Z" fill="#EFEFEF" fill-opacity="0.3"/>
<path d="M300.58 414.546L281.202 414.553L276.359 394.272L295.737 394.265L300.58 414.546Z" fill="#EFEFEF" fill-opacity="0.3"/>
<path d="M293.369 384.35L273.992 384.356L269.149 364.075L288.527 364.07L293.369 384.35Z" fill="#EFEFEF" fill-opacity="0.3"/>
<path d="M270.21 414.556L250.832 414.563L245.99 394.282L265.367 394.275L270.21 414.556Z" fill="#EFEFEF" fill-opacity="0.3"/>
<path d="M315 474.941L295.623 474.947L290.78 454.665L310.158 454.659L315 474.941Z" fill="#EFEFEF" fill-opacity="0.3"/>
</g>
<defs>
<clipPath id="clip0_707_1124">
<rect width="315" height="475" fill="white"/>
</clipPath>
</defs>
</svg>
