<svg width="76" height="29" viewBox="0 0 76 29" fill="none" xmlns="http://www.w3.org/2000/svg">
<rect width="76" height="29" rx="14.5" fill="#DE0D22"/>
<path d="M20.7 21V19.1H23.94V8.86H21.3V7.4C21.9933 7.28 22.5933 7.12667 23.1 6.94C23.62 6.75333 24.0933 6.52667 24.52 6.26H26.26V19.1H29.12V21H20.7ZM32.7443 10.08H42.1803V21.966H40.7523V11.424H34.1022V22.022H32.7443V10.08ZM33.6543 14.868H41.3543V16.184H33.6543V14.868ZM33.6403 19.768H41.3683V21.098H33.6403V19.768ZM47.4443 13.286H55.3263V14.546H47.4443V13.286ZM47.4443 16.562H55.3263V17.822H47.4443V16.562ZM47.4443 19.852H55.3263V21.154H47.4443V19.852ZM46.5063 9.996H56.2223V22.064H54.8363V11.298H47.8363V22.064H46.5063V9.996Z" fill="white"/>
</svg>
