<svg width="76" height="29" viewBox="0 0 76 29" fill="none" xmlns="http://www.w3.org/2000/svg">
<path d="M0 14.5C0 6.49187 6.49187 0 14.5 0H61.5C69.5081 0 76 6.49187 76 14.5C76 22.5081 69.5081 29 61.5 29H14.5C6.49187 29 0 22.5081 0 14.5Z" fill="#D9D9D9"/>
<path d="M19.88 20V18.66C21.3333 17.3667 22.5467 16.1867 23.52 15.12C24.4933 14.04 25.22 13.04 25.7 12.12C26.1933 11.2 26.44 10.34 26.44 9.54C26.44 9.00667 26.3467 8.54 26.16 8.14C25.9867 7.72667 25.7133 7.41333 25.34 7.2C24.98 6.97333 24.52 6.86 23.96 6.86C23.3867 6.86 22.86 7.02 22.38 7.34C21.9 7.64667 21.46 8.02667 21.06 8.48L19.76 7.2C20.3867 6.50667 21.0467 5.96667 21.74 5.58C22.4467 5.19333 23.2867 5 24.26 5C25.1533 5 25.9333 5.18667 26.6 5.56C27.2667 5.92 27.78 6.43333 28.14 7.1C28.5133 7.75333 28.7 8.52667 28.7 9.42C28.7 10.3667 28.4667 11.3267 28 12.3C27.5333 13.26 26.8933 14.2333 26.08 15.22C25.2667 16.1933 24.34 17.18 23.3 18.18C23.6867 18.14 24.0933 18.1067 24.52 18.08C24.96 18.04 25.3533 18.02 25.7 18.02H29.4V20H19.88ZM32.7443 9.08H42.1803V20.966H40.7523V10.424H34.1022V21.022H32.7443V9.08ZM33.6543 13.868H41.3543V15.184H33.6543V13.868ZM33.6403 18.768H41.3683V20.098H33.6403V18.768ZM47.4443 12.286H55.3263V13.546H47.4443V12.286ZM47.4443 15.562H55.3263V16.822H47.4443V15.562ZM47.4443 18.852H55.3263V20.154H47.4443V18.852ZM46.5063 8.996H56.2223V21.064H54.8363V10.298H47.8363V21.064H46.5063V8.996Z" fill="white"/>
</svg>
