<svg width="76" height="29" viewBox="0 0 76 29" fill="none" xmlns="http://www.w3.org/2000/svg">
<rect width="76" height="29" rx="14.5" fill="#DE0D22"/>
<path d="M20.88 20V18.66C22.3333 17.3667 23.5467 16.1867 24.52 15.12C25.4933 14.04 26.22 13.04 26.7 12.12C27.1933 11.2 27.44 10.34 27.44 9.54C27.44 9.00667 27.3467 8.54 27.16 8.14C26.9867 7.72667 26.7133 7.41333 26.34 7.2C25.98 6.97333 25.52 6.86 24.96 6.86C24.3867 6.86 23.86 7.02 23.38 7.34C22.9 7.64667 22.46 8.02667 22.06 8.48L20.76 7.2C21.3867 6.50667 22.0467 5.96667 22.74 5.58C23.4467 5.19333 24.2867 5 25.26 5C26.1533 5 26.9333 5.18667 27.6 5.56C28.2667 5.92 28.78 6.43333 29.14 7.1C29.5133 7.75333 29.7 8.52667 29.7 9.42C29.7 10.3667 29.4667 11.3267 29 12.3C28.5333 13.26 27.8933 14.2333 27.08 15.22C26.2667 16.1933 25.34 17.18 24.3 18.18C24.6867 18.14 25.0933 18.1067 25.52 18.08C25.96 18.04 26.3533 18.02 26.7 18.02H30.4V20H20.88ZM33.7443 9.08H43.1803V20.966H41.7523V10.424H35.1022V21.022H33.7443V9.08ZM34.6543 13.868H42.3543V15.184H34.6543V13.868ZM34.6403 18.768H42.3683V20.098H34.6403V18.768ZM48.4443 12.286H56.3263V13.546H48.4443V12.286ZM48.4443 15.562H56.3263V16.822H48.4443V15.562ZM48.4443 18.852H56.3263V20.154H48.4443V18.852ZM47.5063 8.996H57.2223V21.064H55.8363V10.298H48.8363V21.064H47.5063V8.996Z" fill="white"/>
</svg>
