<svg width="89" height="22" viewBox="0 0 89 22" fill="none" xmlns="http://www.w3.org/2000/svg">
<path d="M0.548 21V0.251998H13.26V3.724H4.692V8.512H11.944V11.984H4.692V17.528H13.568V21H0.548Z" fill="#DE0D22"/>
<path d="M20.5017 21L15.1537 5.32H19.2977L21.5657 13.132C21.7897 13.916 22.0044 14.7093 22.2097 15.512C22.4337 16.296 22.6484 17.0893 22.8537 17.892H22.9937C23.1991 17.0893 23.4044 16.296 23.6097 15.512C23.8337 14.7093 24.0484 13.916 24.2537 13.132L26.5497 5.32H30.4977L25.2617 21H20.5017ZM39.5557 21.392C38.0997 21.392 36.7837 21.0653 35.6077 20.412C34.4317 19.7587 33.4891 18.816 32.7797 17.584C32.0891 16.352 31.7437 14.8773 31.7437 13.16C31.7437 11.8907 31.9397 10.752 32.3317 9.744C32.7424 8.736 33.2931 7.87733 33.9837 7.168C34.6931 6.44 35.4771 5.88933 36.3357 5.516C37.2131 5.124 38.1184 4.928 39.0517 4.928C40.4891 4.928 41.6931 5.25467 42.6637 5.908C43.6344 6.54267 44.3624 7.42933 44.8477 8.568C45.3517 9.688 45.6037 10.976 45.6037 12.432C45.6037 12.8053 45.5851 13.1693 45.5477 13.524C45.5104 13.86 45.4637 14.1307 45.4077 14.336H35.7477C35.8597 15.176 36.1117 15.8853 36.5037 16.464C36.8957 17.0427 37.3997 17.4813 38.0157 17.78C38.6317 18.06 39.3317 18.2 40.1157 18.2C40.7504 18.2 41.3477 18.116 41.9077 17.948C42.4677 17.7613 43.0371 17.4907 43.6157 17.136L45.0157 19.656C44.2504 20.1787 43.3917 20.5987 42.4397 20.916C41.4877 21.2333 40.5264 21.392 39.5557 21.392ZM35.6637 11.564H42.0757C42.0757 10.5187 41.8331 9.688 41.3477 9.072C40.8811 8.43733 40.1344 8.12 39.1077 8.12C38.5664 8.12 38.0531 8.25067 37.5677 8.512C37.0824 8.75467 36.6717 9.13733 36.3357 9.66C35.9997 10.164 35.7757 10.7987 35.6637 11.564ZM48.9933 21V5.32H52.3533L52.6613 7.392H52.7453C53.4359 6.72 54.1919 6.14133 55.0132 5.656C55.8346 5.17067 56.7773 4.928 57.8413 4.928C59.5399 4.928 60.7719 5.488 61.5373 6.608C62.3026 7.70933 62.6853 9.24933 62.6853 11.228V21H58.5693V11.732C58.5693 10.5187 58.3919 9.66933 58.0373 9.184C57.7013 8.69867 57.1413 8.456 56.3573 8.456C55.7226 8.456 55.1626 8.60533 54.6773 8.904C54.2106 9.20267 53.6879 9.64133 53.1093 10.22V21H48.9933ZM72.6708 21.392C71.4388 21.392 70.4401 21.1493 69.6748 20.664C68.9094 20.16 68.3588 19.4693 68.0228 18.592C67.6868 17.7147 67.5188 16.6973 67.5188 15.54V8.568H65.3068V5.516L67.7428 5.32L68.2188 1.092H71.6068V5.32H75.4988V8.568H71.6068V15.512C71.6068 16.408 71.7934 17.0707 72.1668 17.5C72.5401 17.9293 73.0721 18.144 73.7628 18.144C74.0241 18.144 74.2948 18.1067 74.5748 18.032C74.8548 17.9573 75.0974 17.8827 75.3028 17.808L76.0028 20.804C75.5734 20.9347 75.0788 21.0653 74.5188 21.196C73.9774 21.3267 73.3614 21.392 72.6708 21.392ZM82.7311 21.392C81.6857 21.392 80.6217 21.1867 79.5391 20.776C78.4751 20.3653 77.5511 19.8427 76.7671 19.208L78.6431 16.604C79.3337 17.1267 80.0151 17.5467 80.6871 17.864C81.3777 18.1627 82.0964 18.312 82.8431 18.312C83.6271 18.312 84.1964 18.1627 84.5511 17.864C84.9244 17.5467 85.1111 17.1453 85.1111 16.66C85.1111 16.268 84.9524 15.9413 84.6351 15.68C84.3177 15.4 83.9071 15.1573 83.4031 14.952C82.8991 14.728 82.3764 14.5133 81.8351 14.308C81.1817 14.0467 80.5284 13.7293 79.8751 13.356C79.2404 12.9827 78.7084 12.5067 78.2791 11.928C77.8497 11.3307 77.6351 10.5933 77.6351 9.716C77.6351 8.78267 77.8777 7.96133 78.3631 7.252C78.8484 6.524 79.5204 5.95467 80.3791 5.544C81.2564 5.13333 82.2924 4.928 83.4871 4.928C84.6257 4.928 85.6337 5.124 86.5111 5.516C87.4071 5.908 88.1724 6.356 88.8071 6.86L86.9591 9.352C86.3991 8.94133 85.8391 8.61467 85.2791 8.372C84.7377 8.12933 84.1777 8.008 83.5991 8.008C82.8711 8.008 82.3391 8.148 82.0031 8.428C81.6671 8.708 81.4991 9.072 81.4991 9.52C81.4991 9.89333 81.6391 10.2107 81.9191 10.472C82.1991 10.7147 82.5817 10.9293 83.0671 11.116C83.5524 11.3027 84.0657 11.4987 84.6071 11.704C85.1297 11.8907 85.6431 12.1147 86.1471 12.376C86.6697 12.6187 87.1457 12.9173 87.5751 13.272C88.0044 13.6267 88.3404 14.0653 88.5831 14.588C88.8444 15.092 88.9751 15.708 88.9751 16.436C88.9751 17.3507 88.7324 18.1907 88.2471 18.956C87.7804 19.7027 87.0804 20.3 86.1471 20.748C85.2324 21.1773 84.0937 21.392 82.7311 21.392Z" fill="#0B0E0F"/>
</svg>
