<svg width="65" height="16" viewBox="0 0 65 16" fill="none" xmlns="http://www.w3.org/2000/svg">
<rect width="65" height="16" rx="8" fill="#DE0D22"/>
<path d="M8.9279 9.6002H19.8839V10.5362H8.9279V9.6002ZM9.1799 3.5522H19.5839V4.5482H9.1799V3.5522ZM13.0199 8.3882L14.1359 8.6882C13.8719 9.1042 13.5839 9.5442 13.2719 10.0082C12.9679 10.4642 12.6639 10.9082 12.3599 11.3402C12.0639 11.7642 11.7879 12.1402 11.5319 12.4682L10.4399 12.1082C10.6959 11.7882 10.9759 11.4162 11.2799 10.9922C11.5919 10.5602 11.8999 10.1162 12.2039 9.6602C12.5079 9.2042 12.7799 8.78019 13.0199 8.3882ZM16.5599 9.94819L17.6639 10.2362C17.3839 10.9162 17.0119 11.4922 16.5479 11.9642C16.0839 12.4362 15.5199 12.8242 14.8559 13.1282C14.1999 13.4242 13.4319 13.6562 12.5519 13.8242C11.6719 14.0002 10.6719 14.1282 9.5519 14.2082C9.5199 14.0482 9.4599 13.8762 9.3719 13.6922C9.2919 13.5082 9.2079 13.3522 9.1199 13.2242C10.5119 13.1602 11.7039 13.0202 12.6959 12.8042C13.6879 12.5802 14.4999 12.2402 15.1319 11.7842C15.7639 11.3282 16.2399 10.7162 16.5599 9.94819ZM11.1719 12.0962L11.7479 11.2682C12.7079 11.4522 13.6639 11.6602 14.6159 11.8922C15.5759 12.1162 16.4759 12.3522 17.3159 12.6002C18.1639 12.8482 18.8919 13.0882 19.4999 13.3202L18.8159 14.2442C18.2239 13.9962 17.5199 13.7442 16.7039 13.4882C15.8959 13.2322 15.0199 12.9842 14.0759 12.7442C13.1319 12.5042 12.1639 12.2882 11.1719 12.0962ZM12.4079 3.92419H13.4879V8.08819H12.4079V3.92419ZM15.1799 3.92419H16.2479V8.08819H15.1799V3.92419ZM10.8239 6.3242V7.7402H18.0119V6.3242H10.8239ZM9.7679 5.41219H19.1399V8.6402H9.7679V5.41219ZM21.7199 9.6842H31.1159V10.6082H21.7199V9.6842ZM21.0599 3.7682H26.6039V4.57219H21.0599V3.7682ZM26.4359 11.3762H30.2519V12.2282H26.4359V11.3762ZM20.9519 13.0442H31.8839V13.9802H20.9519V13.0442ZM25.8239 10.0442H26.9399V13.5002H25.8239V10.0442ZM23.3399 3.07219H24.3359V9.3962H23.3399V3.07219ZM22.8359 11.0882H23.9159V13.5722H22.8359V11.0882ZM22.2839 5.79619V6.63619H25.4159V5.79619H22.2839ZM21.3719 5.08819H26.3639V7.34419H21.3719V5.08819ZM24.3479 7.2362C24.4519 7.2842 24.5999 7.35619 24.7919 7.45219C24.9839 7.5482 25.1879 7.6522 25.4039 7.7642C25.6279 7.8762 25.8319 7.9802 26.0159 8.0762C26.1999 8.1642 26.3359 8.2362 26.4239 8.2922L25.8599 9.0122C25.7479 8.9322 25.6039 8.8322 25.4279 8.7122C25.2519 8.5922 25.0599 8.46819 24.8519 8.34019C24.6519 8.21219 24.4559 8.09219 24.2639 7.98019C24.0799 7.86819 23.9239 7.77619 23.7959 7.70419L24.3479 7.2362ZM28.0079 3.07219L29.0279 3.31219C28.8279 4.00019 28.5479 4.65619 28.1879 5.28019C27.8279 5.9042 27.4279 6.4242 26.9879 6.84019C26.9399 6.76819 26.8679 6.6842 26.7719 6.5882C26.6839 6.4842 26.5919 6.3842 26.4959 6.28819C26.3999 6.18419 26.3119 6.10419 26.2319 6.0482C26.6479 5.69619 27.0039 5.26019 27.2999 4.74019C27.6039 4.22019 27.8399 3.66419 28.0079 3.07219ZM27.8999 4.36819H31.8359V5.2682H27.4439L27.8999 4.36819ZM30.0959 4.7762L31.1399 4.8842C30.8599 6.09219 30.3559 7.05619 29.6279 7.7762C28.8999 8.4962 27.9759 9.0602 26.8559 9.4682C26.8239 9.3882 26.7679 9.2962 26.6879 9.1922C26.6159 9.0882 26.5359 8.9842 26.4479 8.8802C26.3599 8.7762 26.2799 8.6962 26.2079 8.6402C27.2639 8.32819 28.1199 7.86419 28.7759 7.2482C29.4319 6.6242 29.8719 5.8002 30.0959 4.7762ZM28.0439 4.89619C28.2199 5.37619 28.4799 5.86019 28.8239 6.34819C29.1679 6.83619 29.6039 7.28019 30.1319 7.6802C30.6679 8.0802 31.3039 8.3842 32.0399 8.5922C31.9359 8.6962 31.8199 8.8402 31.6919 9.0242C31.5719 9.2002 31.4759 9.3562 31.4039 9.4922C30.6599 9.2202 30.0159 8.8602 29.4719 8.4122C28.9279 7.95619 28.4799 7.4602 28.1279 6.9242C27.7759 6.3882 27.5039 5.86019 27.3119 5.34019L28.0439 4.89619ZM23.2439 7.00819L23.9519 7.3202C23.7679 7.5762 23.5359 7.84019 23.2559 8.1122C22.9759 8.3842 22.6799 8.6362 22.3679 8.86819C22.0639 9.0922 21.7719 9.2802 21.4919 9.4322C21.4199 9.3202 21.3199 9.1962 21.1919 9.06019C21.0639 8.9162 20.9439 8.8002 20.8319 8.7122C21.1119 8.5922 21.4039 8.4442 21.7079 8.2682C22.0119 8.0842 22.2999 7.8842 22.5719 7.6682C22.8439 7.4442 23.0679 7.2242 23.2439 7.00819ZM38.3039 6.79219V8.1122H42.4079V6.79219H38.3039ZM38.3039 4.57219V5.8802H42.4079V4.57219H38.3039ZM37.2719 3.6002H43.4879V9.0842H37.2719V3.6002ZM37.1639 10.3202H43.6439V11.3522H37.1639V10.3202ZM36.2759 12.7922H44.0399V13.8242H36.2759V12.7922ZM32.8919 3.8282H36.7439V4.8842H32.8919V3.8282ZM33.0119 7.2962H36.5639V8.34019H33.0119V7.2962ZM32.7599 11.8682C33.0959 11.7802 33.4759 11.6722 33.8999 11.5442C34.3239 11.4162 34.7719 11.2762 35.2439 11.1242C35.7159 10.9722 36.1879 10.8202 36.6599 10.6682L36.8519 11.7482C36.1959 11.9722 35.5319 12.1962 34.8599 12.4202C34.1879 12.6442 33.5799 12.8482 33.0359 13.0322L32.7599 11.8682ZM34.3199 4.24819H35.3999V11.6522L34.3199 11.8442V4.24819ZM39.8879 4.0442H40.8599V8.61619H40.9439V13.2602H39.7919V8.61619H39.8879V4.0442ZM45.0239 7.4042H55.7639V8.4362H45.0239V7.4042ZM45.8039 5.19619H55.0799V6.2042H45.8039V5.19619ZM47.0879 9.6122H52.8119V10.6442H47.0879V9.6122ZM51.8999 5.62819C52.1479 6.30019 52.4719 6.93619 52.8719 7.53619C53.2719 8.1362 53.7399 8.6682 54.2759 9.1322C54.8119 9.5882 55.3959 9.9522 56.0279 10.2242C55.9479 10.2962 55.8599 10.3882 55.7639 10.5002C55.6679 10.6042 55.5759 10.7162 55.4879 10.8362C55.3999 10.9482 55.3279 11.0562 55.2719 11.1602C54.5999 10.8242 53.9839 10.3962 53.4239 9.8762C52.8719 9.3562 52.3839 8.7602 51.9599 8.08819C51.5359 7.41619 51.1839 6.68819 50.9039 5.90419L51.8999 5.62819ZM46.4759 3.6122L47.4239 3.25219C47.5679 3.43619 47.7039 3.63619 47.8319 3.85219C47.9679 4.06019 48.0879 4.26819 48.1919 4.47619C48.3039 4.67619 48.3879 4.85619 48.4439 5.01619L47.4359 5.41219C47.3559 5.17219 47.2239 4.88019 47.0399 4.53619C46.8559 4.19219 46.6679 3.88419 46.4759 3.6122ZM53.0759 3.20419L54.1919 3.56419C53.9999 3.90019 53.7959 4.23619 53.5799 4.57219C53.3719 4.90019 53.1759 5.1842 52.9919 5.4242L52.0319 5.08819C52.1519 4.91219 52.2759 4.7162 52.4039 4.5002C52.5319 4.28419 52.6559 4.06419 52.7759 3.84019C52.8959 3.6082 52.9959 3.39619 53.0759 3.20419ZM52.5119 9.6122H53.6639C53.6639 9.6122 53.6599 9.6722 53.6519 9.7922C53.6519 9.9042 53.6439 10.0002 53.6279 10.0802C53.5879 10.8642 53.5359 11.5082 53.4719 12.0122C53.4079 12.5082 53.3359 12.8962 53.2559 13.1762C53.1839 13.4482 53.0879 13.6482 52.9679 13.7762C52.8479 13.9122 52.7199 14.0042 52.5839 14.0522C52.4479 14.1082 52.2879 14.1482 52.1039 14.1722C51.9359 14.1882 51.7079 14.1962 51.4199 14.1962C51.1319 14.1962 50.8279 14.1882 50.5079 14.1722C50.4999 14.0122 50.4639 13.8322 50.3999 13.6322C50.3439 13.4322 50.2679 13.2602 50.1719 13.1162C50.4679 13.1402 50.7439 13.1562 50.9999 13.1642C51.2639 13.1722 51.4519 13.1762 51.5639 13.1762C51.6679 13.1762 51.7519 13.1682 51.8159 13.1522C51.8879 13.1282 51.9519 13.0922 52.0079 13.0442C52.0799 12.9642 52.1439 12.8082 52.1999 12.5762C52.2639 12.3442 52.3199 12.0002 52.3679 11.5442C52.4239 11.0882 52.4719 10.4962 52.5119 9.7682V9.6122ZM49.1639 9.9362H50.3399C50.2759 10.4562 50.1719 10.9402 50.0279 11.3882C49.8919 11.8282 49.6879 12.2282 49.4159 12.5882C49.1439 12.9402 48.7719 13.2522 48.2999 13.5242C47.8279 13.8042 47.2279 14.0402 46.4999 14.2322C46.4679 14.1362 46.4159 14.0282 46.3439 13.9082C46.2719 13.7882 46.1919 13.6722 46.1039 13.5602C46.0239 13.4482 45.9439 13.3522 45.8639 13.2722C46.5119 13.1282 47.0399 12.9522 47.4479 12.7442C47.8559 12.5282 48.1759 12.2802 48.4079 12.0002C48.6399 11.7122 48.8079 11.4002 48.9119 11.0642C49.0239 10.7202 49.1079 10.3442 49.1639 9.9362ZM49.6559 3.0482L50.8439 3.26419C50.6519 4.08819 50.4119 4.89219 50.1239 5.67619C49.8359 6.45219 49.4799 7.18419 49.0559 7.87219C48.6399 8.55219 48.1359 9.1722 47.5439 9.7322C46.9599 10.2922 46.2679 10.7762 45.4679 11.1842C45.4119 11.0882 45.3399 10.9842 45.2519 10.8722C45.1719 10.7602 45.0879 10.6522 44.9999 10.5482C44.9119 10.4362 44.8279 10.3402 44.7479 10.2602C45.4999 9.9002 46.1519 9.4642 46.7039 8.9522C47.2559 8.4402 47.7239 7.8722 48.1079 7.2482C48.4919 6.61619 48.8079 5.94819 49.0559 5.24419C49.3119 4.53219 49.5119 3.80019 49.6559 3.0482Z" fill="white"/>
</svg>
