<svg width="12" height="12" viewBox="0 0 12 12" fill="none" xmlns="http://www.w3.org/2000/svg">
<g clip-path="url(#clip0_3372_3194)">
<path d="M5.00098 6.49998C5.2157 6.78705 5.48966 7.02457 5.80425 7.19645C6.11885 7.36833 6.46673 7.47054 6.8243 7.49615C7.18187 7.52176 7.54077 7.47017 7.87665 7.34487C8.21253 7.21958 8.51753 7.02352 8.77098 6.76998L10.271 5.26998C10.7264 4.79848 10.9784 4.16697 10.9727 3.51148C10.967 2.85599 10.704 2.22896 10.2405 1.76544C9.777 1.30192 9.14997 1.03899 8.49448 1.0333C7.83899 1.0276 7.20748 1.27959 6.73598 1.73498L5.87598 2.58998" stroke="white" stroke-linecap="round" stroke-linejoin="round"/>
<path d="M7.0001 5.50011C6.78537 5.21305 6.51142 4.97552 6.19683 4.80364C5.88223 4.63176 5.53435 4.52955 5.17677 4.50395C4.8192 4.47834 4.46031 4.52993 4.12443 4.65522C3.78855 4.78051 3.48354 4.97658 3.2301 5.23011L1.7301 6.73011C1.2747 7.20162 1.02272 7.83312 1.02841 8.48862C1.03411 9.14411 1.29703 9.77114 1.76055 10.2347C2.22407 10.6982 2.85111 10.9611 3.5066 10.9668C4.16209 10.9725 4.79359 10.7205 5.2651 10.2651L6.1201 9.41011" stroke="white" stroke-linecap="round" stroke-linejoin="round"/>
</g>
<defs>
<clipPath id="clip0_3372_3194">
<rect width="12" height="12" fill="white"/>
</clipPath>
</defs>
</svg>
