<svg width="60" height="60" viewBox="0 0 60 60" fill="none" xmlns="http://www.w3.org/2000/svg">
<g clip-path="url(#clip0_1166_1058)">
<path d="M37.3867 19.3182L30.0004 11.9319L22.614 19.3182" stroke="white" stroke-width="1.36364" stroke-linecap="round" stroke-linejoin="round"/>
<path d="M30.0005 11.9318L30.0005 29.6591" stroke="white" stroke-width="1.36364" stroke-linecap="round" stroke-linejoin="round"/>
<path d="M18.3322 46.2273V34.4639H14.3742V32.6598H24.4808V34.4639H20.5045V46.2273H18.3322ZM29.2174 46.485C28.3829 46.485 27.5974 46.2764 26.8611 45.8591C26.137 45.4296 25.5479 44.8221 25.0938 44.0366C24.652 43.2389 24.4311 42.2816 24.4311 41.1648C24.4311 40.0357 24.652 39.0784 25.0938 38.293C25.5479 37.4952 26.137 36.8877 26.8611 36.4705C27.5974 36.0532 28.3829 35.8446 29.2174 35.8446C29.8311 35.8446 30.4263 35.9673 31.0031 36.2127C31.5799 36.4459 32.0892 36.7896 32.5311 37.2437C32.9729 37.6977 33.3227 38.2562 33.5804 38.9189C33.8381 39.5693 33.967 40.318 33.967 41.1648C33.967 42.2816 33.7399 43.2389 33.2858 44.0366C32.844 44.8221 32.2611 45.4296 31.537 45.8591C30.8252 46.2764 30.052 46.485 29.2174 46.485ZM29.2174 44.7177C29.7452 44.7177 30.1992 44.5705 30.5797 44.2759C30.9724 43.9814 31.2731 43.5702 31.4817 43.0425C31.6904 42.5025 31.7947 41.8766 31.7947 41.1648C31.7947 40.453 31.6904 39.8332 31.4817 39.3055C31.2731 38.7655 30.9724 38.3482 30.5797 38.0537C30.1992 37.7468 29.7452 37.5934 29.2174 37.5934C28.6774 37.5934 28.2111 37.7468 27.8183 38.0537C27.4379 38.3482 27.1433 38.7655 26.9347 39.3055C26.7261 39.8332 26.6217 40.453 26.6217 41.1648C26.6217 41.8766 26.7261 42.5025 26.9347 43.0425C27.1433 43.5702 27.4379 43.9814 27.8183 44.2759C28.2111 44.5705 28.6774 44.7177 29.2174 44.7177ZM36.4749 50.3325V36.0839H38.2054L38.3895 37.2068H38.4263C38.8804 36.8387 39.3713 36.5196 39.899 36.2496C40.4267 35.9796 40.979 35.8446 41.5558 35.8446C42.4027 35.8446 43.1267 36.0593 43.7281 36.4889C44.3295 36.9184 44.7836 37.5198 45.0904 38.293C45.3972 39.0539 45.5506 39.9559 45.5506 40.9991C45.5506 42.1527 45.342 43.1407 44.9247 43.963C44.5197 44.7852 43.9858 45.4112 43.3231 45.8407C42.6604 46.2702 41.9486 46.485 41.1877 46.485C40.7458 46.485 40.2979 46.3868 39.8438 46.1905C39.3897 45.9818 38.954 45.6934 38.5367 45.3252L38.592 47.0557V50.3325H36.4749ZM40.7827 44.6993C41.2736 44.6993 41.7092 44.5582 42.0897 44.2759C42.4824 43.9937 42.7892 43.5825 43.0102 43.0425C43.2433 42.4902 43.3599 41.8214 43.3599 41.0359C43.3599 40.3241 43.274 39.7166 43.1022 39.2134C42.9427 38.698 42.6911 38.3052 42.3474 38.0352C42.0038 37.753 41.5497 37.6118 40.9852 37.6118C40.5924 37.6118 40.1997 37.7162 39.807 37.9248C39.4265 38.1212 39.0215 38.428 38.592 38.8452V43.7973C38.9847 44.1287 39.3713 44.3618 39.7517 44.4968C40.1322 44.6318 40.4758 44.6993 40.7827 44.6993Z" fill="white"/>
</g>
<defs>
<clipPath id="clip0_1166_1058">
<rect width="60" height="60" fill="white"/>
</clipPath>
</defs>
</svg>
