<svg xmlns="http://www.w3.org/2000/svg" viewBox="0 0 890.528 163.524" width="890.528" height="163.524"><g stroke-miterlimit="10"><path fill="#0b0e0f" d="M305.283 111.857c5.427 6.866 9.813 15.865 6.122 24.573-6.546 15.443-26.945 20.286-41.63 23.152-31.666 6.18-64.948 3.115-96.695-1.11-23.821-3.172-47.522-8.196-70.185-16.28C29.624 116.051 6.743 93.872 1.014 76.944c-3.118-9.213 1.322-18.005 8.338-24 9.173-7.838 21.896-11.34 33.47-13.792 2.762-.585 5.543-1.007 8.332-1.425 4.729-.665 9.487-1.119 14.253-1.417 6.086-.38 12.187-.507 18.284-.44 7.522.08 15.039.454 22.537 1.053 9.036.721 18.043 1.77 27.013 3.068 10.625 1.538 21.197 3.431 31.71 5.6 11.566 2.384 23.062 5.102 34.487 8.085-1.984-.458-3.978-.88-5.971-1.299a645 645 0 0 0-16.122-3.16 707 707 0 0 0-23.592-3.919 617 617 0 0 0-28.383-3.573c-10.14-1.029-20.31-1.782-30.495-2.125-9.972-.337-19.971-.29-29.926.426-12.188.878-24.165 2.854-35.736 6.902-7.892 2.761-17.527 7.23-21.131 15.385-2.771 6.27-.42 12.984 3.234 18.342 5.1 7.48 12.498 13.35 19.915 18.39 7.893 5.364 16.348 9.951 25.047 13.865 33.369 15.135 70.757 23.5 106.775 29.224 20.47 3.254 41.176 5.606 61.93 5.413 18.86-.175 43.46-.962 60.02-11.189 4.297-2.654 7.969-6.723 8.996-11.667.763-3.673.019-7.507-1.23-11.043-4.17-11.804-13.576-20.87-22.672-29.472 20.58 8.638 35.186 27.677 35.186 27.68"/><path fill="#de0d22" d="M377.883 42.583C366.45 74.648 536.606 7.604 483.523 28.89 452.876 41.18 22.06 159.282 22.06 159.282L162.915 45.173a1189 1189 0 0 1 39.82 9.033c-13.772 3.523-46.792 22.166-46.792 22.166-68.825 44.105-5.855 42.566-5.855 42.566C257.608 110.308 427.19-1.587 425.254.018c.002 0-42.137 27.884-47.371 42.565M630.116 90.104l-70.44 72.4h-22.902l69.39-72.4z"/><path fill="#0b0e0f" d="m590.788 14.533-88.616 90.575H479.27l87.568-90.575zM611.768 93.096h-73.484V76.44h73.413c7.93-.122 34.2-.013 34.2 32.333v53.765H628.56v-53.765h.027c0-15.62-16.82-15.677-16.82-15.677M611.283 51.801h66.15v16.656h-66.08c-7.93.122-34.2.013-34.2-32.333v.08h17.338v-.08h-.027c0 15.62 16.819 15.676 16.819 15.677"/><path fill="#de0d22" d="m745.888 111.81-49.756 51.714H677.07l48.708-51.715z"/><path fill="#0b0e0f" d="m745.579 111.766 18.989 21.997h-19.061l-20.037-21.997zM873.218 129.793h-.027V79.985h17.337v49.808c0 32.346-26.27 32.455-34.2 32.333h-91.76V145.47h91.83s16.82-.057 16.82-15.677M762.725 24.37l-48.146 44.247h-23.834L737.8 24.37z"/><path fill="#de0d22" d="m890.523 23.855-59.932 61.7h-20.658l58.987-61.7z"/><path fill="#0b0e0f" d="M831.63 79.778H859v16.656h-27.3c-7.93.122-34.2.013-34.2-32.333V23.855h17.338v40.246h-.027c0 15.62 16.82 15.677 16.819 15.677M790.732 96.957h-17.556V46.551l17.556-16.196zM745.823 111.766h-20.326V67.35l20.39-19.03z"/><path fill="#de0d22" d="M767.267 96.863h-53.035V80.078h53.035z"/></g></svg>
