<svg xmlns="http://www.w3.org/2000/svg" viewBox="0 0 411.258 148.991" width="411.258" height="148.991"><g stroke-miterlimit="10"><path fill="#de0d22" d="m150.846 75.571-70.44 72.399H57.504l69.391-72.399z"/><path fill="#0b0e0f" d="M111.518 0 22.902 90.575H0L87.568 0zM132.498 78.563H59.014V61.907h73.413c7.931-.122 34.2-.013 34.2 32.333v53.765H149.29V94.24h.027c0-15.62-16.819-15.677-16.819-15.677M132.013 37.268h66.15v16.656h-66.079c-7.931.122-34.2.013-34.2-32.333v.079h17.337v-.079h-.027c0 15.619 16.819 15.676 16.819 15.677"/><path fill="#de0d22" d="m266.618 97.276-49.756 51.715h-19.061l48.708-51.715z"/><path fill="#0b0e0f" d="m266.309 97.233 18.989 21.997h-19.061L246.2 97.233zM393.948 115.26h-.027V65.452h17.337v49.808c0 32.346-26.269 32.455-34.2 32.333h-91.759v-16.656h91.83c-.001 0 16.819-.057 16.819-15.677M283.455 9.837l-48.146 44.247h-23.834L258.53 9.837z"/><path fill="#de0d22" d="m411.253 9.322-59.932 61.7h-20.658l58.987-61.7z"/><path fill="#0b0e0f" d="M352.36 65.245h27.37v16.656h-27.299c-7.931.122-34.2.013-34.2-32.333V9.322h17.337v40.246h-.027c0 15.62 16.82 15.677 16.819 15.677M311.462 82.424h-17.556V32.018l17.556-16.196zM266.553 97.233h-20.326V52.816l20.391-19.031z"/><path fill="#de0d22" d="M287.998 82.33h-53.035V65.545h53.035z"/></g></svg>
