<svg width="403" height="74" viewBox="0 0 403 74" fill="none" xmlns="http://www.w3.org/2000/svg">
<g>
<path d="M122.019 38.0952C126.13 41.9871 130.376 46.0916 132.26 51.4317C132.825 53.0337 133.159 54.7669 132.816 56.4277C132.351 58.6633 130.693 60.5052 128.75 61.7089C121.269 66.3385 110.156 66.6914 101.636 66.7729C92.2574 66.8589 82.906 65.7954 73.6586 64.3246C57.3864 61.7361 40.4952 57.9483 25.4247 51.1013C21.4944 49.3319 17.6771 47.2547 14.1082 44.829C10.7562 42.5482 7.41773 39.8918 5.10926 36.5068C3.46035 34.0811 2.39873 31.0446 3.65009 28.2071C5.27641 24.5143 9.63133 22.496 13.1957 21.247C18.4225 19.4142 23.8345 18.5227 29.3414 18.1244C33.8409 17.7986 38.3539 17.7805 42.8624 17.9298C47.4658 18.0837 52.0602 18.4276 56.6365 18.8937C60.9236 19.3282 65.1972 19.8758 69.4573 20.5093C73.0216 21.0388 76.5724 21.6316 80.1142 22.2833C82.5491 22.7313 84.9751 23.202 87.3965 23.7133C88.2955 23.9034 89.199 24.0935 90.0935 24.3017C84.9299 22.9531 79.7392 21.7221 74.5124 20.6406C69.7645 19.6585 64.9849 18.8032 60.1873 18.1063C56.135 17.518 52.0647 17.0428 47.9853 16.717C44.5972 16.4455 41.2 16.278 37.8028 16.2418C35.0471 16.2102 32.2914 16.269 29.5447 16.441C27.3898 16.5767 25.244 16.7804 23.1072 17.0836C21.8468 17.2736 20.5909 17.4637 19.3441 17.7307C14.1127 18.8394 8.36641 20.4233 4.22382 23.9713C1.0525 26.6866 -0.953298 30.6644 0.456178 34.8323C3.04474 42.4939 13.3809 52.5313 46.481 64.3608C56.7178 68.0219 67.4244 70.2937 78.1897 71.7283C92.5329 73.6425 107.567 75.0273 121.874 72.2306C128.511 70.9318 137.722 68.7415 140.681 61.7542C142.348 57.8125 140.369 53.7396 137.916 50.6352C137.916 50.6352 131.316 42.0187 122.019 38.1088V38.0952Z" fill="#0B0E0F"/>
<path d="M170.709 19.2693C165.546 33.7778 242.412 3.43929 218.433 13.074C204.587 18.6357 9.96582 72.0812 9.96582 72.0812L73.5956 20.4414C75.8905 20.9211 78.208 21.4234 80.5435 21.9438C84.2931 22.781 87.9704 23.6454 91.5844 24.5278C85.3638 26.1208 70.4468 34.5607 70.4468 34.5607C39.3525 54.5225 67.804 53.8255 67.804 53.8255C116.377 49.9201 192.985 -0.719589 192.114 0.00900673C192.114 0.00900673 173.077 12.6259 170.714 19.2693H170.709Z" fill="#DE0D22"/>
<path d="M273.836 40.7742L242.489 73.5384H252.838L284.656 40.7742H273.836Z" fill="#DE0D22"/>
<path d="M256.073 6.57544L216.513 47.5669H226.858L266.892 6.57544H256.073Z" fill="#0B0E0F"/>
<path d="M283.969 49.2232H283.955V73.5565H291.789V49.2232C291.789 34.5834 279.921 34.5337 276.339 34.5925H243.175V42.1319C252.92 42.1319 283.969 42.1319 276.37 42.1319C276.37 42.1319 283.969 42.159 283.969 49.2278V49.2232Z" fill="#0B0E0F"/>
<path d="M268.55 16.3458H268.564V16.382H260.73V16.3458C260.73 30.9856 272.598 31.0354 276.18 30.9766H306.032V23.4372C296.288 23.4372 268.55 23.4372 276.149 23.4372C276.149 23.4372 268.55 23.41 268.55 16.3413V16.3458Z" fill="#0B0E0F"/>
<path d="M327.875 50.599L305.87 74.0001H314.48L336.96 50.599H327.875Z" fill="#DE0D22"/>
<path d="M336.82 50.5763L345.399 60.5323H336.788L327.735 50.5763H336.82Z" fill="#0B0E0F"/>
<path d="M394.482 58.7357H394.468V36.1945H402.302V58.7357C402.302 73.3755 390.434 73.4253 386.852 73.3664H345.398V65.827C355.143 65.827 394.482 65.827 386.883 65.827C386.883 65.827 394.482 65.7999 394.482 58.7311V58.7357Z" fill="#0B0E0F"/>
<path d="M333.305 11.0284L312.045 31.0535H322.815L344.563 11.0284H333.305Z" fill="#0B0E0F"/>
<path d="M392.539 10.7932L365.89 38.7152H375.223L402.297 10.7932H392.539Z" fill="#DE0D22"/>
<path d="M368.095 29.0081H368.108V10.7932H360.275V29.0081C360.275 43.6479 372.143 43.6977 375.725 43.6389H388.058V36.0995C378.313 36.0995 368.095 36.0995 375.693 36.0995C375.693 36.0995 368.095 36.0723 368.095 29.0036V29.0081Z" fill="#0B0E0F"/>
<path d="M357.217 43.8787H349.284V21.066L357.217 13.7347V43.8787Z" fill="#0B0E0F"/>
<path d="M336.928 50.5763H327.749V30.4789L336.96 21.8669L336.928 50.5763Z" fill="#0B0E0F"/>
<path d="M322.657 36.2351V43.8334H346.618V36.2351H322.657Z" fill="#DE0D22"/>
</g>
</svg>
