<svg width="300" height="199" viewBox="0 0 300 199" fill="none" xmlns="http://www.w3.org/2000/svg">
<g clip-path="url(#clip0_27_562)">
<path d="M296.685 161.857L299.365 145.442L298.321 145.65L296.685 145.963L299.365 129.513L298.321 129.722L296.685 130.035L299.365 113.585L298.321 113.794L296.755 114.072L298.982 96.7178L297.938 96.9612L295.954 97.4133L295.884 78.2158L294.875 78.5288L292.369 79.3635L288.017 59.6791L287.112 60.1312L284.571 61.4528L274.024 41.7337L273.258 42.4292L270.96 44.5159L257.35 27.6485L256.758 28.4484L254.809 30.9872L239.283 17.0065L238.796 17.7716L237.125 20.3452L218.815 7.68595L218.432 8.45107L217.11 11.0246L196.815 0L196.537 0.799895L188.496 23.197C176.173 20.8321 163.119 19.58 149.683 19.58C136.246 19.58 123.192 20.8321 110.87 23.197L102.515 0L101.715 0.417337L82.2211 11.0246L80.5154 7.65117L79.7496 8.17284L62.1706 20.3104L60.0124 16.9717L59.3162 17.5977L44.4872 30.9177L41.946 27.579L41.3195 28.3441L28.3354 44.4463L25.3069 41.6641L24.8544 42.5336L14.7943 61.3833L11.3481 59.6096L11.1393 60.5138L6.96208 79.2939L3.48109 78.1811V79.1201L3.41147 97.3785L0.383011 96.7178L0.522251 97.6568L2.64566 114.072L0.0349121 113.585L0.208962 114.524L2.71528 130.035L0.0349121 129.513L0.208962 130.452L2.71528 145.929L0.0349121 145.407L0.208962 146.346L2.71528 161.822L0.0349121 161.335L3.96843 181.402H4.59501H20.6076V198.304V198.965H21.3734H278.862V192.983C278.862 192.983 278.862 188.532 278.862 181.402H295.501L295.606 180.846L299.435 161.335L296.755 161.822L296.685 161.857ZM294.179 180.116H278.793V166.448L297.52 163.04L294.179 180.116ZM5.18678 180.116L1.84503 163.04L20.5728 166.448V180.116H5.18678ZM30.5284 71.0516C27.8828 75.4684 25.7246 80.0938 24.0886 84.9628L8.38929 79.7808L12.3924 61.6963L30.5284 71.0516ZM16.0823 62.044L25.7594 43.9942L40.7973 57.6968C37.1771 61.5224 33.9398 65.5914 31.2246 69.9039L16.1867 62.1831L16.0823 62.0788V62.044ZM283.283 62.044L283.179 62.1484L268.141 69.9039C265.426 65.5914 262.188 61.4876 258.603 57.6968L273.676 43.9942L283.318 62.044H283.283ZM286.973 61.731L290.976 79.8156L275.277 84.9976C273.641 80.1286 271.483 75.5031 268.837 71.1211L286.973 61.7658V61.731ZM22.0348 106.664C22.0348 104.821 22.1392 103.013 22.2436 101.204L32.8259 101.9C32.6866 103.499 32.617 105.099 32.617 106.769V111.429H22V106.769C22 106.769 22 106.664 22 106.63L22.0348 106.664ZM201.55 37.3168C198.347 36.3778 195.04 35.5084 191.698 34.7433L194.344 25.7358C197.964 26.5704 201.515 27.4747 204.996 28.518L201.55 37.3168ZM206.388 28.9701C209.939 30.0482 213.42 31.2655 216.761 32.5523L212.41 41.0381C209.347 39.8556 206.179 38.7775 202.907 37.769L206.353 28.9701H206.388ZM218.154 33.1087C221.6 34.465 224.942 35.9605 228.179 37.5603L222.923 45.6288C219.999 44.1681 216.97 42.8466 213.837 41.5945L218.189 33.1087H218.154ZM229.467 38.1863C232.739 39.8556 235.837 41.5945 238.866 43.4726C238.866 43.5073 238.935 43.5073 238.97 43.5421L232.704 51.0542C230.024 49.3501 227.17 47.7503 224.211 46.2548L229.467 38.1863ZM277.296 106.664V106.873C277.296 108.786 277.296 110.733 277.296 112.785H266.714V106.803C266.714 105.517 266.644 104.23 266.574 102.978L277.157 102.317C277.226 103.743 277.296 105.204 277.296 106.664ZM266.714 155.249V145.963H277.296V155.249H266.714ZM266.714 144.642V135.356H277.296V144.642H266.714ZM266.714 134.035V124.749H277.296V134.035H266.714ZM266.714 123.393V114.107H277.296V123.393H266.714ZM266.47 101.656C266.226 98.5262 265.704 95.5353 265.008 92.6139L275.346 90.5968C276.182 93.9703 276.774 97.4481 277.052 101.03L266.47 101.656ZM264.695 91.3619C263.929 88.4754 262.989 85.7279 261.805 83.05L271.657 79.6417C273.049 82.7718 274.163 86.0061 275.033 89.3448L264.695 91.3619ZM261.249 81.8327C259.995 79.1548 258.533 76.5465 256.897 74.0425L266.017 69.3474C267.932 72.2688 269.638 75.2945 271.1 78.4245L261.249 81.8327ZM256.131 72.9296C254.426 70.4603 252.581 68.0606 250.457 65.7653L258.707 59.9226C261.109 62.5657 263.267 65.3132 265.252 68.1998L256.131 72.9296ZM249.552 64.7567C247.429 62.5309 245.166 60.4095 242.695 58.3923L249.97 51.6106C252.755 53.9408 255.366 56.3752 257.768 58.9488L249.552 64.7915V64.7567ZM241.651 57.4881C239.214 55.5405 236.638 53.6625 233.923 51.8541L240.154 44.342C243.217 46.3244 246.141 48.411 248.891 50.6716L241.651 57.4533V57.4881ZM265.217 106.803C265.217 133.548 265.217 172.36 265.217 187.071H166.009C165.904 183.941 165.835 179.107 165.835 176.394C165.835 174.621 166.043 164.222 167.331 161.683C169.35 157.475 174.259 154.206 179.515 151.771L202.837 157.788L206.667 146.346L198.765 144.329C199.287 144.051 199.879 143.842 200.401 143.564C205.1 141.164 209.312 138.834 212.48 135.495C213.837 134.069 215.125 132.226 217.075 129.27C219.755 125.201 220.173 119.219 220.416 116.298C220.625 113.55 220.869 110.803 220.869 108.055C220.869 106.977 220.869 105.934 220.73 104.856C220.138 97.8307 219.268 90.2143 213.629 84.302C210.67 81.172 206.98 78.7375 203.081 76.7551L221.53 72.6166L218.223 61.2094H217.632H217.527L184.876 68.5823C182.752 67.4694 180.768 66.2522 178.645 65.0697C174.781 62.9483 167.679 57.3838 164.233 51.2281C162.005 47.2981 160.857 43.2987 160.543 38.9862C160.439 37.3864 160.335 34.2564 160.335 31.8219C188.183 33.2826 213.315 40.4816 231.765 52.1671C252.616 65.348 265.112 83.6412 265.182 106.838L265.217 106.803ZM130.92 137.86L96.0755 128.818V89.9013L125.559 83.2587V82.0066L79.6452 71.6428L82.2907 62.6005L144.426 76.5813V51.6802H155.009V76.5813L217.179 62.6005L219.825 71.6428L173.876 82.0066V83.2587L203.325 89.9013V128.818L168.515 137.825L204.856 147.215L201.863 156.119L155.009 144.016V161.822H144.426V144.016L97.5723 156.119L94.5786 147.181L130.955 137.791L130.92 137.86ZM138.787 38.9514C138.474 43.2987 137.325 47.2634 135.097 51.1933C131.616 57.3142 124.55 62.8787 120.686 65.035C118.563 66.2174 116.544 67.4346 114.455 68.5475L81.1768 61.0355L77.8003 72.5818L96.2495 76.7204C92.316 78.7027 88.661 81.1372 85.7021 84.2672C80.0629 90.1795 79.1927 97.7959 78.6009 104.821C78.4965 105.864 78.4616 106.942 78.4616 108.021C78.4616 110.768 78.7053 113.516 78.949 116.263C79.1927 119.184 79.6104 125.166 82.2907 129.235C84.2749 132.226 85.5281 134.035 86.9205 135.461C90.0882 138.799 94.3002 141.129 98.9995 143.529C99.5216 143.807 100.079 144.051 100.636 144.294L92.7337 146.311L96.5628 157.753L119.885 151.737C125.142 154.171 130.05 157.44 132.069 161.648C133.357 164.187 133.566 174.586 133.566 176.359C133.566 179.072 133.496 183.941 133.392 187.036H34.1486C34.1486 172.534 34.1486 134.626 34.1486 106.769C34.2182 83.5717 46.715 65.3132 67.5661 52.0975C86.0502 40.4469 111.183 33.213 139.031 31.7524C139.031 34.1868 138.926 37.3168 138.822 38.9166L138.787 38.9514ZM98.4773 37.143L95.066 28.3441C98.547 27.3008 102.132 26.4313 105.753 25.5966L108.329 34.6389C104.952 35.4041 101.68 36.2387 98.4773 37.1777V37.143ZM97.0501 37.5603C93.778 38.5689 90.6103 39.647 87.5122 40.7947L83.2654 32.274C86.642 30.9872 90.123 29.8048 93.6736 28.7267L97.0849 37.5255L97.0501 37.5603ZM86.1894 41.3511C83.0217 42.6031 79.9933 43.9247 77.0692 45.3506L71.8478 37.2473C75.0851 35.6475 78.4268 34.1868 81.9078 32.8305L86.1894 41.3511ZM75.7813 45.9766C72.7876 47.472 69.9332 49.037 67.2529 50.7064L61.0567 43.1596C64.0852 41.2815 67.2877 39.5079 70.5946 37.8385L75.8161 45.9418L75.7813 45.9766ZM65.9997 51.4715C63.2497 53.2452 60.6738 55.0884 58.2023 57.036L50.9966 50.1847C53.7814 47.9589 56.7055 45.8722 59.8035 43.8899L65.9997 51.4367V51.4715ZM57.1232 57.975C54.6517 59.9921 52.389 62.1136 50.2308 64.3046L42.0505 58.3923C44.4872 55.8188 47.0979 53.3843 49.9175 51.089L57.1232 57.9402V57.975ZM41.1106 59.4009L49.2909 65.3132C47.2023 67.5738 45.2878 69.9734 43.5473 72.4079L34.4967 67.6433C36.4809 64.7915 38.7087 62.0093 41.1454 59.4009H41.1106ZM33.7309 68.7562L42.8163 73.5556C41.1454 76.0248 39.6486 78.6332 38.3954 81.3111L28.579 77.8333C30.0759 74.7032 31.8164 71.7123 33.7309 68.791V68.7562ZM37.7689 82.4935C36.5853 85.1367 35.6106 87.9189 34.81 90.7359L24.4715 88.6492C25.3765 85.3453 26.5253 82.111 27.9525 78.9809L37.7689 82.4935ZM24.1582 89.936L34.4967 92.0227C33.8005 94.805 33.2784 97.6915 32.9999 100.613L22.4177 99.8826C22.7658 96.4743 23.3576 93.1356 24.193 89.9013L24.1582 89.936ZM32.6518 112.75V123.393H22.0348V112.75H32.6518ZM32.6518 124.714V134H22.0348V124.714H32.6518ZM32.6518 135.321V144.607H22.0348V135.321H32.6518ZM32.6518 145.929V155.214H22.0348V145.929H32.6518ZM32.6518 156.536V165.822H22.0348V156.536H32.6518ZM32.6518 167.143V176.464H22.0348V167.143H32.6518ZM266.714 167.143H277.296V176.464H266.714V167.143ZM266.714 165.857V156.571H277.296V165.857H266.714ZM178.714 32.3088C175.338 31.8219 171.926 31.4046 168.48 31.0568L169.559 21.8058C173.249 22.1536 176.939 22.6057 180.524 23.1274L178.679 32.274L178.714 32.3088ZM167.018 30.9525C163.642 30.6742 160.161 30.4656 156.68 30.3265L157.028 21.0059C160.752 21.1451 164.442 21.3537 168.062 21.6667L166.983 30.9177L167.018 30.9525ZM143.382 30.2917C139.901 30.4308 136.455 30.6395 133.044 30.8829L131.999 21.6319C135.654 21.3189 139.309 21.1103 143.034 21.0059L143.347 30.2917H143.382ZM131.547 30.9872C128.066 31.3002 124.689 31.7176 121.313 32.2045L119.537 23.0231C123.158 22.5014 126.813 22.0493 130.537 21.7363L131.582 30.9872H131.547ZM22.0348 188.393H32.6518V197.713H22.0348V188.393ZM34.1486 188.358H44.8701V197.678H34.1486V188.358ZM46.3669 188.358H57.1232V197.678H46.3669V188.358ZM58.62 188.358H69.3763V197.678H58.62V188.358ZM70.8731 188.358H81.6293V197.678H70.8731V188.358ZM83.0914 188.358H93.8476V197.678H83.0914V188.358ZM95.3445 188.358H106.101V197.678H95.3445V188.358ZM107.598 188.358H118.354V197.678H107.598V188.358ZM119.816 188.358H130.572V197.678H119.816V188.358ZM132.069 188.358H142.825V197.678H132.069V188.358ZM144.322 188.358H155.043V197.678H144.322V188.358ZM156.54 188.358H167.297V197.678H156.54V188.358ZM168.793 188.358H179.55V197.678H168.793V188.358ZM181.046 188.358H191.803V197.678H181.046V188.358ZM193.265 188.358H204.021V197.678H193.265V188.358ZM205.518 188.358H216.274V197.678H205.518V188.358ZM217.771 188.358H228.492V197.678H217.771V188.358ZM229.989 188.358H240.745V197.678H229.989V188.358ZM242.242 188.358H252.999V197.678H242.242V188.358ZM254.461 188.358H265.217V197.678H254.461V188.358ZM278.793 165.126V150.728L297.555 147.111L295.119 162.135L278.793 165.126ZM278.793 149.406V134.8L297.555 131.183L295.119 146.242L278.793 149.372V149.406ZM278.793 133.478V118.871L297.555 115.289L295.119 130.348L278.793 133.478ZM278.793 117.55V106.803C278.793 106.803 278.793 106.699 278.793 106.664C278.793 105.273 278.723 103.917 278.619 102.595L297.207 98.4914L295.153 114.455L278.758 117.585L278.793 117.55ZM278.584 101.239C278.166 96.057 277.191 91.0489 275.695 86.2496L294.388 80.0591L294.457 97.7263L278.584 101.239ZM257.593 56.723C253.834 52.8626 249.622 49.3153 245.062 46.0461L257.419 29.9439L269.951 45.4549L257.593 56.723ZM243.913 45.1767C242.556 44.2377 241.128 43.2987 239.701 42.4292C236.185 40.2034 232.461 38.1863 228.597 36.2735L239.632 19.1627L253.973 32.0654L243.913 45.1767ZM227.274 35.6127C221.739 32.9696 215.891 30.6047 209.765 28.5876L219.442 9.70308L236.429 21.4581L227.309 35.5779L227.274 35.6127ZM208.372 28.1702C202.489 26.327 196.328 24.7272 189.958 23.4752L197.686 1.98235L216.518 12.2071L208.372 28.1354V28.1702ZM192.882 25.4228L190.271 34.4303C186.964 33.6999 183.588 33.0739 180.211 32.5523L182.056 23.4056C185.746 23.9969 189.366 24.6576 192.917 25.4228H192.882ZM155.218 30.2917C153.407 30.2221 151.597 30.1873 149.752 30.1873H149.683C149.683 30.1873 149.683 30.1873 149.648 30.1873C148.047 30.1873 146.445 30.2221 144.879 30.2569L144.566 20.9712C146.271 20.9016 148.012 20.9016 149.718 20.9016C151.702 20.9016 153.651 20.9016 155.6 20.9712L155.252 30.2917H155.218ZM119.851 32.4479C116.439 32.9696 113.063 33.5956 109.791 34.2912L107.215 25.2836C110.765 24.5185 114.42 23.823 118.075 23.3013L119.851 32.4827V32.4479ZM91.028 28.1702L82.8477 12.2419L101.715 2.01713L109.442 23.51C103.072 24.762 96.9457 26.327 91.0628 28.205L91.028 28.1702ZM89.6008 28.6223C83.4743 30.6047 77.6262 32.9696 72.0914 35.6475L62.9712 21.5276L79.9585 9.77263L89.6356 28.6571L89.6008 28.6223ZM70.7687 36.2735C66.9048 38.1863 63.1801 40.2034 59.6295 42.4292C58.2023 43.3334 56.8099 44.2377 55.4175 45.1767L45.3574 32.0654L59.6991 19.1627L70.7338 36.2735H70.7687ZM54.2688 46.0461C49.7087 49.2805 45.5315 52.8626 41.7372 56.723L29.3797 45.4897L41.9112 29.9787L54.2688 46.0809V46.0461ZM23.6708 86.2496C22.174 91.0142 21.1993 96.0222 20.7816 101.239L4.9083 97.7263L4.97792 80.0591L23.6708 86.2496ZM20.712 102.595C20.6424 103.917 20.5728 105.308 20.5728 106.664C20.5728 106.699 20.5728 106.769 20.5728 106.838V117.55L4.17729 114.42L2.12351 98.4567L20.712 102.56V102.595ZM20.5728 118.871V133.478L4.28172 130.348L1.84503 115.289L20.6076 118.871H20.5728ZM20.5728 134.8V149.406L4.28172 146.276L1.84503 131.218L20.6076 134.835L20.5728 134.8ZM20.5728 150.728C20.5728 155.701 20.5728 160.535 20.5728 165.126L4.24691 162.135L1.81022 147.111L20.5728 150.728ZM22.0348 177.751H32.6518V187.071H22.0348V177.751ZM277.296 197.713H266.714V188.393H277.296V193.053V197.748V197.713ZM266.714 187.071V177.751H277.296V187.071H266.714Z" fill="#384A9D"/>
<path d="M144.391 88.6493L143.452 88.858L106.657 97.1699V104.821H144.391V88.6493Z" fill="#384A9D"/>
<path d="M192.708 121.897V114.107H154.974V131.635L155.948 131.391L192.708 121.897Z" fill="#384A9D"/>
<path d="M192.708 104.16V97.1699L154.974 88.6493V104.821H192.708V104.16Z" fill="#384A9D"/>
<path d="M144.391 114.107H106.657V114.768V121.897L144.391 131.67V114.107Z" fill="#384A9D"/>
<path d="M296.685 161.857L299.365 145.442L298.321 145.65L296.685 145.963L299.365 129.513L298.321 129.722L296.685 130.035L299.365 113.585L298.321 113.794L296.755 114.072L298.982 96.7178L297.938 96.9612L295.954 97.4133L295.884 78.2158L294.875 78.5288L292.369 79.3635L288.017 59.6791L287.112 60.1312L284.571 61.4528L274.024 41.7337L273.258 42.4292L270.96 44.5159L257.35 27.6485L256.758 28.4484L254.809 30.9872L239.283 17.0065L238.796 17.7716L237.125 20.3452L218.815 7.68595L218.432 8.45107L217.11 11.0246L196.815 0L196.537 0.799895L188.496 23.197C176.173 20.8321 163.119 19.58 149.683 19.58C136.246 19.58 123.192 20.8321 110.87 23.197L102.515 0L101.715 0.417337L82.2211 11.0246L80.5154 7.65117L79.7496 8.17284L62.1706 20.3104L60.0124 16.9717L59.3162 17.5977L44.4872 30.9177L41.946 27.579L41.3195 28.3441L28.3354 44.4463L25.3069 41.6641L24.8544 42.5336L14.7943 61.3833L11.3481 59.6096L11.1393 60.5138L6.96208 79.2939L3.48109 78.1811V79.1201L3.41147 97.3785L0.383011 96.7178L0.522251 97.6568L2.64566 114.072L0.0349121 113.585L0.208962 114.524L2.71528 130.035L0.0349121 129.513L0.208962 130.452L2.71528 145.929L0.0349121 145.407L0.208962 146.346L2.71528 161.822L0.0349121 161.335L3.96843 181.402H4.59501H20.6076V198.304V198.965H21.3734H278.862V192.983C278.862 192.983 278.862 188.532 278.862 181.402H295.501L295.606 180.846L299.435 161.335L296.755 161.822L296.685 161.857ZM294.179 180.116H278.793V166.448L297.52 163.04L294.179 180.116ZM5.18678 180.116L1.84503 163.04L20.5728 166.448V180.116H5.18678ZM30.5284 71.0516C27.8828 75.4684 25.7246 80.0938 24.0886 84.9628L8.38929 79.7808L12.3924 61.6963L30.5284 71.0516ZM16.0823 62.044L25.7594 43.9942L40.7973 57.6968C37.1771 61.5224 33.9398 65.5914 31.2246 69.9039L16.1867 62.1831L16.0823 62.0788V62.044ZM283.283 62.044L283.179 62.1484L268.141 69.9039C265.426 65.5914 262.188 61.4876 258.603 57.6968L273.676 43.9942L283.318 62.044H283.283ZM286.973 61.731L290.976 79.8156L275.277 84.9976C273.641 80.1286 271.483 75.5031 268.837 71.1211L286.973 61.7658V61.731ZM22.0348 106.664C22.0348 104.821 22.1392 103.013 22.2436 101.204L32.8259 101.9C32.6866 103.499 32.617 105.099 32.617 106.769V111.429H22V106.769C22 106.769 22 106.664 22 106.63L22.0348 106.664ZM201.55 37.3168C198.347 36.3778 195.04 35.5084 191.698 34.7433L194.344 25.7358C197.964 26.5704 201.515 27.4747 204.996 28.518L201.55 37.3168ZM206.388 28.9701C209.939 30.0482 213.42 31.2655 216.761 32.5523L212.41 41.0381C209.347 39.8556 206.179 38.7775 202.907 37.769L206.353 28.9701H206.388ZM218.154 33.1087C221.6 34.465 224.942 35.9605 228.179 37.5603L222.923 45.6288C219.999 44.1681 216.97 42.8466 213.837 41.5945L218.189 33.1087H218.154ZM229.467 38.1863C232.739 39.8556 235.837 41.5945 238.866 43.4726C238.866 43.5073 238.935 43.5073 238.97 43.5421L232.704 51.0542C230.024 49.3501 227.17 47.7503 224.211 46.2548L229.467 38.1863ZM277.296 106.664V106.873C277.296 108.786 277.296 110.733 277.296 112.785H266.714V106.803C266.714 105.517 266.644 104.23 266.574 102.978L277.157 102.317C277.226 103.743 277.296 105.204 277.296 106.664ZM266.714 155.249V145.963H277.296V155.249H266.714ZM266.714 144.642V135.356H277.296V144.642H266.714ZM266.714 134.035V124.749H277.296V134.035H266.714ZM266.714 123.393V114.107H277.296V123.393H266.714ZM266.47 101.656C266.226 98.5262 265.704 95.5353 265.008 92.6139L275.346 90.5968C276.182 93.9703 276.774 97.4481 277.052 101.03L266.47 101.656ZM264.695 91.3619C263.929 88.4754 262.989 85.7279 261.805 83.05L271.657 79.6417C273.049 82.7718 274.163 86.0061 275.033 89.3448L264.695 91.3619ZM261.249 81.8327C259.995 79.1548 258.533 76.5465 256.897 74.0425L266.017 69.3474C267.932 72.2688 269.638 75.2945 271.1 78.4245L261.249 81.8327ZM256.131 72.9296C254.426 70.4603 252.581 68.0606 250.457 65.7653L258.707 59.9226C261.109 62.5657 263.267 65.3132 265.252 68.1998L256.131 72.9296ZM249.552 64.7567C247.429 62.5309 245.166 60.4095 242.695 58.3923L249.97 51.6106C252.755 53.9408 255.366 56.3752 257.768 58.9488L249.552 64.7915V64.7567ZM241.651 57.4881C239.214 55.5405 236.638 53.6625 233.923 51.8541L240.154 44.342C243.217 46.3244 246.141 48.411 248.891 50.6716L241.651 57.4533V57.4881ZM265.217 106.803C265.217 133.548 265.217 172.36 265.217 187.071H166.009C165.904 183.941 165.835 179.107 165.835 176.394C165.835 174.621 166.043 164.222 167.331 161.683C169.35 157.475 174.259 154.206 179.515 151.771L202.837 157.788L206.667 146.346L198.765 144.329C199.287 144.051 199.879 143.842 200.401 143.564C205.1 141.164 209.312 138.834 212.48 135.495C213.837 134.069 215.125 132.226 217.075 129.27C219.755 125.201 220.173 119.219 220.416 116.298C220.625 113.55 220.869 110.803 220.869 108.055C220.869 106.977 220.869 105.934 220.73 104.856C220.138 97.8307 219.268 90.2143 213.629 84.302C210.67 81.172 206.98 78.7375 203.081 76.7551L221.53 72.6166L218.223 61.2094H217.632H217.527L184.876 68.5823C182.752 67.4694 180.768 66.2522 178.645 65.0697C174.781 62.9483 167.679 57.3838 164.233 51.2281C162.005 47.2981 160.857 43.2987 160.543 38.9862C160.439 37.3864 160.335 34.2564 160.335 31.8219C188.183 33.2826 213.315 40.4816 231.765 52.1671C252.616 65.348 265.112 83.6412 265.182 106.838L265.217 106.803ZM130.92 137.86L96.0755 128.818V89.9013L125.559 83.2587V82.0066L79.6452 71.6428L82.2907 62.6005L144.426 76.5813V51.6802H155.009V76.5813L217.179 62.6005L219.825 71.6428L173.876 82.0066V83.2587L203.325 89.9013V128.818L168.515 137.825L204.856 147.215L201.863 156.119L155.009 144.016V161.822H144.426V144.016L97.5723 156.119L94.5786 147.181L130.955 137.791L130.92 137.86ZM138.787 38.9514C138.474 43.2987 137.325 47.2634 135.097 51.1933C131.616 57.3142 124.55 62.8787 120.686 65.035C118.563 66.2174 116.544 67.4346 114.455 68.5475L81.1768 61.0355L77.8003 72.5818L96.2495 76.7204C92.316 78.7027 88.661 81.1372 85.7021 84.2672C80.0629 90.1795 79.1927 97.7959 78.6009 104.821C78.4965 105.864 78.4616 106.942 78.4616 108.021C78.4616 110.768 78.7053 113.516 78.949 116.263C79.1927 119.184 79.6104 125.166 82.2907 129.235C84.2749 132.226 85.5281 134.035 86.9205 135.461C90.0882 138.799 94.3002 141.129 98.9995 143.529C99.5216 143.807 100.079 144.051 100.636 144.294L92.7337 146.311L96.5628 157.753L119.885 151.737C125.142 154.171 130.05 157.44 132.069 161.648C133.357 164.187 133.566 174.586 133.566 176.359C133.566 179.072 133.496 183.941 133.392 187.036H34.1486C34.1486 172.534 34.1486 134.626 34.1486 106.769C34.2182 83.5717 46.715 65.3132 67.5661 52.0975C86.0502 40.4469 111.183 33.213 139.031 31.7524C139.031 34.1868 138.926 37.3168 138.822 38.9166L138.787 38.9514ZM98.4773 37.143L95.066 28.3441C98.547 27.3008 102.132 26.4313 105.753 25.5966L108.329 34.6389C104.952 35.4041 101.68 36.2387 98.4773 37.1777V37.143ZM97.0501 37.5603C93.778 38.5689 90.6103 39.647 87.5122 40.7947L83.2654 32.274C86.642 30.9872 90.123 29.8048 93.6736 28.7267L97.0849 37.5255L97.0501 37.5603ZM86.1894 41.3511C83.0217 42.6031 79.9933 43.9247 77.0692 45.3506L71.8478 37.2473C75.0851 35.6475 78.4268 34.1868 81.9078 32.8305L86.1894 41.3511ZM75.7813 45.9766C72.7876 47.472 69.9332 49.037 67.2529 50.7064L61.0567 43.1596C64.0852 41.2815 67.2877 39.5079 70.5946 37.8385L75.8161 45.9418L75.7813 45.9766ZM65.9997 51.4715C63.2497 53.2452 60.6738 55.0884 58.2023 57.036L50.9966 50.1847C53.7814 47.9589 56.7055 45.8722 59.8035 43.8899L65.9997 51.4367V51.4715ZM57.1232 57.975C54.6517 59.9921 52.389 62.1136 50.2308 64.3046L42.0505 58.3923C44.4872 55.8188 47.0979 53.3843 49.9175 51.089L57.1232 57.9402V57.975ZM41.1106 59.4009L49.2909 65.3132C47.2023 67.5738 45.2878 69.9734 43.5473 72.4079L34.4967 67.6433C36.4809 64.7915 38.7087 62.0093 41.1454 59.4009H41.1106ZM33.7309 68.7562L42.8163 73.5556C41.1454 76.0248 39.6486 78.6332 38.3954 81.3111L28.579 77.8333C30.0759 74.7032 31.8164 71.7123 33.7309 68.791V68.7562ZM37.7689 82.4935C36.5853 85.1367 35.6106 87.9189 34.81 90.7359L24.4715 88.6492C25.3765 85.3453 26.5253 82.111 27.9525 78.9809L37.7689 82.4935ZM24.1582 89.936L34.4967 92.0227C33.8005 94.805 33.2784 97.6915 32.9999 100.613L22.4177 99.8826C22.7658 96.4743 23.3576 93.1356 24.193 89.9013L24.1582 89.936ZM32.6518 112.75V123.393H22.0348V112.75H32.6518ZM32.6518 124.714V134H22.0348V124.714H32.6518ZM32.6518 135.321V144.607H22.0348V135.321H32.6518ZM32.6518 145.929V155.214H22.0348V145.929H32.6518ZM32.6518 156.536V165.822H22.0348V156.536H32.6518ZM32.6518 167.143V176.464H22.0348V167.143H32.6518ZM266.714 167.143H277.296V176.464H266.714V167.143ZM266.714 165.857V156.571H277.296V165.857H266.714ZM178.714 32.3088C175.338 31.8219 171.926 31.4046 168.48 31.0568L169.559 21.8058C173.249 22.1536 176.939 22.6057 180.524 23.1274L178.679 32.274L178.714 32.3088ZM167.018 30.9525C163.642 30.6742 160.161 30.4656 156.68 30.3265L157.028 21.0059C160.752 21.1451 164.442 21.3537 168.062 21.6667L166.983 30.9177L167.018 30.9525ZM143.382 30.2917C139.901 30.4308 136.455 30.6395 133.044 30.8829L131.999 21.6319C135.654 21.3189 139.309 21.1103 143.034 21.0059L143.347 30.2917H143.382ZM131.547 30.9872C128.066 31.3002 124.689 31.7176 121.313 32.2045L119.537 23.0231C123.158 22.5014 126.813 22.0493 130.537 21.7363L131.582 30.9872H131.547ZM22.0348 188.393H32.6518V197.713H22.0348V188.393ZM34.1486 188.358H44.8701V197.678H34.1486V188.358ZM46.3669 188.358H57.1232V197.678H46.3669V188.358ZM58.62 188.358H69.3763V197.678H58.62V188.358ZM70.8731 188.358H81.6293V197.678H70.8731V188.358ZM83.0914 188.358H93.8476V197.678H83.0914V188.358ZM95.3445 188.358H106.101V197.678H95.3445V188.358ZM107.598 188.358H118.354V197.678H107.598V188.358ZM119.816 188.358H130.572V197.678H119.816V188.358ZM132.069 188.358H142.825V197.678H132.069V188.358ZM144.322 188.358H155.043V197.678H144.322V188.358ZM156.54 188.358H167.297V197.678H156.54V188.358ZM168.793 188.358H179.55V197.678H168.793V188.358ZM181.046 188.358H191.803V197.678H181.046V188.358ZM193.265 188.358H204.021V197.678H193.265V188.358ZM205.518 188.358H216.274V197.678H205.518V188.358ZM217.771 188.358H228.492V197.678H217.771V188.358ZM229.989 188.358H240.745V197.678H229.989V188.358ZM242.242 188.358H252.999V197.678H242.242V188.358ZM254.461 188.358H265.217V197.678H254.461V188.358ZM278.793 165.126V150.728L297.555 147.111L295.119 162.135L278.793 165.126ZM278.793 149.406V134.8L297.555 131.183L295.119 146.242L278.793 149.372V149.406ZM278.793 133.478V118.871L297.555 115.289L295.119 130.348L278.793 133.478ZM278.793 117.55V106.803C278.793 106.803 278.793 106.699 278.793 106.664C278.793 105.273 278.723 103.917 278.619 102.595L297.207 98.4914L295.153 114.455L278.758 117.585L278.793 117.55ZM278.584 101.239C278.166 96.057 277.191 91.0489 275.695 86.2496L294.388 80.0591L294.457 97.7263L278.584 101.239ZM257.593 56.723C253.834 52.8626 249.622 49.3153 245.062 46.0461L257.419 29.9439L269.951 45.4549L257.593 56.723ZM243.913 45.1767C242.556 44.2377 241.128 43.2987 239.701 42.4292C236.185 40.2034 232.461 38.1863 228.597 36.2735L239.632 19.1627L253.973 32.0654L243.913 45.1767ZM227.274 35.6127C221.739 32.9696 215.891 30.6047 209.765 28.5876L219.442 9.70308L236.429 21.4581L227.309 35.5779L227.274 35.6127ZM208.372 28.1702C202.489 26.327 196.328 24.7272 189.958 23.4752L197.686 1.98235L216.518 12.2071L208.372 28.1354V28.1702ZM192.882 25.4228L190.271 34.4303C186.964 33.6999 183.588 33.0739 180.211 32.5523L182.056 23.4056C185.746 23.9969 189.366 24.6576 192.917 25.4228H192.882ZM155.218 30.2917C153.407 30.2221 151.597 30.1873 149.752 30.1873H149.683C149.683 30.1873 149.683 30.1873 149.648 30.1873C148.047 30.1873 146.445 30.2221 144.879 30.2569L144.566 20.9712C146.271 20.9016 148.012 20.9016 149.718 20.9016C151.702 20.9016 153.651 20.9016 155.6 20.9712L155.252 30.2917H155.218ZM119.851 32.4479C116.439 32.9696 113.063 33.5956 109.791 34.2912L107.215 25.2836C110.765 24.5185 114.42 23.823 118.075 23.3013L119.851 32.4827V32.4479ZM91.028 28.1702L82.8477 12.2419L101.715 2.01713L109.442 23.51C103.072 24.762 96.9457 26.327 91.0628 28.205L91.028 28.1702ZM89.6008 28.6223C83.4743 30.6047 77.6262 32.9696 72.0914 35.6475L62.9712 21.5276L79.9585 9.77263L89.6356 28.6571L89.6008 28.6223ZM70.7687 36.2735C66.9048 38.1863 63.1801 40.2034 59.6295 42.4292C58.2023 43.3334 56.8099 44.2377 55.4175 45.1767L45.3574 32.0654L59.6991 19.1627L70.7338 36.2735H70.7687ZM54.2688 46.0461C49.7087 49.2805 45.5315 52.8626 41.7372 56.723L29.3797 45.4897L41.9112 29.9787L54.2688 46.0809V46.0461ZM23.6708 86.2496C22.174 91.0142 21.1993 96.0222 20.7816 101.239L4.9083 97.7263L4.97792 80.0591L23.6708 86.2496ZM20.712 102.595C20.6424 103.917 20.5728 105.308 20.5728 106.664C20.5728 106.699 20.5728 106.769 20.5728 106.838V117.55L4.17729 114.42L2.12351 98.4567L20.712 102.56V102.595ZM20.5728 118.871V133.478L4.28172 130.348L1.84503 115.289L20.6076 118.871H20.5728ZM20.5728 134.8V149.406L4.28172 146.276L1.84503 131.218L20.6076 134.835L20.5728 134.8ZM20.5728 150.728C20.5728 155.701 20.5728 160.535 20.5728 165.126L4.24691 162.135L1.81022 147.111L20.5728 150.728ZM22.0348 177.751H32.6518V187.071H22.0348V177.751ZM277.296 197.713H266.714V188.393H277.296V193.053V197.748V197.713ZM266.714 187.071V177.751H277.296V187.071H266.714Z" fill="#0B0E0F"/>
<path d="M144.391 88.6493L143.452 88.858L106.657 97.1699V104.821H144.391V88.6493Z" fill="#0B0E0F"/>
<path d="M192.708 121.897V114.107H154.974V131.635L155.948 131.391L192.708 121.897Z" fill="#0B0E0F"/>
<path d="M192.708 104.16V97.1699L154.974 88.6493V104.821H192.708V104.16Z" fill="#0B0E0F"/>
<path d="M144.391 114.107H106.657V114.768V121.897L144.391 131.67V114.107Z" fill="#0B0E0F"/>
</g>
<defs>
<clipPath id="clip0_27_562">
<rect width="299.365" height="199" fill="white"/>
</clipPath>
</defs>
</svg>
