<svg xmlns="http://www.w3.org/2000/svg" xmlns:xlink="http://www.w3.org/1999/xlink" viewBox="0 0 1000 1000" width="1000" height="1000" preserveAspectRatio="xMidYMid meet" style="width: 100%; height: 100%;"><g><g transform="matrix(1,0,0,1,498,456)" opacity="1" style="display: block;"><g opacity="1" transform="matrix(1,0,0,1,0,0)"><path stroke-linecap="round" stroke-linejoin="miter" fill-opacity="0" stroke-miterlimit="4" stroke="rgb(0,0,0)" stroke-opacity="1" stroke-width="100" d=" M-402,-256 C-402,-256 406,-256 406,-256"></path></g></g><g transform="matrix(1,0,0,1,472.489990234375,825.6500244140625)" opacity="1" style="display: block;"><g opacity="1" transform="matrix(1,0,0,1,0,0)"><path stroke-linecap="round" stroke-linejoin="miter" fill-opacity="0" stroke-miterlimit="4" stroke="rgb(0,0,0)" stroke-opacity="1" stroke-width="100" d=" M-376.489990234375,-325.6499938964844 C-376.489990234375,-325.6499938964844 431.510009765625,-325.6499938964844 431.510009765625,-325.6499938964844"></path></g></g><g transform="matrix(1,0,0,1,498,1056)" opacity="1" style="display: block;"><g opacity="1" transform="matrix(1,0,0,1,0,0)"><path stroke-linecap="round" stroke-linejoin="miter" fill-opacity="0" stroke-miterlimit="4" stroke="rgb(0,0,0)" stroke-opacity="1" stroke-width="100" d=" M-402,-256 C-402,-256 406,-256 406,-256"></path></g></g></g></svg>
